<svg id="Layer_1" data-name="Layer 1" xmlns="http://www.w3.org/2000/svg" xmlns:xlink="http://www.w3.org/1999/xlink" viewBox="0 0 1643.31 1025.98"><defs><style>.cls-1{fill:none;}.cls-2{fill:#e7f3fe;}.cls-3{fill:#cce2ff;}.cls-28,.cls-4{fill:#9ec8ff;}.cls-26,.cls-4{opacity:0.5;}.cls-26,.cls-5{fill:#fff;}.cls-6{fill:#303c60;}.cls-7{fill:#4476bd;}.cls-8{fill:#3e6bab;}.cls-9{fill:#f09959;}.cls-10{fill:#a2dff2;}.cls-11{fill:#96cfe0;}.cls-12{fill:#e38540;}.cls-13{fill:#f5dc95;}.cls-14{fill:#a8ceff;}.cls-15{fill:#93bbf0;}.cls-16{fill:#75a1de;}.cls-17{fill:#2e5b9a;}.cls-18{fill:#6791c9;}.cls-19{fill:#f37168;}.cls-20{fill:#d54a41;}.cls-21{fill:#f2e5de;}.cls-22{fill:#a86b48;}.cls-23{fill:#7a4e34;}.cls-24{fill:#74b570;}.cls-25{fill:#9cd499;}.cls-27{fill:#94bdf2;}.cls-29{fill:#f39892;}.cls-30{clip-path:url(#clip-path);}.cls-31{fill:#ffb8b3;}.cls-32{fill:#fae8b6;}</style><clipPath id="clip-path" transform="translate(-138.53 -26.69)"><path class="cls-1" d="M222.22,114a68.27,68.27,0,1,0,68.27,68.27A68.26,68.26,0,0,0,222.22,114Zm0,104.44a36.17,36.17,0,1,1,36.17-36.17A36.17,36.17,0,0,1,222.22,218.45Z"/></clipPath></defs><path class="cls-2" d="M323.82,105.75C571.32,13.86,822.87,95.1,993.48,272S1522.13,149.91,1712,326.55c129.59,120.54,70.23,430.48-107.46,564.72C1363,1073.73,463.26,1079.21,314,1016.6c-255.11-107-1.63-305.13-120.71-495.06C52.77,297.46,214.45,146.35,323.82,105.75Z" transform="translate(-138.53 -26.69)"/><path class="cls-3" d="M1717,963.84c-123.9-6.05-545.35,4.21-673.53,8.21s-277-5.28-354.25-18.92-524,1.16-503.76,37.84,199.05,16.41,401.78,31.15,658.67-1.84,761.52,0,197.15-3.68,329.69-11S1788.8,967.36,1717,963.84Z" transform="translate(-138.53 -26.69)"/><path class="cls-4" d="M1448.29,156.41a119.93,119.93,0,0,0,.75-13.34c0-2.38-.08-4.74-.22-7.08l-22-7.13a97,97,0,0,0-7.8-26.4l14.61-18A119,119,0,0,0,1422,67.65l-22,7.19a98.3,98.3,0,0,0-21.82-16.77l1.25-23.15a117.93,117.93,0,0,0-19.23-6.82l-13.61,18.78a98.41,98.41,0,0,0-27.51-.72l-12.6-19.47a118,118,0,0,0-19.57,5.78l0,23.19a97.62,97.62,0,0,0-22.68,15.6l-21.62-8.35a120.24,120.24,0,0,0-12.45,16.19l13.65,18.73a96.56,96.56,0,0,0-9.2,26l-22.38,6a119.62,119.62,0,0,0-.75,13.33c0,2.38.08,4.74.22,7.08l22,7.13a97.13,97.13,0,0,0,7.8,26.41l-14.61,18a119,119,0,0,0,11.58,16.83l22-7.19a98.3,98.3,0,0,0,21.82,16.77l-1.25,23.15a118.26,118.26,0,0,0,19.23,6.82L1314,239.26a98.41,98.41,0,0,0,27.51.72l12.6,19.47a118,118,0,0,0,19.57-5.78l0-23.19a97.89,97.89,0,0,0,22.68-15.59l21.62,8.34A120.24,120.24,0,0,0,1430.36,207l-13.64-18.73a96.88,96.88,0,0,0,9.19-25.95Zm-118,33.24a46.58,46.58,0,1,1,46.58-46.58A46.57,46.57,0,0,1,1330.27,189.65Z" transform="translate(-138.53 -26.69)"/><path class="cls-5" d="M1393.81,196.86a2.41,2.41,0,0,1-1.85-3.94,78.1,78.1,0,0,0,13.77-75.27,2.4,2.4,0,1,1,4.54-1.56,82.9,82.9,0,0,1-14.62,79.9A2.39,2.39,0,0,1,1393.81,196.86Z" transform="translate(-138.53 -26.69)"/><path class="cls-5" d="M1387.06,86.91a2.4,2.4,0,0,1-1.64-.65,77.41,77.41,0,0,0-26.86-16.55,2.4,2.4,0,1,1,1.64-4.52,82.36,82.36,0,0,1,28.51,17.57,2.4,2.4,0,0,1,.1,3.39A2.37,2.37,0,0,1,1387.06,86.91Z" transform="translate(-138.53 -26.69)"/><path class="cls-5" d="M1312.2,67.49a2.4,2.4,0,0,1-.58-4.72A83.06,83.06,0,0,1,1332,60.25a2.4,2.4,0,0,1,0,4.8,78.43,78.43,0,0,0-19.16,2.37A2.38,2.38,0,0,1,1312.2,67.49Z" transform="translate(-138.53 -26.69)"/><rect class="cls-4" x="377.6" y="0.34" width="742.3" height="445.86"/><rect class="cls-5" x="413.77" y="11.22" width="698.36" height="409.31"/><path class="cls-6" d="M1147.81,249.44c33.28-31.68,90.16-31,89,17.28s2.78,52.77,16.48,78.08c47.52,87.81-56.64,82.64-100.08,85.52s-39.84-79-32.16-124.32S1138.07,258.71,1147.81,249.44Z" transform="translate(-138.53 -26.69)"/><path class="cls-7" d="M1163.32,526c-10.67,89.61-30.06,155.84-32.22,198.32s-10.8,209.73-10.8,209.73,23.76-1.66,25.92-5.26,44.64-97.92,42.48-156.23,42.43-147,42.43-147l-10.75-87Z" transform="translate(-138.53 -26.69)"/><path class="cls-8" d="M1173.57,565l-16.69,7c-4.53,28.42-9.57,54-14,76.62C1169.45,665.81,1183.17,723,1189,758c3-39.13,21.46-86.41,32.91-112.55Z" transform="translate(-138.53 -26.69)"/><path class="cls-7" d="M1250.62,517s36,45.87,34.83,97.92c-1.71,79.22-10.35,101.84,4.68,184.91,5.87,32.44-13,138.57-13,138.57s-16.09,1.26-24.72-3c.72-7.8-10.4-134.65-32-193-10.48-28.24-25.22-107.33-33.14-152.68S1177.9,535,1180.78,535,1250.62,517,1250.62,517Z" transform="translate(-138.53 -26.69)"/><path class="cls-9" d="M1045.73,389.6s1.6-23.74-1-31.07-24.64-13.73-24.64-13.73-1,33.92,1.28,38.08,15.36,16,15.36,16Z" transform="translate(-138.53 -26.69)"/><path class="cls-10" d="M1169.88,372.31c-50.55,54.41-67.05,77.31-70.89,77.31-12-21.18-51.86-66-51.86-66l-17,10.92s39.28,102.61,64.24,103.67,75.69-35.38,76.33-39.57S1169.88,372.31,1169.88,372.31Z" transform="translate(-138.53 -26.69)"/><path class="cls-11" d="M1117.16,492.91c24.73-10.07,53.06-31.13,53.54-34.25.65-4.18-.82-86.35-.82-86.35-11,11.86-20.64,22.38-29,31.58C1131.83,437.62,1132.43,474.34,1117.16,492.91Z" transform="translate(-138.53 -26.69)"/><path class="cls-10" d="M1221.25,336.48s48.37,24.25,58.93,67.18-20.68,95.95-24.52,124.25-92.16,33.28-92.16,3c0-29-22.12-90.69-20.88-106.39,2.93-36.85,56.79-82,56.79-82Z" transform="translate(-138.53 -26.69)"/><path class="cls-9" d="M1207.19,280.87,1228,344.92s-22.18,17.11-60.13,58.28c1.47-27.39,24.42-57.26,24.42-57.26l-15.71-60.48Z" transform="translate(-138.53 -26.69)"/><path class="cls-12" d="M1216.88,310.75l-9.69-29.88-30.65,4.59,15.71,60.48s-1.53,2.45-3.79,6.29C1203.26,341.24,1212.34,327.57,1216.88,310.75Z" transform="translate(-138.53 -26.69)"/><path class="cls-9" d="M1195.74,295.33c-5.6,20.38-27.29,31.6-42.7,27.36s-18.72-22.32-13.11-42.7,22.63-33.47,38-29.24S1201.35,275,1195.74,295.33Z" transform="translate(-138.53 -26.69)"/><path class="cls-10" d="M1159.64,502.18c6.73,42.62-18.24,133.8-18.24,133.8s14.89,3.38,59.53-.94,64.32-48.87,71-50.11,10.17,41.46,13.48,44.83,3.82-53.93-4.84-76.46c-15.36-39.93-12.36-56.87-6.61-81.06C1284.2,429.22,1159.64,502.18,1159.64,502.18Z" transform="translate(-138.53 -26.69)"/><path class="cls-7" d="M1121.39,913.1c4,16.34-3.92,29.3-14.54,38.74-8.64,7.68-35.2,10.94-33.92,14.78s32.64,5.06,43.2,3.46,13.44-6.72,26.58-6.71c8.62,0,10.22-7,6.38-15.67s-5.19-13.45-1.72-21.21S1121.39,913.1,1121.39,913.1Z" transform="translate(-138.53 -26.69)"/><path class="cls-7" d="M1278.1,913.1c-.64,17-2.61,29.6,1.55,37.46,16.06,13.44,29.42,28.71,24.32,29.76-24.32,5-33.6-9.55-47.36-13.7-16.89-5.08,1.6-26.3-5-53.52-3.68-15.13,25.5-11.5,25.5-11.5Z" transform="translate(-138.53 -26.69)"/><path class="cls-11" d="M1284.24,567.21a80.06,80.06,0,0,0-3.63-13.91c-15.36-39.93-12.36-56.87-6.61-81.06a19.27,19.27,0,0,0,.58-5.05c1.29-4.32,2.5-8.69,3.56-13.09L1272.93,407l-37.59-44.64c-28.17,41.28-9.16,92.64-13.39,121s-51.43,64.43-51.43,64.43l1.54,10.05a25.51,25.51,0,0,0,28.7,21.44c19.45-2.7,45-8.13,56.33-18.66C1268.08,550.42,1277.81,558.31,1284.24,567.21Z" transform="translate(-138.53 -26.69)"/><path class="cls-9" d="M1181.56,546.17s-20.84,5.83-23.33,7.13-3.87,8.2-3.87,8.2-11.92,10.35-7.35,14,12.73,13,23.51,8.63c6.63-2.65,11.76-27,16.1-27.17S1181.56,546.17,1181.56,546.17Z" transform="translate(-138.53 -26.69)"/><path class="cls-10" d="M1240.58,357c22.3.63,42.52,40.8,49.56,75.65S1304.61,517,1304.61,517s-37,29.17-73.48,37.7C1199.27,562.13,1183,565,1183,565l-6.47-18.19,76.23-44.77s-28-52.8-30.82-92.64S1223.63,356.48,1240.58,357Z" transform="translate(-138.53 -26.69)"/><rect class="cls-13" x="973.43" y="342.04" width="56.7" height="36.01" transform="translate(-189.79 177.43) rotate(-11.35)"/><path class="cls-9" d="M1032.36,386.72c.76-14.6-6.47-34.52-10.63-34.49s1.28,13-1,21.69C1019.55,378.6,1032.36,386.72,1032.36,386.72Z" transform="translate(-138.53 -26.69)"/><path class="cls-6" d="M1144,257.12c1.24,40,48,36.93,60.76,34.47s-15.59,84.39,8.8,89.4c17.9,3.68,13.87-24.33,33.76-22.46,8.8.83,17.64,14.43,17.64,14.43a27.14,27.14,0,0,0-8-14.43c-6.72-6-24.34-43.17-29-69.73s-36-43.74-45.27-44.27-32,10-32,10Z" transform="translate(-138.53 -26.69)"/><path class="cls-6" d="M1213.15,390a9.79,9.79,0,0,1-1.92-.2c-7.81-1.67-11.59-9.87-11.91-25.82-.28-13.67,2-31.21,4.37-49.78,1-7.51,2-15.27,2.79-22.78a1.17,1.17,0,0,1,2.33.26c-.83,7.53-1.83,15.3-2.8,22.82-4.62,35.93-9,69.88,5.7,73a7.16,7.16,0,0,0,1.37.14c8.44,0,16.05-16.45,20.48-32.48a1.17,1.17,0,1,1,2.25.62C1232.89,366.41,1225,390,1213.15,390Z" transform="translate(-138.53 -26.69)"/><path class="cls-6" d="M1210,399.34a9.22,9.22,0,0,1-6.91-3.07c-15.93-16.84-.18-101.31.5-104.9a1.17,1.17,0,0,1,2.3.44c-.17.86-16.21,86.87-1.1,102.85a7,7,0,0,0,6.35,2.26c8.28-1.09,13-12.31,17.26-22.21,4.09-9.61,7.93-18.68,14.78-18.44a1.19,1.19,0,0,1,1.13,1.21,1.16,1.16,0,0,1-1.21,1.13H1243c-5.14,0-8.65,8.27-12.38,17-4.45,10.48-9.5,22.35-19.1,23.62A10.3,10.3,0,0,1,1210,399.34Z" transform="translate(-138.53 -26.69)"/><path class="cls-9" d="M1206.5,299.27c-3.29,4.24-8.45,5.75-11.52,3.37s-2.9-7.76.4-12,8.45-5.75,11.52-3.37S1209.79,295,1206.5,299.27Z" transform="translate(-138.53 -26.69)"/><path class="cls-6" d="M843.49,447.39c11.41,22.81,2,49.08-20.47,58.36s-47.27,4-58.68-18.78-2.93-50.16,18.92-61.09S832.08,424.58,843.49,447.39Z" transform="translate(-138.53 -26.69)"/><path class="cls-6" d="M782,508.49c-2.52,0-7.48-.9-13.79-6.49-5.18-4.59-8.9-11.64-10.47-19.83-2-10.34-.69-22.23,3.84-35.33a1.17,1.17,0,1,1,2.21.76c-4.39,12.71-5.66,24.2-3.75,34.13,1.47,7.69,4.93,14.27,9.72,18.52,8,7.1,13.36,5.8,13.42,5.79a1.18,1.18,0,0,1,1.43.82,1.16,1.16,0,0,1-.81,1.43A6.37,6.37,0,0,1,782,508.49Z" transform="translate(-138.53 -26.69)"/><path class="cls-14" d="M816.89,536.15c13,2.91,29.37,39,37.39,62.09,8.1,23.31,21.82,52.22,30.8,61.21s68,29.81,68,29.81-145.86.28-142.88,0S816.89,536.15,816.89,536.15Z" transform="translate(-138.53 -26.69)"/><path class="cls-15" d="M894.33,677.67c-8-1.14-36.8,2.57-24.53-2.57s10.55-11.69,10.55-11.69S863,678,859.81,665.24c-2.7-11-3.74-49.69-14-88.5-8.49-19.25-19.59-38.5-28.92-40.59,0,0-.33,13.66-.87,32.82,3.58,42.4,9.66,104.7,11.2,120.4,19.33,0,51.69,0,78.76,0l18-.86S902.31,678.81,894.33,677.67Z" transform="translate(-138.53 -26.69)"/><path class="cls-14" d="M769.16,528.15s-41.29,23.08-50.92,28,27,148.93,35.11,155.11,79.78,1.06,87.94-6.72-6.26-31.64.8-79.43-21.53-89-25.2-88.94-27.65-8-27.65-8Z" transform="translate(-138.53 -26.69)"/><path class="cls-15" d="M753.35,711.24c8.13,6.17,59.4,6.31,81.23-.48,2.46-.77,13.64-5.23,13.91-9.42-2.64-.49-13.09.77-17.34-.21-14.76-3.39-22.89-21.68-22.89-21.68s-8.13-2.92-26.31-10.62-10.69-31-11.12-41.29-18-43.85-50.91-69.3l-3,1.35C714.54,583,745.82,705.53,753.35,711.24Z" transform="translate(-138.53 -26.69)"/><path class="cls-16" d="M1037,598.24H937.61l-45.28,96.37h109.52l41-87.24A6.4,6.4,0,0,0,1037,598.24Z" transform="translate(-138.53 -26.69)"/><path class="cls-8" d="M898.25,696H838.42a6.72,6.72,0,1,1,0-13.44H894l37.55-80.82a6.72,6.72,0,0,1,12.19,5.67l-39.36,84.71A6.72,6.72,0,0,1,898.25,696Z" transform="translate(-138.53 -26.69)"/><path class="cls-9" d="M794.5,675.39c26,4.85,32.34,10.81,46.49,13.09,16,2.58,14.13,6.13,2.21,6.13s-41.84.46-52.12-1.82S794.5,675.39,794.5,675.39Z" transform="translate(-138.53 -26.69)"/><path class="cls-14" d="M715,558.84c-19.9,63.6-48.1,135.77-43.6,135.77s118.71,4.61,123.2.77,3.21-18.61,2.57-20.53-64.94-13.34-64.94-13.34,8.47-16.5,11.68-48.74S718.77,546.77,715,558.84Z" transform="translate(-138.53 -26.69)"/><path class="cls-9" d="M784.28,472.89l-16,58.55s27.08,42.27,34.52,38.51-4.16-34.35-4.16-38.51,11.6-47.05,11.6-47.05Z" transform="translate(-138.53 -26.69)"/><path class="cls-12" d="M799.17,534.43a16,16,0,0,1-.55-3c0-4.15,11.6-47.05,11.6-47.05l-25.94-11.5L779,492.26C783.61,512.28,792,525.61,799.17,534.43Z" transform="translate(-138.53 -26.69)"/><path class="cls-9" d="M844.24,471.92c3,17,1,39.53-14,45.26S797,512,789.64,492.68s-1-39.53,14-45.26S840.59,451.63,844.24,471.92Z" transform="translate(-138.53 -26.69)"/><path class="cls-9" d="M793.21,481.47c2.11,5.94.28,12-4.1,13.57s-9.64-2-11.75-7.92-.28-12,4.1-13.57S791.1,475.54,793.21,481.47Z" transform="translate(-138.53 -26.69)"/><path class="cls-6" d="M844.42,450.59c-5.14,39.84-53.55,34.71-53.55,34.71s-10-13.13-14.47-6.24,6.23-40.4,34-41.89C819.53,436.68,844.42,450.59,844.42,450.59Z" transform="translate(-138.53 -26.69)"/><ellipse class="cls-6" cx="630.46" cy="407.05" rx="26.22" ry="24.6"/><polygon class="cls-17" points="578.23 957.44 584.23 957.44 622.95 778.06 609.75 778.06 578.23 957.44"/><polygon class="cls-17" points="764.64 957.44 758.64 957.44 713.59 771.72 726.78 771.72 764.64 957.44"/><path class="cls-17" d="M785.18,811.47c-24,0-39.24-4.32-48.95-13.78-12-11.72-14.52-29.88-14.56-53.55,0-18.62-.47-30.75-1.48-40.56a6.72,6.72,0,0,1,13.37-1.38c1.06,10.28,1.52,22.82,1.55,41.92,0,24,3.08,36.72,10.5,44,7.62,7.41,21.38,10.48,44.63,9.89,22.45-.55,37.9-3.69,50.32-6.22,16.33-3.31,28.13-5.71,42.12,1a6.72,6.72,0,1,1-5.79,12.13c-9.93-4.75-18.36-3-33.65.07-12.94,2.63-29,5.91-52.67,6.49C788.73,811.44,786.93,811.47,785.18,811.47Z" transform="translate(-138.53 -26.69)"/><path class="cls-17" d="M730.61,695.38l36.77,1.53-9.79,101.5s-27.41-17.49-27-36.32S730.61,695.38,730.61,695.38Z" transform="translate(-138.53 -26.69)"/><path class="cls-9" d="M912.1,704.83c31.08-4.71,41.65-3.23,60.67,32.18s44.35,99.16,58.92,107.39c21.93,12.4,29.2,42.8,38.2,41.44s14.8,2.61,5,10.75-25.62,15.08-31,13.64-9.61-24.83-23.74-32.42-9.89-13.83-9-20.54-41.25-37.63-73-76.08c-19.43-23.49-29.43-39-30.92-53.05S912.1,704.83,912.1,704.83Z" transform="translate(-138.53 -26.69)"/><path class="cls-12" d="M989.16,833.22c-7.22-18.31-14.46-48.54-21.27-76.26-9.68-39.41-19.82-48.77-26.25-53-7.77-1.94-17-1.05-29.54.85,0,0-6.39,9.25-4.91,23.31s11.49,29.56,30.92,53.05c16.74,20.25,36.36,38.4,51,52Z" transform="translate(-138.53 -26.69)"/><path class="cls-17" d="M921.56,736s-8.27,62.41-16,68.75c-5.51,4.54-9.41,4.84-13.26-13.77s6-88.09,6-88.09Z" transform="translate(-138.53 -26.69)"/><polygon class="cls-9" points="776.44 743.08 699.89 755.94 743.11 693.98 776 687.28 795.72 691.81 776.44 743.08"/><path class="cls-17" d="M1011.16,857.27c-2.48,10-2.18,17.39,2.13,21.1s20.6,31.23,20.6,31.23l5.08-.77-11.75-25.19Z" transform="translate(-138.53 -26.69)"/><path class="cls-17" d="M1043.86,910.23c5.41,1.44,21.23-5.49,31-13.64s4-12.12-5-10.75a4,4,0,0,1-1.51-.08c-4.5,10-19.29,17.58-24.06,7s-25-31.45-33.17-35.93a1.87,1.87,0,0,1,0,.47c-.93,6.71-5.17,13,9,20.54S1038.45,908.78,1043.86,910.23Z" transform="translate(-138.53 -26.69)"/><path class="cls-12" d="M755.85,707.33c-27.16,48.74-8.6,79.72,24.41,82.88s85.12-2.87,115.49-28.12,55.31-51.93,51.83-55.91S755.85,707.33,755.85,707.33Z" transform="translate(-138.53 -26.69)"/><path class="cls-9" d="M909.87,743.7c5.56-16.69,12-29.49,24.39-29.72,13-.24,21.07,6.55,21.63,27.9.67,25.42,1.56,109.63.39,147.06-.89,28.34,7.37,37.42,6.67,67-.52,22.25,23.2,11,14,22.55-6.3,7.93-25.06,5.34-36.58,3.87-10.26-1.3,5.32-32.07-8.89-40.3-12.2-7.06-12.43-18.52-4.73-27.19s.85-34.35-4.28-52.32-13.1-37.4-18.33-79.89C902.68,770.52,906.47,753.89,909.87,743.7Z" transform="translate(-138.53 -26.69)"/><path class="cls-17" d="M968.87,969.37c-3.93,1.2-8.78,2.52-13,2.67-8.56.28-11.12-9.13-11.7-21.92-.49-11.16-8.6-28.74-16.92-35.87-.15.2-.31.4-.47.59-7.7,8.67-7.47,20.13,4.73,27.19,14.21,8.23-1.37,39,8.89,40.3,11.52,1.47,30.28,4.06,36.58-3.87C982.94,971,975.55,970.36,968.87,969.37Z" transform="translate(-138.53 -26.69)"/><path class="cls-17" d="M928.7,911.66s-12.48,13-11.34,18.45,5,19.11,5.64,29.66,1.21,22.67,1.21,22.67,4.49,0,4.85-1.28,2.85-42.89,2.85-42.89Z" transform="translate(-138.53 -26.69)"/><path class="cls-16" d="M742.77,702.89s-16.11,68.37,4.25,87.32,104.87,1.9,124.77.77c13.48-.77,26.53,15.68,26.53,15.68s-9.41-38.15-3-68.95,16.78-32.88,16.78-32.88l-13.78-1.94Z" transform="translate(-138.53 -26.69)"/><path class="cls-14" d="M739.12,685c6.89,14.61-7.41,39.85-2.4,47.13s33.71,1,52.52-14.12,54.4-18.47,54.4-18.47Z" transform="translate(-138.53 -26.69)"/><path class="cls-17" d="M768.26,809.58c56.9,2.14,116.8,1.13,116.8-7.35s-2.57-14.47-46.64-11-74,8.13-87.27,5.13S768.26,809.58,768.26,809.58Z" transform="translate(-138.53 -26.69)"/><rect class="cls-17" x="428.61" y="667.92" width="814.1" height="15.49" rx="7.75"/><path class="cls-9" d="M1481.57,487c5.52,19.43-8,39.46-22.78,43.66s-25.41-9-30.93-28.43,2.05-38.6,16.88-42.8S1476.06,467.57,1481.57,487Z" transform="translate(-138.53 -26.69)"/><path class="cls-9" d="M1398.42,863.59s38,59,43.14,61.6,18,3.21,13.16,12.84-6.74,47.48-11.23,49.41-43,6.42-37.22,0,9.33-3.21,12.24-14.76,7-33.37,1.56-37.86-38.83-44.92-38.83-44.92Z" transform="translate(-138.53 -26.69)"/><path class="cls-9" d="M1207.11,888.94s-46.2,76.16-54.76,83-36.79,17.11-13.69,18.83,34.23-7.71,48.77-12,32.52-6.85,25.67-18-4-35.41,10.76-50.81S1207.11,888.94,1207.11,888.94Z" transform="translate(-138.53 -26.69)"/><path class="cls-18" d="M1442.9,712.36s-114.38-3-159.73,34.22c-26.52,40.22-90.69,158.87-95.68,171.95,3.42,3.42,22.68,9.6,31.23,8.74,25.24-30.09,58.61-56.11,71.88-79.72,16.35-29.09,21.39-43.64,47.91-46.21s86.42-11.12,104.39-11.12S1442.9,712.36,1442.9,712.36Z" transform="translate(-138.53 -26.69)"/><polygon class="cls-17" points="1404.11 964.28 1398.11 964.28 1355.12 784.91 1368.31 784.91 1404.11 964.28"/><polygon class="cls-17" points="1224.51 964.28 1230.5 964.28 1279.84 778.56 1266.65 778.56 1224.51 964.28"/><path class="cls-16" d="M1508.06,704.52,1441.56,716s-88.37.81-128.76,8.34c-36.75,6.84-42.17,48.6,0,106.1,24,32.66,44.2,58.71,85.62,88.09,10.53-7.74,14.56-10.66,17.48-29.27-3-4.11-10.76-29.83-13.17-34.87-22.91-47.88-53.48-65.29-53.91-70,5.14-8.34,136,43.49,162,13C1535.66,768.28,1508.06,704.52,1508.06,704.52Z" transform="translate(-138.53 -26.69)"/><path class="cls-19" d="M1510.83,554a69.57,69.57,0,0,0-52,12.95c-14.58,14.86-31.07,39.37-30.06,79.79,1.28,51.33-7.94,54.63,1.68,68.75,40.15,16.58,108.81,87.8,92.64,11.44-11.71-55.29,25.68-96.51-4.48-157.84C1516.11,564.07,1513.05,559.23,1510.83,554Z" transform="translate(-138.53 -26.69)"/><path class="cls-20" d="M1428.72,666c-.78,26.76-4.56,34.64-1.67,43,16.36,1.68,46.3,8.22,53.78,18.7,8.56,12,17.12,13.69,13.12,4.85s-14.54-21.39,1.72-64.46,23.95-72.16,8-102.11Z" transform="translate(-138.53 -26.69)"/><path class="cls-9" d="M1510.83,554c-10.79-25.53-13.44-54.21-13.44-54.21l-28.23,8.34s16,35.93.64,48.77a147.44,147.44,0,0,0-11,10A69.57,69.57,0,0,1,1510.83,554Z" transform="translate(-138.53 -26.69)"/><path class="cls-12" d="M1498.24,506.56c-1.67-1.49-3.76-3.35-6-5.29l-23,6.8s0,.09,0,.13c.56,1.27,6.42,15,7.19,28.12,6.87-4.16,14.38-11,23-22.81C1498.9,510.88,1498.53,508.53,1498.24,506.56Z" transform="translate(-138.53 -26.69)"/><path class="cls-9" d="M1491,562c-29.08,10.17-25.85,40.81-52.61,86-13.86,23.38-26.72,23-26.72,23a619.15,619.15,0,0,1-71.78-4.55c-24.6-3-26.16,4.32-9,10.43,34.51,12.34,70.33,25.62,99.2,22.42s78.27-76.89,80.82-96.07C1514.35,576.74,1505.62,556.88,1491,562Z" transform="translate(-138.53 -26.69)"/><path class="cls-17" d="M1476,818.31c-1.8,0-3.65,0-5.54-.07-23.64-.58-39.73-3.85-52.67-6.48-15.29-3.11-23.72-4.82-33.65-.08a6.72,6.72,0,1,1-5.79-12.12c14-6.69,25.79-4.29,42.12-1,12.42,2.52,27.87,5.66,50.32,6.22,25.28.62,40.75-3.17,48.65-11.93,7-7.82,9.13-20.87,6.54-41-.88-6.83-1.76-12.52-2.54-17.53-2.17-14.07-3.61-23.36-1.83-37.69,1.65-13.36,6.08-31.18,16.35-65.75a6.72,6.72,0,1,1,12.88,3.82c-19.2,64.67-18.22,71-14.11,97.57.78,5.09,1.68,10.86,2.58,17.87,3.13,24.36,0,40.81-9.89,51.76C1519.24,813.17,1502.64,818.31,1476,818.31Z" transform="translate(-138.53 -26.69)"/><path class="cls-20" d="M1210.25,953.13c-30.66,15-47.16,23.58-57,22.76-2.32-.19-4.24-.43-5.85-.68-10.93,6.47-28.39,14.1-8.75,15.56,23.1,1.71,34.23-7.71,48.77-12s32.52-6.85,25.67-18A23.57,23.57,0,0,1,1210.25,953.13Z" transform="translate(-138.53 -26.69)"/><path class="cls-20" d="M1444.91,926.45c-.75,24.27-4.09,48.32-18.94,52.87a25,25,0,0,1-10.69.95c-2.34,2.89-5.19,2.92-9,7.17-5.78,6.42,32.73,1.92,37.22,0s6.42-39.79,11.23-49.41C1458.67,930.12,1450.72,928.28,1444.91,926.45Z" transform="translate(-138.53 -26.69)"/><path class="cls-16" d="M1326.81,696h-97.39a6.72,6.72,0,0,1-6.1-3.88L1184,607.38a6.72,6.72,0,0,1,12.19-5.67l37.55,80.82h93.11a6.72,6.72,0,0,1,0,13.44Z" transform="translate(-138.53 -26.69)"/><path class="cls-9" d="M1347.19,667.33c-19.68-.29-39.2-12-48.89-10.31s-41.36,23.68-37.37,24.53,29.1-12.15,30-12.35,6.28,9,19.68,12.39.1-10,41.65,2.51C1379.23,692.26,1347.19,667.33,1347.19,667.33Z" transform="translate(-138.53 -26.69)"/><path class="cls-21" d="M1507.93,530.67l2.9,23.3s-25.47,1.52-38.14,8.65-31.38,27.73-31.38,27.73L1456.59,564l2.2-16.82Z" transform="translate(-138.53 -26.69)"/><path class="cls-21" d="M1497.09,559.2c-18.91-3.55-27.66,13.4-39.93,41.07s-33.2,61.26-37.36,65.6-70.16,0-70.16,0-2,19.11,0,21.39,13.4,2,13.4,2,4.56,3.65,8.84,6.53,40.5,8.31,57.33,7.45,32.23-2.28,34.51-4.85,48.2-73.3,51-98.68S1506.75,561,1497.09,559.2Z" transform="translate(-138.53 -26.69)"/><path class="cls-6" d="M1441.31,442.83c-35.77,1.71-30.16,55.53-30.16,55.53s9.29,2.87,28.76-.34c-1.5-5.78-.86-20.54-.86-20.54s2.26,12,5.13,19.25c4.12,1.89,8.77.22,16.69-1.7,4.06,17.11,15.55,24.33,23.41,26.8,8.69,2.73,17.89,6,28.15.86s4.63-57.62-.83-68.17c-8.18-15.84-21.78-30-45.31-22.53C1454.49,435.74,1441.31,442.83,1441.31,442.83Z" transform="translate(-138.53 -26.69)"/><path class="cls-6" d="M1503.52,506.74l14.63,21.37s-16.21,40.5,30.93,58.85c36.93,14.37,32.58,39.69,15.89,65.15s10,47.7,10,47.7,4.07-28.21,40-33.53c48.91-7.26,62.76-72.93,26.22-105.77-30.23-27.17-39.43-4.67-59.89-29s-59.1-7.92-59.1-7.92L1508,502.89Z" transform="translate(-138.53 -26.69)"/><path class="cls-6" d="M1658,626.54a1.15,1.15,0,0,1-.56-.15,1.17,1.17,0,0,1-.46-1.59c12.32-22.53,2.26-49.82-2.79-57.22-.54-.78-1.05-1.57-1.58-2.41-5-7.76-11.17-17.42-44.16-23.36-7.9-1.43-14.31-6.13-21.1-11.11-14.07-10.34-30-22-64.68-6.09a1.17,1.17,0,0,1-1-2.13c35.91-16.52,52.45-4.38,67,6.33,6.56,4.82,12.76,9.37,20.13,10.7,34,6.12,40.49,16.25,45.71,24.4.52.82,1,1.6,1.54,2.35,3,4.46,6.81,13.69,8.35,24.26,1.34,9.17,1.48,22.76-5.44,35.41A1.16,1.16,0,0,1,1658,626.54Z" transform="translate(-138.53 -26.69)"/><path class="cls-6" d="M1495.71,528.5a51.06,51.06,0,0,1-7.58-.61c-12.46-1.87-29.19-9-30.51-48.8a1.17,1.17,0,0,1,1.13-1.21A1.15,1.15,0,0,1,1460,479c.54,16.49,3.82,28.7,9.74,36.28,4.5,5.78,10.47,9,18.78,10.29,11.64,1.74,19.36-.42,23-6.42a1.17,1.17,0,0,1,2,1.2C1510.2,525.78,1504.25,528.5,1495.71,528.5Z" transform="translate(-138.53 -26.69)"/><path class="cls-11" d="M379.23,556.78C337.71,580.52,280,679.21,292.15,695.32s77.65-26.25,77.65-26.25Z" transform="translate(-138.53 -26.69)"/><path class="cls-6" d="M456.81,442.32c-15.86-.43-10-12.22-28.21-7.51-9.58,2.47-2.51,6.42-15,5.13s-18.58-2.56-20.15,5.57-2.33,10.69-8.32,12-8.69,12,0,19.25S389.64,487,387.71,493s4.64,6.42,8.2,12-3.28,6.62,1.86,11.44,12.33,4.39,12.33,4.39l21.61-41.44Z" transform="translate(-138.53 -26.69)"/><path class="cls-17" d="M779.83,939.7s23.11.64,41.07-6.41,30.16-18,27-5.14-18,34.85-30.8,37-17.32,16.26-24.38,16.26-17.33-16.26-35.3-24.39C741,949.61,779.83,939.7,779.83,939.7Z" transform="translate(-138.53 -26.69)"/><path class="cls-17" d="M597.78,937.54a88.77,88.77,0,0,0,26.63,22.71c17.46,9.63,37.61,14.26,25.11,18.62s-30.75,7.73-48.57,2.56c-12.5-3.63-27.15-4.39-31-10.29s4.56-20.73,1.05-42.89C568.18,910.5,597.78,937.54,597.78,937.54Z" transform="translate(-138.53 -26.69)"/><path class="cls-8" d="M489.61,722.18s133.82,50.11,144.6,64.12,151.45,141.61,151.45,151-24,26.52-24,26.52-120.65-74-150.59-111.66-103-55.8-141.9-59.28S489.61,722.18,489.61,722.18Z" transform="translate(-138.53 -26.69)"/><path class="cls-7" d="M494.74,722.18s91.55-3.42,111.23,0,62.85,3.39,34.62,83.07c-22.14,62.46-29.44,141.53-29.44,141.53l-44,10.81s1.74-142.19,22.74-180.05a706.13,706.13,0,0,0-82.25,18.56c-72.16,20.64-111.73,10.31-111.73,10.31l-10.74-37.65Z" transform="translate(-138.53 -26.69)"/><polygon class="cls-22" points="279.75 459.11 257.38 525.21 285.64 543.82 301.66 486.71 279.75 459.11"/><path class="cls-23" d="M426.7,561.49l13.49-48.1L418.28,485.8,410.1,510C412.93,531.81,419.75,549.88,426.7,561.49Z" transform="translate(-138.53 -26.69)"/><path class="cls-22" d="M475.35,497c.72,20.1-9.15,37.5-24.85,39s-30-13.43-32-33.45,9.15-37.5,24.84-39S474.2,465.27,475.35,497Z" transform="translate(-138.53 -26.69)"/><path class="cls-10" d="M385.17,550c-68.67,46.38-26,121.31-10.88,176.08,12.84,46.64,12.42,74.83,14.35,74.83s49.15-7.06,76.1-31.45a412.67,412.67,0,0,0,45.17-48s-34.53-6.15-45.81-50.82c-5.73-22.68-3.13-35-16.19-70.92S385.17,550,385.17,550Z" transform="translate(-138.53 -26.69)"/><path class="cls-10" d="M385.17,550l7.35-18s23.32,15.4,32.63,22.67,15,9,15,9,3.36,25.8,1.18,23.46C413.85,557.6,385.17,550,385.17,550Z" transform="translate(-138.53 -26.69)"/><polygon class="cls-17" points="216.2 964.28 222.2 964.28 265.19 784.91 252 784.91 216.2 964.28"/><polygon class="cls-17" points="395.81 964.28 389.81 964.28 340.48 778.56 353.67 778.56 395.81 964.28"/><path class="cls-17" d="M421.53,818.31c-24,0-39.24-4.31-48.95-13.77-12-11.73-14.52-29.89-14.56-53.55-.08-49.75-2.83-60-16.83-90.42a6.72,6.72,0,1,1,12.2-5.63c14.81,32.11,18,43.92,18.07,96,0,24,3.08,36.72,10.5,43.95,7.62,7.42,21.38,10.48,44.63,9.9,22.45-.56,37.9-3.7,50.32-6.22,16.33-3.32,28.13-5.72,42.13,1a6.72,6.72,0,1,1-5.8,12.12c-9.93-4.74-18.36-3-33.65.08-12.94,2.63-29,5.9-52.67,6.48C425.08,818.29,423.28,818.31,421.53,818.31Z" transform="translate(-138.53 -26.69)"/><path class="cls-8" d="M718.23,695.2h-97.4a6.72,6.72,0,1,1,0-13.44h93.11l37.55-80.82a6.72,6.72,0,1,1,12.19,5.66l-39.36,84.71A6.72,6.72,0,0,1,718.23,695.2Z" transform="translate(-138.53 -26.69)"/><path class="cls-11" d="M387.71,617.49s17.12,52.19,38.29,73.8,63.8,28.86,77.14,28c-10.64-4.27-30.89-16.44-39-48.69-5.73-22.68-3.13-35-16.19-70.92-9.69-26.68-39.56-41.14-54.32-46.83,18.42,13.23,41.44,35,48.52,51.58C450,622.84,387.71,617.49,387.71,617.49Z" transform="translate(-138.53 -26.69)"/><path class="cls-22" d="M623.91,663.3s29.52-13.48,32.73-12.19,35.93,21,35.93,24.31-28.88-12.2-28.88-12.2,3.21,8.56,1.29,12.66-24.12,4.1-44.15,2.82S623.91,663.3,623.91,663.3Z" transform="translate(-138.53 -26.69)"/><path class="cls-10" d="M388.66,577.17c-27.21,55.77,66.13,112.3,121.5,117.33s121.17-13.1,121.17-13.1l-7.42-18.1S513,648.82,510.16,646.79,398.62,556.74,388.66,577.17Z" transform="translate(-138.53 -26.69)"/><path class="cls-22" d="M424,487.68c2.53,6.63.68,13.49-4.13,15.32s-10.74-2.07-13.26-8.7S406,480.81,410.77,479,421.51,481.05,424,487.68Z" transform="translate(-138.53 -26.69)"/><path class="cls-6" d="M475.38,445.22c7.52-3.14,16-6.5,13.37,6.28-1.14,5.56,0,4,2,9.12s-5,9.17-7.32,12,3.32,5.95-1.24,9.37-10.58-1.27-14.83,0c-12.69,3.79-11.12-6.19-18.26-8.27s-10.62-1.75-12,2.81,5,19.58-.43,18.16-6.64,10.69-8.1,17.54-5.17-4.73-4.93-12.56c.36-12-2.62-17.05-7-20.41s-6.31-33.92,15.08-35.06,21.53-3.2,30.66-5.13S472,446.65,475.38,445.22Z" transform="translate(-138.53 -26.69)"/><path class="cls-24" d="M1674.66,794.12c13.64,12.46,7.71,24.91-2.37,48s-11.86,108.52-11.86,108.52l8.3-1.19s-1.18-87.76,10.08-111.48,16-35.58,26.1-27.87S1674.66,794.12,1674.66,794.12Z" transform="translate(-138.53 -26.69)"/><path class="cls-25" d="M1667.17,778c1.66-7.38,11.49-15.37,24.65-22.14-2,10.89-8.23,28.68-1.74,32.33,8.75,4.93.85-19.92,4.23-33.58a162.47,162.47,0,0,1,40.89-13.41l0,.15c-7.71,19.56-17.79,27.27-13.64,30.24,3.12,2.23,13.3-20.38,26.73-32,10.08-.54,18.61.83,23.66,4.82,7.79,6.18,13,11.65,5.19,30.46a35.37,35.37,0,0,1-17,6.17c-17.79,1.78-26.1,2.37-13.64,8.3,6.09,2.9,16.32-.16,24.6-2-2.68,4.95-6,10.56-10,16.94a62.67,62.67,0,0,1-8.33,10.61c-5.73,1.1-10.73,1.11-13.38,0-8.3-3.56-29.65-14.83-35-10.08s39.54,7.58,36.44,19.38c-21.7,12.5-46.52,6.55-50.91-4.92C1683.94,803.84,1662.18,800.21,1667.17,778Z" transform="translate(-138.53 -26.69)"/><path class="cls-24" d="M1712,862.32c-23.72-17.79-48-1.19-60.49,17.79s-3.55,61.67-3.55,61.67,4.74,0,4.74-1.78-13-50.4,17.79-72.34c19.29-13.73,33.21-7.12,35-.6s-7.71,18.39-7.71,18.39Z" transform="translate(-138.53 -26.69)"/><path class="cls-25" d="M1657.46,825.75c23.73,0,31.43,36.77,24.91,58.12S1667,945,1667,945L1661,939s22.54-55.75,17.2-80.65-18.38-29.06-20.76-29.06S1657.46,825.75,1657.46,825.75Z" transform="translate(-138.53 -26.69)"/><path class="cls-24" d="M1677.36,884a17.22,17.22,0,0,1,6.24-5.25,47.94,47.94,0,0,1-1.23,5.09c-3,9.72-6.44,23.26-9.33,35.13-.26-1.52-.66-3.86-1.29-7.47-.15-.86-.26-1.78-.34-2.76A232.13,232.13,0,0,0,1677.36,884Z" transform="translate(-138.53 -26.69)"/><path class="cls-25" d="M1683.84,884.21c45.07-19,21.33-45,61.06-27.82,2.8,1.21,6.21,4.27,9.63,8.48a29.73,29.73,0,0,1-12.59,1c-11.86-1.78-7.71,7.71,11.86,10.08a44.26,44.26,0,0,1,9.17,1.93c9.32,17.91,13.52,41.47-6.21,49.66a44.66,44.66,0,0,1-14,2.88c-6.09-4.84,1.49-32.84-7.9-29-9,3.71,2.82,24,1.2,29.11a130,130,0,0,1-28.15-3.94c-3.73-2.09-6.57-4.89-7.44-8.57-3-12.45,16.6-20.16,17.19-30.83.55-9.82-7.17,21.59-27.62,26.21C1671.51,904.8,1662.78,893.08,1683.84,884.21Z" transform="translate(-138.53 -26.69)"/><path class="cls-25" d="M1651.73,850.66c4.75-10.08-7.71-12.46-7.11-4.75.52,6.83.58,23.44-6.43,28-12.08-1.31-28.52-6.18-41-13.6a5.08,5.08,0,0,1,.53-3.09c5.34-10.67,39.73-19.57,29.06-23.13-8.51-2.83-23.4,13.9-35.41,22.32-7.21-5.47-12-12-12-19.27,0-9.85,12-21,27.46-26.33,7,.7,13.43,4.51,23.54,10.24,14.94,8.46,11.48-5.22-2.64-13.34A42.53,42.53,0,0,1,1661.05,826s-.85,5.32,4.78,13.54c15.35,22.44-2.37,35.54-23.55,34.69C1643.48,868.27,1648.45,857.62,1651.73,850.66Z" transform="translate(-138.53 -26.69)"/><path class="cls-24" d="M1710.6,861.31c11.59,9,24.47,19.44,40.29,26.56s12.65,30.31,12.65,30.31,2.37-20-10.81-26.88-21.87-15-31.89-16.61a145.52,145.52,0,0,1-15.55-3.16s3.16-6.33,1.32-8.7S1710.6,861.31,1710.6,861.31Z" transform="translate(-138.53 -26.69)"/><path class="cls-24" d="M1767.76,756.08c-42.44,11.34-73.54,38.48-79.34,45.07s-5.8,8.44-5.8,8.44l4.48,8.43,2.11-1s-3.42-7.12,5.54-16.34c15.45-15.91,34.26-28.47,47.18-34S1767.76,756.08,1767.76,756.08Z" transform="translate(-138.53 -26.69)"/><path class="cls-16" d="M1658.73,932.85h0a29,29,0,0,1,29,29V991a0,0,0,0,1,0,0h-58a0,0,0,0,1,0,0V961.83A29,29,0,0,1,1658.73,932.85Z" transform="translate(3178.92 1897.13) rotate(-180)"/><rect class="cls-5" x="1491.21" y="912.82" width="57.96" height="4.08"/><rect class="cls-5" x="1491.21" y="920.26" width="57.96" height="2.4"/><path class="cls-13" d="M963,155A80.17,80.17,0,1,0,823.9,209.31,36.35,36.35,0,0,1,833.53,234V269.9a42.41,42.41,0,0,0,42.28,42.28H889.9a42.4,42.4,0,0,0,42.27-42.28V234A36.75,36.75,0,0,1,942,209.15,79.87,79.87,0,0,0,963,155Z" transform="translate(-138.53 -26.69)"/><path class="cls-26" d="M951.82,160.37A69,69,0,1,0,832.14,207.1a31.28,31.28,0,0,1,8.28,21.21v30.92a36.48,36.48,0,0,0,36.37,36.37h12.12a36.48,36.48,0,0,0,36.37-36.37V228.32A31.63,31.63,0,0,1,933.69,207,68.72,68.72,0,0,0,951.82,160.37Z" transform="translate(-138.53 -26.69)"/><path class="cls-27" d="M894.7,248.38H868.3a2.4,2.4,0,0,1-2.39-2.18c0-.51-5-51.48-27.76-65.75a2.4,2.4,0,0,1,2.54-4.07c22.23,13.92,28.55,56.87,29.77,67.2h21.7a79.06,79.06,0,0,1,2.16-19.24c2.73-11.84,9.43-29.7,25.82-47.55a2.4,2.4,0,0,1,3.54,3.25c-30,32.62-26.63,65.34-26.59,65.67a2.41,2.41,0,0,1-2.39,2.67Z" transform="translate(-138.53 -26.69)"/><path class="cls-27" d="M914.46,183.73c-8.91,0-21.06-6.33-33.86-13.19-16.53,8.8-32,16.7-40.61,11.46-4.06-2.46-6-7.28-5.93-14.73.06-7,2.07-11.75,6-14.06,8.66-5.12,24.13,3,40.58,11.88,16.77-8.94,32.57-17.27,41.19-12,3.88,2.36,5.79,7.15,5.7,14.25-.09,7.38-2.21,12.35-6.31,14.76A13,13,0,0,1,914.46,183.73ZM885.7,167.82c13.18,7,27,13.71,33.06,10.12,2.54-1.5,3.87-5.09,3.94-10.68.07-5.28-1.07-8.68-3.39-10.09C913.42,153.59,899.13,160.7,885.7,167.82Zm-39.18-11.41a7.92,7.92,0,0,0-4,.93c-2.36,1.4-3.58,4.75-3.62,10-.05,5.53,1.17,9.09,3.62,10.58,5.92,3.59,19.76-3.08,33-10.08C864.78,162.08,853.52,156.41,846.52,156.41Z" transform="translate(-138.53 -26.69)"/><rect class="cls-27" x="727.61" y="275.77" width="35.04" height="21.12" rx="10.56"/><path class="cls-27" d="M831.2,244.06v25.42a44.4,44.4,0,0,0,44.27,44.27h14.76a44.4,44.4,0,0,0,44.27-44.27V244.06Z" transform="translate(-138.53 -26.69)"/><rect class="cls-28" x="688.65" y="213.21" width="112.64" height="12.16" rx="6.08"/><rect class="cls-28" x="827.18" y="255.26" width="112.64" height="12.16" rx="5.76" transform="translate(-163.91 83.59) rotate(-7.04)"/><path class="cls-28" d="M934.42,278.74l-100.35,12.4a5.78,5.78,0,0,1-6.43-5l-.07-.64a5.77,5.77,0,0,1,5-6.42l100.35-12.4a5.78,5.78,0,0,1,6.43,5l.08.64A5.79,5.79,0,0,1,934.42,278.74Z" transform="translate(-138.53 -26.69)"/><rect class="cls-28" x="838.3" y="290.58" width="94.79" height="12.16" rx="5.29" transform="translate(-168.22 84.13) rotate(-7.04)"/><path class="cls-28" d="M1651.9,320.32h53.87a53.87,53.87,0,1,1-53.87-53.87Z" transform="translate(-138.53 -26.69)"/><path class="cls-29" d="M1714.8,312.78a53.87,53.87,0,0,0-53.88-53.87v53.87Z" transform="translate(-138.53 -26.69)"/><path class="cls-29" d="M1607.05,312.78a53.87,53.87,0,0,0,53.87,53.87A54.13,54.13,0,0,1,1607.05,312.78Z" transform="translate(-138.53 -26.69)"/><path class="cls-29" d="M1660.92,258.91a53.87,53.87,0,0,0-53.87,53.87A54.13,54.13,0,0,1,1660.92,258.91Z" transform="translate(-138.53 -26.69)"/><path class="cls-29" d="M1660.92,366.65a53.87,53.87,0,0,0,53.88-53.87A54.13,54.13,0,0,1,1660.92,366.65Z" transform="translate(-138.53 -26.69)"/><rect class="cls-28" x="458.99" y="258" width="11.77" height="34.05"/><rect class="cls-28" x="609.8" y="269.08" width="11.77" height="22.97"/><rect class="cls-28" x="508.85" y="212.39" width="11.77" height="79.66"/><rect class="cls-28" x="533.79" y="256.24" width="11.77" height="35.8"/><rect class="cls-28" x="558.72" y="246.11" width="11.77" height="45.94"/><rect class="cls-28" x="483.92" y="235.52" width="11.77" height="56.52"/><rect class="cls-28" x="583.74" y="222.43" width="11.77" height="69.62"/><g class="cls-30"><path class="cls-10" d="M283.93,220l-61.71-37.73-11.16,71.46A72.4,72.4,0,0,0,283.93,220Z" transform="translate(-138.53 -26.69)"/><path class="cls-25" d="M284,219.93c.17-.27.38-.65.38-.63a72.38,72.38,0,0,0,1.6-71.21c-21.84,11.44-8.84,4.49-63.75,34.19C284,220.08,274.43,214.25,284,219.93Z" transform="translate(-138.53 -26.69)"/><path class="cls-28" d="M154.39,157.29l67.83,25,63.63-34.41C256.09,92.83,176,99.43,154.39,157.29Z" transform="translate(-138.53 -26.69)"/><path class="cls-29" d="M211.06,253.74l11.16-71.46-67.83-25C138.26,200.53,166.89,246.78,211.06,253.74Z" transform="translate(-138.53 -26.69)"/><path class="cls-5" d="M150,169.12a7,7,0,0,1,3.43.88,68.22,68.22,0,0,1,2.46-9.62L192.67,174v0a6.56,6.56,0,0,1,1.6-4.5l-3.69-1.36-33.06-12.18A71,71,0,0,1,168.17,138a7.15,7.15,0,0,1-3.68-3.08A75.88,75.88,0,0,0,153,154.22h0l-.84,2.24-.84,2.25,0,0a73.62,73.62,0,0,0-2.7,10.53A7.18,7.18,0,0,1,150,169.12Z" transform="translate(-138.53 -26.69)"/><path class="cls-2" d="M289.06,148.86l0,0L288,146.73s0-.08-.07-.13l-.93-1.73h0A73.88,73.88,0,0,0,257.11,116,75.89,75.89,0,0,0,174.22,125a7.42,7.42,0,0,1,3.05,3.72,70.12,70.12,0,0,1,40.41-16.13,68.83,68.83,0,0,1,64.88,34.32l-18.79,10.16L245.39,167,222.87,179.2l-.58.31-1.89-1.15-.1.65-13.23-4.87a6.66,6.66,0,0,1-1.77,4.46l14.24,5.25L209.06,251a70.41,70.41,0,0,1-56.78-67.87,6.87,6.87,0,0,1-2.33.43,7.13,7.13,0,0,1-2.47-.45,75.18,75.18,0,0,0,60.84,72.63v0l2.36.37,2.38.38v0a75.19,75.19,0,0,0,9.22.57,74.85,74.85,0,0,0,62.48-33.85l0,0,.47-.77s.77-1.25.77-1.25c.12-.19.26-.43.34-.57l.05-.08a.16.16,0,0,1,0-.07l.76-1.24,0,0A75,75,0,0,0,289.06,148.86ZM213.81,251.71,224,186.2l26.62,16.29,20.74,12.68,9.19,5.62A69.66,69.66,0,0,1,213.81,251.71Zm69.33-35.08-.46-.27c-2.52-1.49-3.61-2.14-8.64-5.2l-47-28.75,39-21.11c5.73-3.08,8.08-4.31,13.9-7.35l5-2.61A70.21,70.21,0,0,1,283.14,216.63Z" transform="translate(-138.53 -26.69)"/></g><rect class="cls-28" x="276.47" y="75.35" width="206.83" height="93.47" rx="8.17"/><rect class="cls-5" x="282.12" y="99.9" width="195.52" height="64.53" rx="6.6"/><rect class="cls-5" x="285" y="82.22" width="8.1" height="7.29" rx="3.65"/><rect class="cls-5" x="299.73" y="82.22" width="8.1" height="7.29" rx="3.65"/><rect class="cls-5" x="314.46" y="82.22" width="8.1" height="7.29" rx="3.65"/><path class="cls-28" d="M608.23,140.73H504.8a3.09,3.09,0,0,1,0-6.18H608.23a3.09,3.09,0,1,1,0,6.18Z" transform="translate(-138.53 -26.69)"/><path class="cls-28" d="M530.44,188.47H427a3.1,3.1,0,1,1,0-6.19H530.44a3.1,3.1,0,0,1,0,6.19Z" transform="translate(-138.53 -26.69)"/><rect class="cls-28" x="399.2" y="155.59" width="12.82" height="6.19" rx="2.2"/><rect class="cls-28" x="415.33" y="155.59" width="12.82" height="6.19" rx="2.2"/><path class="cls-28" d="M609.22,154.21H438a2.1,2.1,0,1,1,0-4.19H609.22a2.1,2.1,0,1,1,0,4.19Z" transform="translate(-138.53 -26.69)"/><path class="cls-28" d="M609.22,163.27H438a2.1,2.1,0,1,1,0-4.19H609.22a2.1,2.1,0,1,1,0,4.19Z" transform="translate(-138.53 -26.69)"/><path class="cls-31" d="M1125.9,136h-88.32V84.51H1104l21.9,21.9Z" transform="translate(-138.53 -26.69)"/><polygon class="cls-29" points="963.85 57.82 963.85 85.3 987.37 85.3 987.37 80.02 965.32 57.97 963.85 57.82"/><polygon class="cls-31" points="965.47 57.82 965.47 80.02 987.37 80.02 965.47 57.82"/><path class="cls-5" d="M1086.9,103.83h-39.36a1.56,1.56,0,1,1,0-3.12h39.36a1.56,1.56,0,0,1,0,3.12Z" transform="translate(-138.53 -26.69)"/><path class="cls-5" d="M1086.9,111.81h-39.36a1.56,1.56,0,1,1,0-3.12h39.36a1.56,1.56,0,0,1,0,3.12Z" transform="translate(-138.53 -26.69)"/><path class="cls-5" d="M1086.9,120.21h-39.36a1.56,1.56,0,1,1,0-3.12h39.36a1.56,1.56,0,0,1,0,3.12Z" transform="translate(-138.53 -26.69)"/><circle class="cls-8" cx="940.57" cy="61.78" r="2.64"/><rect class="cls-32" x="684.09" y="81.09" width="56.13" height="67.68" transform="translate(-103.8 -159.7) rotate(10.94)"/><path class="cls-28" d="M734.47,115.75l-29.22-5.64a1.44,1.44,0,0,1,.55-2.83L735,112.93a1.44,1.44,0,1,1-.55,2.82Z" transform="translate(-138.53 -26.69)"/><path class="cls-28" d="M733.06,123.06l-29.22-5.65a1.44,1.44,0,1,1,.55-2.82l29.21,5.64a1.44,1.44,0,1,1-.54,2.83Z" transform="translate(-138.53 -26.69)"/><path class="cls-28" d="M731.61,130.56l-29.22-5.64a1.44,1.44,0,0,1,.54-2.83l29.22,5.65a1.44,1.44,0,1,1-.54,2.82Z" transform="translate(-138.53 -26.69)"/><path class="cls-8" d="M714.69,85.29a2.4,2.4,0,1,1-1.9-2.81A2.4,2.4,0,0,1,714.69,85.29Z" transform="translate(-138.53 -26.69)"/><path class="cls-28" d="M1166.66,208l-85.29-9,5.63-53.47,67.63,7.13,15.8,19.52Z" transform="translate(-138.53 -26.69)"/><polygon class="cls-5" points="1014.88 129.81 951.4 123.13 946.64 168.24 1025.58 176.55 1028.36 150.14 1012.92 148.51 1014.88 129.81"/><path class="cls-28" d="M1144.81,172.89l-41.12-4.33a1.72,1.72,0,1,1,.36-3.43l41.12,4.33a1.72,1.72,0,1,1-.36,3.43Z" transform="translate(-138.53 -26.69)"/><path class="cls-28" d="M1143.86,182l-41.13-4.33a1.72,1.72,0,0,1,.36-3.43l41.13,4.33a1.72,1.72,0,0,1-.36,3.43Z" transform="translate(-138.53 -26.69)"/><path class="cls-28" d="M1142.86,191.41l-41.13-4.33a1.73,1.73,0,0,1-1.53-1.89,1.74,1.74,0,0,1,1.9-1.54l41.12,4.34a1.72,1.72,0,0,1-.36,3.42Z" transform="translate(-138.53 -26.69)"/><circle class="cls-8" cx="980.38" cy="131.22" r="2.64"/><path class="cls-25" d="M1590.46,116.2A29.45,29.45,0,1,1,1561,86.76,29.45,29.45,0,0,1,1590.46,116.2Z" transform="translate(-138.53 -26.69)"/><path class="cls-5" d="M1558.09,126.28H1558a1.4,1.4,0,0,1-1-.49l-8-9.08a1.44,1.44,0,1,1,2.16-1.91l7,8,16-15.66a1.44,1.44,0,0,1,2,2.06l-17.09,16.72A1.41,1.41,0,0,1,1558.09,126.28Z" transform="translate(-138.53 -26.69)"/><rect class="cls-28" x="226.29" y="313.08" width="185.6" height="76.48" rx="16.48" transform="translate(499.64 675.96) rotate(180)"/><path class="cls-28" d="M389.47,378v42.19L340.85,371.6S388.48,378,389.47,378Z" transform="translate(-138.53 -26.69)"/><rect class="cls-5" x="235.89" y="320.67" width="166.4" height="61.32" rx="13.97" transform="translate(499.64 675.96) rotate(180)"/><path class="cls-28" d="M311.67,335.83h75.16a3.3,3.3,0,1,0,0-6.59H311.67a3.3,3.3,0,1,0,0,6.59Z" transform="translate(-138.53 -26.69)"/><rect class="cls-28" x="247.06" y="344.73" width="143.07" height="3.7" rx="1.85" transform="translate(498.65 666.48) rotate(-180)"/><rect class="cls-28" x="247.06" y="351.91" width="143.07" height="3.7" rx="1.85" transform="translate(498.65 680.83) rotate(-180)"/><rect class="cls-28" x="1486.46" y="322" width="15.7" height="14.13" rx="7.07" transform="translate(2850.1 631.44) rotate(-180)"/><rect class="cls-28" x="1457.91" y="322" width="15.7" height="14.13" rx="7.07" transform="translate(2793 631.44) rotate(180)"/><rect class="cls-28" x="1429.36" y="322" width="15.7" height="14.13" rx="7.07" transform="translate(2735.9 631.44) rotate(-180)"/></svg>