<svg id="Layer_1" data-name="Layer 1" xmlns="http://www.w3.org/2000/svg" viewBox="0 0 356.97 180.7"><defs><style>.cls-1{fill:none;}.cls-2{fill:#edeaf1;}.cls-3{fill:#3a3531;}.cls-4{font-size:72px;fill:#231f20;font-family:Microsoft-Himalaya, Microsoft Himalaya;}</style></defs><line class="cls-1" x1="106.33" y1="5.5" x2="204.45"/><text x="-70.15" y="-111.31"/><rect class="cls-2" x="49.06" y="2.97" width="307.91" height="91.53" rx="12"/><path class="cls-3" d="M324.34,141.55a5.86,5.86,0,0,1,1.84-3.22l10.28-9.39a7.09,7.09,0,0,1,9.39,0l3.23,2.95a5.73,5.73,0,0,1,1.9,5s-.08,1.42,1.82,3.08l2.27,2.06a10.68,10.68,0,0,0-1.88-13.87L350,125.18a13.31,13.31,0,0,0-17.61,0l-10.28,9.39a11,11,0,0,0-3.6,7.22,15,15,0,0,1,2.61-.24Zm1.3,36.8a12.33,12.33,0,0,0,12-8.43,6.25,6.25,0,0,0-2.9-.71,6.08,6.08,0,0,0-3.61,1.16,6.83,6.83,0,0,1-5.51,2.67h-4.56c-3.67,0-6.65-2.72-6.65-6.07V153.69c0-3.35,3-6.07,6.65-6.07h4.56a6.91,6.91,0,0,1,5.23,2.33,6.18,6.18,0,0,0,6.52,0,12.44,12.44,0,0,0-11.75-7.64h-4.56c-6.87,0-12.46,5.11-12.46,11.38V167c0,6.28,5.59,11.38,12.46,11.38Zm58-35.58a11.24,11.24,0,0,1-1.34,5.18,6.13,6.13,0,0,1,4.52,5.74V167a6.37,6.37,0,0,1-6.64,6.07h-4.57A6.37,6.37,0,0,1,369,167V153.69a6,6,0,0,1,3.32-5.24l0,0,2.23-2a5,5,0,0,0,1.69-4.06h-.56c-6.86,0-12.45,5.11-12.45,11.38V167c0,6.28,5.59,11.38,12.45,11.38h4.57c6.87,0,12.45-5.1,12.45-11.38V153.69c0-5.17-3.8-9.54-9-10.92ZM346,191.59a7.12,7.12,0,0,1-8.86-.43l-10.27-9.39a6,6,0,0,1-1.7-2.66h-4.06a14.32,14.32,0,0,1-1.87-.13,10.91,10.91,0,0,0,3.52,6.54L333,194.91a13.32,13.32,0,0,0,17,.48l-3.16-2.89c-.32-.3-.62-.6-.9-.91Zm16.52-41.73-10.27-9.39a5.75,5.75,0,0,1-1.93-4.69,4.68,4.68,0,0,0-1.8-3.35l-2.26-2.07a10.66,10.66,0,0,0,1.88,13.87l10.27,9.39a12.77,12.77,0,0,0,4,2.44v-2.37a11.1,11.1,0,0,1,.56-3.46c-.15-.12-.3-.24-.44-.37Zm13.67,29.25a6,6,0,0,1-1.7,2.66l-10.27,9.39a7.1,7.1,0,0,1-9.4,0l-3.23-3a5.68,5.68,0,0,1-1.38-6.72,5.22,5.22,0,0,0-1-1.32l-3.05-2.79A10.66,10.66,0,0,0,347.46,192l3.22,2.95a13.32,13.32,0,0,0,17.62,0l10.27-9.39a11,11,0,0,0,3.52-6.54,14.32,14.32,0,0,1-1.87.13Zm-24,8.56,3.06,2.79a10.67,10.67,0,0,0-1.37-14.59l-10.27-9.39a13.31,13.31,0,0,0-17.61,0l-3.23,3a11.4,11.4,0,0,0-2.25,2.81,5.85,5.85,0,0,0,.6,0h4.56a6.16,6.16,0,0,0,3.07-.81l1.35-1.24a7.1,7.1,0,0,1,9.4,0l10.27,9.39a5.69,5.69,0,0,1,1.38,6.73,5.22,5.22,0,0,0,1,1.32Zm23.19-21.19a12.66,12.66,0,0,0-5.5-2.92V167a4.9,4.9,0,0,0,1,2.93c.13.11.27.21.4.33l1.35,1.24a6.16,6.16,0,0,0,3.07.81h4.57a5.88,5.88,0,0,0,.6,0,11.45,11.45,0,0,0-2.25-2.82l-3.23-3Zm-20.13-37.32.24-.22a7.09,7.09,0,0,1,9.39,0l10.27,9.39a5.69,5.69,0,0,1,0,8.58l-3.23,3a6.38,6.38,0,0,1-.88.67,5,5,0,0,0-1.16,3.16v3a12.84,12.84,0,0,0,6.15-3.06l3.23-3a10.71,10.71,0,0,0,0-16.1L369,125.18a13.31,13.31,0,0,0-17.61,0l-.11.09,2.54,2.33a11.73,11.73,0,0,1,1.44,1.56Zm-5.15,17.93-2.54-2.33a11.59,11.59,0,0,1-1.43-1.56l-7.29,6.66a7.09,7.09,0,0,1-9.39,0l-.76-.69a6.16,6.16,0,0,0-3-.79h-4.56a6.4,6.4,0,0,0-.88.07,11.79,11.79,0,0,0,1.87,2.22l3.23,3a13.33,13.33,0,0,0,17.61,0l7.15-6.53Zm-17.78,10.49v5a14.57,14.57,0,0,1,2.48-.22,14.27,14.27,0,0,1,3.34.4v-5.64a14.73,14.73,0,0,1-4,.55h0a15.77,15.77,0,0,1-1.83-.12Zm29.56,12.65-6.54,6c-.28-.3-.57-.6-.87-.88l-3.2-2.92,6.5-5.93a12.59,12.59,0,0,1,4.64-2.67V167a11.24,11.24,0,0,0,.32,2.61,6.6,6.6,0,0,0-.85.65Z" transform="translate(-70.15 -111.31)"/><text class="cls-4" transform="translate(82.02 60.01)">BTR</text></svg>