<svg id="Layer_1" data-name="Layer 1" xmlns="http://www.w3.org/2000/svg" viewBox="0 0 700 300"><defs><style>.cls-1{isolation:isolate;font-size:309px;font-family:Microsoft-Himalaya, Microsoft Himalaya;}.cls-1,.cls-2{fill:#1b1464;stroke:#000;stroke-miterlimit:10;stroke-width:0.75px;}</style></defs><text class="cls-1" transform="translate(21.47 208.34)">BTR</text><path class="cls-2" d="M483.8,97.67a13.22,13.22,0,0,1,4.2-7.3l23.4-21.3a16,16,0,0,1,21.3,0l7.3,6.7a13.15,13.15,0,0,1,4.3,11.4s-.2,3.2,4.1,7l5.2,4.7a24.24,24.24,0,0,0-4.3-31.5l-7.3-6.8a30.19,30.19,0,0,0-40,0l-23.2,21.2a25.19,25.19,0,0,0-8.2,16.4,29.4,29.4,0,0,1,5.9-.5Zm3,83.7a28.1,28.1,0,0,0,27.3-19.2,13.7,13.7,0,0,0-6.6-1.6,14.26,14.26,0,0,0-8.2,2.6,15.68,15.68,0,0,1-12.5,6.1H476.4c-8.3,0-15.1-6.2-15.1-13.8v-30.2c0-7.6,6.8-13.8,15.1-13.8h10.4a15.92,15.92,0,0,1,11.9,5.3,14.09,14.09,0,0,0,14.8,0,28.46,28.46,0,0,0-26.7-17.4H476.4c-15.6,0-28.3,11.6-28.3,25.9v30.3c0,14.3,12.7,25.9,28.3,25.9Zm131.9-80.9a26.81,26.81,0,0,1-3,11.8,14,14,0,0,1,10.3,13v30.3a14.5,14.5,0,0,1-15.1,13.8H600.5a14.48,14.48,0,0,1-15-13.8v-30.3a13.51,13.51,0,0,1,7.5-11.9h0l5.1-4.5a11.11,11.11,0,0,0,3.8-9.2h-1.3c-15.6,0-28.3,11.6-28.3,25.9v30.1c0,14.3,12.7,25.9,28.3,25.9H611c15.6,0,28.3-11.6,28.3-25.9v-30.3c0-11.8-8.6-21.7-20.5-24.8h-.1Zm-85.6,111a16.11,16.11,0,0,1-20.1-1l-23.3-21.3a14.22,14.22,0,0,1-3.9-6h-9.2a32.19,32.19,0,0,1-4.3-.3,25,25,0,0,0,8,14.9l23.3,21.3a30.2,30.2,0,0,0,38.6,1.1l-7.2-6.6c-.7-.7-1.4-1.4-2-2.1Zm37.5-94.9-23.3-21.3a13.12,13.12,0,0,1-4.4-10.7,10.39,10.39,0,0,0-4.1-7.6l-5.1-4.7a24.22,24.22,0,0,0,4.3,31.5l23.3,21.3a27.39,27.39,0,0,0,9.1,5.5v-5.4a23.8,23.8,0,0,1,1.3-7.9,3.38,3.38,0,0,1-1.1-.7Zm31.1,66.5a13.34,13.34,0,0,1-3.9,6l-23.3,21.3a16.16,16.16,0,0,1-21.4,0l-7.3-6.8a12.86,12.86,0,0,1-3.1-15.3,13.31,13.31,0,0,0-2.3-3l-6.9-6.3a24.24,24.24,0,0,0,3,33.4l7.3,6.7a30.32,30.32,0,0,0,40.1,0l23.3-21.3a25.21,25.21,0,0,0,8-14.9,30,30,0,0,1-4.3.3Zm-54.5,19.4,7,6.3a24.28,24.28,0,0,0-3.1-33.2l-23.4-21.2a30.19,30.19,0,0,0-40,0l-7.3,6.8a24.4,24.4,0,0,0-5.1,6.4h11.8a14.31,14.31,0,0,0,7-1.8l3.1-2.8a16.16,16.16,0,0,1,21.4,0l23.3,21.3a12.86,12.86,0,0,1,3.1,15.3,6.82,6.82,0,0,0,2.2,2.9Zm52.7-48.1a28.54,28.54,0,0,0-12.5-6.6v7.8a11.09,11.09,0,0,0,2.3,6.7c.3.3.6.5.9.8l3.1,2.8a14,14,0,0,0,7,1.8h11.8a26.63,26.63,0,0,0-5.1-6.4l-7.5-6.9Zm-45.8-84.9.5-.5a16,16,0,0,1,21.3,0l23.3,21.3a13.07,13.07,0,0,1,1.3,18.3,15.93,15.93,0,0,1-1.3,1.3l-7.3,6.8a9.51,9.51,0,0,1-2,1.5,11.17,11.17,0,0,0-2.6,7.2v6.8a29.07,29.07,0,0,0,14-7l7.3-6.8A24.37,24.37,0,0,0,610.8,84a22.84,22.84,0,0,0-2.2-2.2l-23.3-21.4a30.19,30.19,0,0,0-40,0l-.3.2,5.8,5.3a22,22,0,0,1,3.3,3.6Zm-11.7,40.8-5.8-5.3a36.06,36.06,0,0,1-3.3-3.5l-16.5,15.1a16,16,0,0,1-21.3,0l-1.7-1.6a13.57,13.57,0,0,0-6.8-1.8H476.6a13.55,13.55,0,0,0-2,.2,22.77,22.77,0,0,0,4.3,5l7.3,6.8a30.19,30.19,0,0,0,40,0l16.3-14.8ZM502,134.07v11.4a35.32,35.32,0,0,1,5.6-.5,32.25,32.25,0,0,1,7.6.9v-12.8a35.09,35.09,0,0,1-9.1,1.3h0l-4.1-.3Zm67.2,28.8-14.9,13.6a18.88,18.88,0,0,0-2-2l-7.3-6.6,14.8-13.5a28.43,28.43,0,0,1,10.5-6.1v7.2a28.85,28.85,0,0,0,.7,5.9l-1.8,1.5Z"/></svg>