<?xml version="1.0" encoding="utf-8"?><svg xmlns="http://www.w3.org/2000/svg" viewBox="0 0 80 80"><defs><style>.a{fill:#fde8ae;}.b{fill:#e68082;}.c{fill:#60bf7f;}.d{fill:#010101;}.e{fill:#fff;}</style></defs><path class="a" d="M59.69,18.53c-.24,3.57-.73,9.32-1.48,9.7a1.29,1.29,0,0,1-.73.09,4,4,0,0,1-3.07-3.9c0-2.72-3.81-3.8-6-4.35a1.74,1.74,0,0,1-1.36-2,4.69,4.69,0,0,1,.27-1.27l.41-1.09h8.19A3.92,3.92,0,0,1,59.69,18.53Z"/><path class="b" d="M16.24,56.51c.24-3.57.73-9.32,1.48-9.69a1.21,1.21,0,0,1,.73-.09,4,4,0,0,1,3.07,3.89c0,2.72,3.81,3.81,6,4.35a1.75,1.75,0,0,1,1.36,2,4.69,4.69,0,0,1-.27,1.27l-.41,1.09H20A3.92,3.92,0,0,1,16.24,56.51Z"/><path class="c" d="M19.05,16.7c3.57.24,9.33.73,9.7,1.48a1.21,1.21,0,0,1,.09.73A4,4,0,0,1,25,22c-2.72,0-3.81,3.81-4.35,6a1.75,1.75,0,0,1-2,1.36,4.69,4.69,0,0,1-1.27-.27l-1.09-.41V20.45A3.91,3.91,0,0,1,19.05,16.7Z"/><path class="d" d="M19.17,60.3a3.91,3.91,0,0,1-3.91-3.9V19.63a3.92,3.92,0,0,1,3.91-3.91H55.94a3.91,3.91,0,0,1,3.9,3.91V56.4a3.91,3.91,0,0,1-3.9,3.9Zm36.77-2.36a1.54,1.54,0,0,0,1.54-1.54V39.19H57.3a1.18,1.18,0,1,1,0-2.36h.18V19.63a1.54,1.54,0,0,0-1.54-1.54H38.73v.18a1.18,1.18,0,0,1-2.36,0v-.18H19.17a1.54,1.54,0,0,0-1.54,1.54v17.2h6.31a.18.18,0,0,0,.18-.18V35.29a.8.8,0,0,0-.25-.63,4.92,4.92,0,0,1,0-7.62A5,5,0,0,1,27,25.94a5.33,5.33,0,0,1,1,.11,4.92,4.92,0,0,1,2.12,8.58.84.84,0,0,0-.29.64v1.38a.18.18,0,0,0,.18.18h6.31V30.52A2.54,2.54,0,0,1,38.91,28H40.3a3.16,3.16,0,0,1,2.44,1.13,2.54,2.54,0,0,0,2,.91,2.92,2.92,0,0,0,.51,0,2.55,2.55,0,0,0,2-1.95,2.63,2.63,0,0,0-.52-2.19,2.53,2.53,0,0,0-2-.94,2.56,2.56,0,0,0-2,.93,3.17,3.17,0,0,1-2.45,1.11H38.91a2.54,2.54,0,0,1-2.54-2.54V21a1.18,1.18,0,0,1,2.36,0V24.4a.18.18,0,0,0,.18.18h1.37a.78.78,0,0,0,.62-.25,4.93,4.93,0,1,1,4.74,8,5,5,0,0,1-.94.09,4.9,4.9,0,0,1-3.76-1.76.86.86,0,0,0-.64-.29H38.91a.19.19,0,0,0-.18.18v6.31H45a2.55,2.55,0,0,1,2.55,2.55v1.38a3.23,3.23,0,0,1-1.13,2.45,2.56,2.56,0,0,0,1.08,4.46,2.67,2.67,0,0,0,.56.06,2.62,2.62,0,0,0,1.62-.57,2.57,2.57,0,0,0,0-4,3.14,3.14,0,0,1-1.11-2.46V39.38a2.55,2.55,0,0,1,2.54-2.55h3.41a1.18,1.18,0,1,1,0,2.36H51.17a.19.19,0,0,0-.18.19v1.35a.82.82,0,0,0,.25.63,4.93,4.93,0,0,1-3.14,8.73,5.17,5.17,0,0,1-1-.11,4.92,4.92,0,0,1-2.12-8.58.85.85,0,0,0,.28-.64V39.38a.19.19,0,0,0-.18-.19H38.73V45.5a2.55,2.55,0,0,1-2.54,2.55H34.8a3.19,3.19,0,0,1-2.44-1.13,2.52,2.52,0,0,0-2-.92,2.92,2.92,0,0,0-.5,0,2.54,2.54,0,0,0-2,2,2.6,2.6,0,0,0,.51,2.18,2.57,2.57,0,0,0,4,0,3.12,3.12,0,0,1,2.45-1.11h1.36a2.54,2.54,0,0,1,2.54,2.54v6.31ZM17.63,56.4a1.54,1.54,0,0,0,1.54,1.54h17.2V51.63a.18.18,0,0,0-.18-.18H34.83a.8.8,0,0,0-.63.25,4.92,4.92,0,1,1-4.73-8,5,5,0,0,1,.94-.09,4.9,4.9,0,0,1,3.76,1.76.82.82,0,0,0,.63.29h1.39a.19.19,0,0,0,.18-.19V39.19H30.06a2.54,2.54,0,0,1-2.54-2.54V35.27a3.2,3.2,0,0,1,1.13-2.45,2.56,2.56,0,0,0-1.08-4.46A2.74,2.74,0,0,0,27,28.3a2.56,2.56,0,0,0-1.64,4.54,3.15,3.15,0,0,1,1.11,2.45v1.36a2.54,2.54,0,0,1-2.55,2.54h-6.3Z"/><rect class="e" x="51.03" y="48.28" width="13.71" height="14.2" rx="1.99"/><path class="d" d="M56.12,64.28a.46.46,0,0,1-.37-.18.48.48,0,0,1-.38.18H52.55a.47.47,0,0,1-.47-.45V62.06a2.73,2.73,0,0,1,1-2.13,3.06,3.06,0,0,1,.95-.56l1.39-.53.86-.52v-.08a2.54,2.54,0,0,1-1.33-1.68,1.32,1.32,0,0,1-1.08-1.25,1.22,1.22,0,0,1,.31-.81V53.27A3.44,3.44,0,0,1,57.69,50H58a3.44,3.44,0,0,1,3.56,3.3v1.25a1.21,1.21,0,0,1,.3.79,1.33,1.33,0,0,1-1.08,1.25,2.57,2.57,0,0,1-1.33,1.68v.1l.88.53,1.32.51a1.89,1.89,0,0,1,.5.24,2.73,2.73,0,0,1,1.38,2.44v1.77a.47.47,0,0,1-.47.45Zm-.75-.9a.48.48,0,0,1,.38.18.46.46,0,0,1,.37-.18h.17l-1.07-3.52-.91.35A1.9,1.9,0,0,0,53,62.06v1.32h.91V62a.47.47,0,0,1,.94,0v1.4Zm7.18,0V62.06a1.85,1.85,0,0,0-.94-1.68,2.78,2.78,0,0,0-.33-.16h0l-.85-.32-1.06,3.49H60.7V62a.47.47,0,0,1,.93,0v1.4Zm-4.39,0L57.9,61.9h-.18l-.25,1.48Zm.68-1.55.11-.36-.08,0,0,0,0,.11Zm-2.05,0,.05-.31-.06-.13-.06,0,0,0ZM58,61l.06-.14-.25-.17-.23.16.07.15Zm1-.61.5-.94-.17-.11,0,0-.74.71Zm-2.35,0,.45-.3-.7-.62a.94.94,0,0,1-.09-.12l-.16.1Zm1.18-.88.66-.63v-.34a2.69,2.69,0,0,1-.4,0h-.49a2.83,2.83,0,0,1-.41,0V59Zm-2-3.47a1.71,1.71,0,0,0,1.79,1.63h.49A1.72,1.72,0,0,0,59.85,56V54.6a2.36,2.36,0,0,1-1.09-1,5.76,5.76,0,0,1-3,1.08Zm5-.51a.31.31,0,0,0,.09-.22.35.35,0,0,0-.09-.23Zm-5.94-.45a.4.4,0,0,0-.08.23.35.35,0,0,0,.08.22Zm4.08-2.71H59a.44.44,0,0,1,.36.33s.26,1,1.05,1.12l.07,0,.08,0v-.63A2.53,2.53,0,0,0,58,50.87h-.26a2.52,2.52,0,0,0-2.62,2.4v.62l.07,0,.06,0h.11s2.24,0,3.23-1.27A.46.46,0,0,1,58.92,52.37Z"/><path class="d" d="M62,59.81h0a3.34,3.34,0,0,0-.47-.22l-1.36-.52-1-.58,0,0V58.1a2.34,2.34,0,0,0,1.36-1.75,1.08,1.08,0,0,0,1-1,1,1,0,0,0-.3-.71V53.27A3.22,3.22,0,0,0,58,50.2h-.26a3.21,3.21,0,0,0-3.33,3.07v1.32a1,1,0,0,0-.31.72,1.08,1.08,0,0,0,1,1,2.35,2.35,0,0,0,1.37,1.75v.35l-1,.61h0l-1.37.52a2.79,2.79,0,0,0-.87.51,2.5,2.5,0,0,0-.87,2v1.77a.23.23,0,0,0,.24.22h2.82a.23.23,0,0,0,.24-.22.22.22,0,0,0-.24-.22h-.73V62a.24.24,0,0,0-.48,0v1.63H52.79V62.06A2.13,2.13,0,0,1,54.21,60h0l1.14-.44,1.24,4h-.48a.23.23,0,0,0-.24.22.23.23,0,0,0,.24.22H63a.23.23,0,0,0,.24-.22V62.06A2.55,2.55,0,0,0,62,59.81Zm-2.22-.45-.72,1.36-.89-.6.94-.9a.22.22,0,0,0,.07-.18v0h0Zm-1.45,1.41-.19.46h-.64l-.21-.46.51-.35Zm-1.39-1.72v-.48h0v-.31a2.74,2.74,0,0,0,.64.08h.49a2.59,2.59,0,0,0,.63-.08V59l-.89.85Zm4.17-3.74a.64.64,0,0,1-.55.6v-1.2A.63.63,0,0,1,61.1,55.31Zm-6,.6a.63.63,0,0,1-.54-.6.62.62,0,0,1,.54-.6Zm.24-1.86h-.22v0h0v0h0v0h0l-.23,0v-1a2.75,2.75,0,0,1,2.85-2.63H58a2.75,2.75,0,0,1,2.85,2.63v1a1,1,0,0,0-.25,0h0v0h-.18a1.82,1.82,0,0,1-1.22-1.29A.22.22,0,0,0,59,52.6a.25.25,0,0,0-.24.09c-1.06,1.35-3.37,1.36-3.41,1.36Zm.24,2V54.48a5.41,5.41,0,0,0,3.28-1.22,2.12,2.12,0,0,0,1.25,1.18V56a2,2,0,0,1-2,1.86h-.49A2,2,0,0,1,55.55,56ZM56.46,59v0a.2.2,0,0,0,0,.07.19.19,0,0,0,.06.22l.91.81-.9.61-.72-1.36Zm.39,3.83-.47-1.54h.07a.24.24,0,0,0,.14-.05l.29-.19.2.44Zm.34.8.34-1.94h.56l.34,1.94Zm1.35-2.13.18-.44.28.19a.24.24,0,0,0,.14.05h.06l0,0-.47,1.56Zm4.24,2.13H61.41V62a.23.23,0,0,0-.24-.22.22.22,0,0,0-.24.22v1.63H59l1.23-4,1.08.42h0a3.57,3.57,0,0,1,.38.18h0a2.1,2.1,0,0,1,1.05,1.88Z"/><path class="d" d="M58.09,56.24a.22.22,0,1,0,0-.44h-.17v-.51a.23.23,0,0,0-.24-.22.23.23,0,0,0-.24.22V56a.23.23,0,0,0,.24.22Z"/></svg>