<?xml version="1.0" encoding="utf-8"?><svg xmlns="http://www.w3.org/2000/svg" viewBox="0 0 80 80"><defs><style>.a{fill:#67cdec;}.b{fill:#010101;}.c{fill:#fff;}</style></defs><path class="a" d="M37.74,16.83l-1.27,2-.23.39a7.67,7.67,0,0,1-9.79-.55c-.54-.48-1-.92-1.45-1.32-.75-.71-1.33-1.3-1.79-1.8a5.89,5.89,0,0,1,2.24-2.41,5.72,5.72,0,0,1,2.92-.75c2.56,0,5.67,1.42,9,4.11Z"/><path class="a" d="M54.56,26.9l-2.3-.66-.43-.12a7.66,7.66,0,0,1-2.2-9.55c.31-.65.6-1.23.87-1.76.47-.91.88-1.64,1.23-2.22a5.89,5.89,0,0,1,2.94,1.49,5.76,5.76,0,0,1,1.53,2.6c.71,2.45.21,5.83-1.45,9.77Z"/><path class="a" d="M25.49,62.45l-.13-2.39,0-.44a7.67,7.67,0,0,1,8.31-5.2c.72.08,1.36.17,2,.25,1,.15,1.84.29,2.5.43a5.58,5.58,0,0,1-2.4,5.56c-2.09,1.47-5.45,2.11-9.71,1.83Z"/><path class="a" d="M44.4,40.13A4.84,4.84,0,0,1,40,43h-.28a7.3,7.3,0,0,1-4.36-6.18A4.85,4.85,0,0,1,40,33.29a4.5,4.5,0,0,1,1.16.15,8.15,8.15,0,0,1,1.14,1.4A14.24,14.24,0,0,1,44,38.6C44.14,39.08,44.28,39.59,44.4,40.13Z"/><path class="b" d="M51.4,63.9c-2.56,0-5.67-1.42-9-4.11-.82-.66-1.65-1.4-2.48-2.2-4.22,4-8.27,6.28-11.43,6.28a5.73,5.73,0,0,1-2.93-.75c-2.92-1.68-4-5.94-3.05-12,.17-1.05.4-2.16.68-3.31-1.13-.32-2.2-.68-3.2-1.06-5.72-2.2-8.86-5.26-8.86-8.63s3.14-6.44,8.86-8.64c1-.37,2-.72,3.09-1a35.27,35.27,0,0,1-.9-5,1.19,1.19,0,0,1,1.06-1.3h.08a1.19,1.19,0,0,1,1.22,1.07,33,33,0,0,0,.83,4.67,58.78,58.78,0,0,1,8-1.27,58.45,58.45,0,0,1,4.93-6.1c-.81-.78-1.62-1.5-2.41-2.14C33,16,30.39,14.78,28.38,14.78a3.38,3.38,0,0,0-1.74.43c-1.51.87-2,2.95-2.14,4.54a1.18,1.18,0,0,1-1.18,1.07h-.07a1.23,1.23,0,0,1-.84-.43,1.17,1.17,0,0,1-.27-.86c.28-3.08,1.43-5.28,3.31-6.37a5.72,5.72,0,0,1,2.92-.75c2.56,0,5.67,1.42,9,4.11.85.68,1.71,1.45,2.57,2.28,4.26-4.14,8.37-6.42,11.57-6.42a5.73,5.73,0,0,1,2.93.75c2.92,1.68,4,5.94,3,12-.17,1.06-.4,2.17-.68,3.31,1.13.32,2.2.68,3.2,1.06,5.72,2.2,8.86,5.27,8.86,8.64,0,2.18-1.33,4.27-3.86,6a1.17,1.17,0,0,1-.68.22,1.19,1.19,0,0,1-.69-2.15c1.31-.92,2.87-2.38,2.87-4.12,0-2.76-4-5.6-10.34-7.43a58.75,58.75,0,0,1-2.91,7.57,60.62,60.62,0,0,1,2.8,7.3,31.1,31.1,0,0,0,4.57-1.64,1.19,1.19,0,0,1,.49-.1,1.18,1.18,0,0,1,1.08.69,1.2,1.2,0,0,1,0,.91,1.15,1.15,0,0,1-.62.66,35.12,35.12,0,0,1-4.92,1.76c.29,1.14.51,2.25.68,3.31,1,6.05-.13,10.31-3,12A5.72,5.72,0,0,1,51.4,63.9Zm-9.81-8c.77.75,1.55,1.44,2.31,2.05,2.89,2.34,5.48,3.58,7.49,3.58a3.38,3.38,0,0,0,1.74-.43C55.08,60,55.79,56.4,55,51.53c-.15-1-.37-2-.63-3.09a59.29,59.29,0,0,1-7.73,1.21A59.8,59.8,0,0,1,41.59,55.9ZM25.5,48.42c-.27,1.06-.48,2.09-.64,3.08-.76,4.87-.06,8.45,1.89,9.57a3.41,3.41,0,0,0,1.75.43c2.38,0,5.63-1.78,9.14-5l.63-.59a58.7,58.7,0,0,1-5.07-6.26A60.51,60.51,0,0,1,25.5,48.42Zm10.8,1.44a53.9,53.9,0,0,0,3.63,4.35,54,54,0,0,0,3.62-4.34c-1.18.06-2.38.09-3.55.09S37.53,49.93,36.3,49.86Zm-1.78-2.48c1.78.14,3.62.21,5.48.21s3.59-.07,5.34-.2c1-1.46,2-3,2.85-4.53s1.7-3.06,2.44-4.6C49.85,36.64,49,35,48.08,33.42s-1.88-3.11-2.88-4.57c-1.69-.12-3.44-.19-5.2-.19s-3.6.07-5.34.2c-1,1.46-2,3-2.85,4.54S30,36.63,29.24,38.26c.75,1.55,1.58,3.11,2.45,4.63S33.54,46,34.52,47.38Zm17.36-6.33c-.52,1-1.07,2-1.63,3s-1.22,2-1.86,3a53.34,53.34,0,0,0,5.36-.93C53.24,44.5,52.61,42.78,51.88,41.05Zm-25.75,5.1c1.68.38,3.48.69,5.34.93-.63-1-1.24-2-1.83-3s-1.12-2-1.65-3A53.78,53.78,0,0,0,26.13,46.15Zm-2.4-15.42c-6.32,1.83-10.23,4.66-10.23,7.4s3.95,5.59,10.33,7.43a59.37,59.37,0,0,1,2.8-7.3A59.67,59.67,0,0,1,23.73,30.73Zm24.51-1.59c.65,1,1.28,2.05,1.89,3.1s1.21,2.15,1.76,3.24a56.28,56.28,0,0,0,2-5.37A54,54,0,0,0,48.24,29.14ZM26,30.13a55.52,55.52,0,0,0,2,5.34c.56-1.1,1.16-2.19,1.77-3.26s1.22-2.05,1.87-3.05A55.65,55.65,0,0,0,26,30.13Zm20.49-3.54a57.62,57.62,0,0,1,8,1.25c.27-1.06.48-2.1.64-3.08.76-4.87.06-8.45-1.89-9.58a3.41,3.41,0,0,0-1.75-.43c-2.38,0-5.63,1.78-9.14,5l-.77.74A58.74,58.74,0,0,1,46.51,26.59ZM39.93,22.2c-1.17,1.27-2.34,2.67-3.48,4.18,1.17-.06,2.36-.08,3.55-.08s2.29,0,3.42.08A51.44,51.44,0,0,0,39.93,22.2Z"/><path class="b" d="M40,43a4.84,4.84,0,1,1,4.83-4.83A4.83,4.83,0,0,1,40,43Zm0-7.3a2.47,2.47,0,1,0,2.47,2.47A2.48,2.48,0,0,0,40,35.66Z"/><path class="b" d="M40,42.15a4,4,0,1,1,4-4A4,4,0,0,1,40,42.15Zm0-7.3a3.28,3.28,0,1,0,3.28,3.28A3.28,3.28,0,0,0,40,34.85Z"/><path d="M60,29.49c-1-.38-2.07-.74-3.2-1.06.28-1.14.51-2.25.68-3.31,1-6.05-.13-10.3-3-12a5.73,5.73,0,0,0-2.93-.75c-3.2,0-7.31,2.28-11.57,6.43-.73-.72-1.47-1.38-2.19-2l-.37-.31c-3.33-2.69-6.44-4.11-9-4.11a5.72,5.72,0,0,0-2.92.75,5.89,5.89,0,0,0-2.24,2.41,10.49,10.49,0,0,0-1.07,4,1.17,1.17,0,0,0,.27.86,1.23,1.23,0,0,0,.84.43h.07a1.18,1.18,0,0,0,1.18-1.07,9,9,0,0,1,.5-2.38,3.9,3.9,0,0,1,1.64-2.16,3.38,3.38,0,0,1,1.74-.43c2,0,4.6,1.24,7.5,3.58l.59.49c.59.51,1.2,1.06,1.8,1.65a59.71,59.71,0,0,0-4.92,6.1,60.43,60.43,0,0,0-8,1.26,32.6,32.6,0,0,1-.83-4.66,1.19,1.19,0,0,0-1.22-1.07h-.08a1.19,1.19,0,0,0-1.06,1.3,32.76,32.76,0,0,0,.91,5c-1.09.32-2.13.66-3.1,1-5.72,2.2-8.87,5.27-8.87,8.64s3.15,6.43,8.87,8.63c1,.38,2.07.74,3.2,1.07-.28,1.14-.51,2.25-.68,3.3-.95,6,.13,10.31,3.05,12a5.72,5.72,0,0,0,2.92.75c3.17,0,7.22-2.22,11.44-6.28.83.8,1.66,1.54,2.48,2.2a19.11,19.11,0,0,0,6.72,3.77,8.87,8.87,0,0,0,1.82.33h.45a5.74,5.74,0,0,0,2.67-.62l.25-.13a5.67,5.67,0,0,0,1.87-1.78,7.41,7.41,0,0,0,.87-1.81,17.94,17.94,0,0,0,.3-8.4c-.17-1.06-.4-2.17-.68-3.31A36.51,36.51,0,0,0,61,46.36l.62-.27a1.15,1.15,0,0,0,.62-.66,1.12,1.12,0,0,0,.06-.63.79.79,0,0,0-.08-.26v0a1.17,1.17,0,0,0-1.57-.59c-.44.2-.91.4-1.39.58h0c-.25.11-.5.2-.76.29-.77.28-1.57.54-2.41.78l-.24-.78c0-.1-.07-.2-.11-.31a64,64,0,0,0-2.45-6.23,59.65,59.65,0,0,0,2.92-7.56c6.38,1.83,10.32,4.67,10.32,7.43,0,1.74-1.55,3.2-2.85,4.12a1.19,1.19,0,0,0-.49.76,1.18,1.18,0,0,0,1.17,1.39,1.2,1.2,0,0,0,.68-.22c2.53-1.78,3.87-3.87,3.87-6C68.87,34.76,65.72,31.69,60,29.49ZM39.93,22.2a50.92,50.92,0,0,1,3.49,4.17c-1.13-.05-2.28-.07-3.42-.07s-2.38,0-3.55.08C37.59,24.87,38.76,23.47,39.93,22.2Zm-5.27,6.66c1.74-.13,3.54-.2,5.34-.2s3.51.07,5.21.19c1,1.46,2,3,2.87,4.57s1.77,3.22,2.55,4.84c-.74,1.54-1.56,3.08-2.43,4.6-.31.53-.62,1.06-1,1.58l-.27.44c-.53.85-1.08,1.69-1.64,2.51-1.75.13-3.55.2-5.34.2s-3.7-.07-5.48-.2c-1-1.45-1.93-3-2.83-4.51s-1.7-3.07-2.45-4.62C30,36.63,30.88,35,31.8,33.4S33.66,30.33,34.66,28.86ZM31.47,47.08c-1.86-.24-3.66-.55-5.34-.93.51-1.66,1.14-3.37,1.86-5.1.53,1,1.08,2,1.65,3S30.84,46.09,31.47,47.08Zm.15-17.92c-.65,1-1.27,2-1.87,3.05S28.54,34.38,28,35.47a56.37,56.37,0,0,1-2-5.33A52.91,52.91,0,0,1,31.62,29.16Zm-18.11,9c0-2.74,3.9-5.57,10.22-7.4a58.18,58.18,0,0,0,2.9,7.53,59.87,59.87,0,0,0-2.8,7.29C17.45,43.72,13.51,40.89,13.51,38.13ZM37.64,56.49c-3.51,3.23-6.75,5-9.15,5a3.4,3.4,0,0,1-1.74-.43C24.8,60,24.1,56.37,24.86,51.5c.16-1,.37-2,.64-3.09a58.75,58.75,0,0,0,7.7,1.23,58.7,58.7,0,0,0,5.07,6.26ZM36.3,49.86c1.22.06,2.47.1,3.7.1s2.37,0,3.55-.09a54,54,0,0,1-3.62,4.34A52.21,52.21,0,0,1,36.3,49.86ZM43.9,58c-.76-.62-1.54-1.3-2.31-2.05a59.8,59.8,0,0,0,5.07-6.25l.86-.08.34,0c.53-.06,1-.12,1.55-.2,1.73-.23,3.4-.53,5-.9,0,.23.11.45.16.66.12.53.23,1,.32,1.56.06.3.11.59.15.88.53,3.31.36,6-.4,7.78a4.28,4.28,0,0,1-.92,1.36,2.67,2.67,0,0,1-.57.43,3.45,3.45,0,0,1-1.74.43,5.19,5.19,0,0,1-.77-.06,7.45,7.45,0,0,1-1.6-.42L48.83,61A19.13,19.13,0,0,1,43.9,58ZM53.31,44.8c.16.46.31.91.44,1.36l-1,.2c-1.16.24-2.37.45-3.6.62l-.78.1Q49.13,46,49.8,44.8l.2-.34c.08-.14.16-.28.25-.42.56-1,1.11-2,1.63-3,.49,1.15.93,2.3,1.32,3.43C53.24,44.59,53.28,44.69,53.31,44.8Zm-1.42-9.32c-.55-1.09-1.14-2.18-1.76-3.24s-1.24-2.09-1.89-3.1a54,54,0,0,1,5.63,1A56.28,56.28,0,0,1,51.89,35.48Zm3.25-10.73c-.16,1-.37,2-.64,3.09a59.16,59.16,0,0,0-8-1.25,58.54,58.54,0,0,0-4.93-6.09l.78-.74c3.51-3.23,6.75-5,9.14-5a3.54,3.54,0,0,1,1.75.43C55.2,16.31,55.9,19.89,55.14,24.75Z"/><path class="b" d="M41.16,33.44A4.5,4.5,0,0,0,40,33.29a4.85,4.85,0,0,0-4.64,3.48,4.66,4.66,0,0,0-.2,1.36A4.84,4.84,0,0,0,39.72,43H40a4.83,4.83,0,0,0,1.16-9.52ZM40,40.6a2.47,2.47,0,1,1,2.47-2.47A2.48,2.48,0,0,1,40,40.6Z"/><path class="b" d="M42.3,34.84A4,4,0,1,0,44,38.6a3.83,3.83,0,0,0,0-.47A4,4,0,0,0,42.3,34.84ZM40,41.41a3.29,3.29,0,1,1,3.28-3.28A3.28,3.28,0,0,1,40,41.41Z"/><rect class="c" x="48.48" y="50.36" width="13.74" height="17.26"/><path class="b" d="M53.72,66.16a.51.51,0,0,1-.38-.18.49.49,0,0,1-.37.18H50.14a.46.46,0,0,1-.46-.45V63.94a2.73,2.73,0,0,1,.94-2.13,3.18,3.18,0,0,1,1-.56L53,60.72l.86-.52v-.08a2.57,2.57,0,0,1-1.33-1.68,1.33,1.33,0,0,1-1.08-1.25,1.19,1.19,0,0,1,.32-.81V55.15a3.44,3.44,0,0,1,3.56-3.3h.25a3.44,3.44,0,0,1,3.56,3.3v1.24a1.26,1.26,0,0,1,.3.8,1.32,1.32,0,0,1-1.08,1.25A2.54,2.54,0,0,1,57,60.12v.1l.88.53,1.32.51a2,2,0,0,1,.51.24,2.75,2.75,0,0,1,1.38,2.44v1.77a.47.47,0,0,1-.47.45Zm-.75-.9a.46.46,0,0,1,.37.18.48.48,0,0,1,.38-.18h.16l-1.07-3.52-.91.35a1.9,1.9,0,0,0-1.29,1.85v1.32h.91V63.85a.47.47,0,0,1,.94,0v1.41Zm7.17,0V63.94a1.85,1.85,0,0,0-.94-1.68,3,3,0,0,0-.32-.16h0L58,61.77l-1.06,3.49h1.35v-1.4a.47.47,0,0,1,.94,0v1.4Zm-4.39,0-.26-1.48h-.17l-.26,1.48Zm.68-1.55.11-.36-.07-.05,0,0-.05.11Zm-2,0,.06-.31-.06-.13-.07,0,0,0Zm1.19-.82.06-.14-.24-.17-.23.16.07.15Zm1-.61.5-.94-.17-.11a.08.08,0,0,1,0,0l-.73.71Zm-2.34,0,.44-.3L54,61.35l-.1-.12-.15.1Zm1.17-.88.67-.63v-.34a2.83,2.83,0,0,1-.41,0h-.49a2.69,2.69,0,0,1-.4,0v.41Zm-2-3.47a1.71,1.71,0,0,0,1.79,1.63h.49a1.71,1.71,0,0,0,1.79-1.63V56.48a2.41,2.41,0,0,1-1.09-1,5.73,5.73,0,0,1-3,1.08Zm5-.51a.35.35,0,0,0,.08-.22.38.38,0,0,0-.08-.23Zm-6-.45a.38.38,0,0,0-.08.23.35.35,0,0,0,.08.22Zm4.08-2.71h.09a.46.46,0,0,1,.37.33s.25,1,1,1.12l.08,0,.08.05v-.63a2.53,2.53,0,0,0-2.63-2.4h-.25a2.53,2.53,0,0,0-2.63,2.4v.62l.07,0,.07,0h.1s2.24,0,3.24-1.28A.45.45,0,0,1,56.51,54.25Z"/><path class="b" d="M59.58,61.69h0a2.52,2.52,0,0,0-.47-.22L57.75,61l-1-.58,0,0V60a2.35,2.35,0,0,0,1.37-1.75,1.08,1.08,0,0,0,1-1,1,1,0,0,0-.3-.71V55.15a3.21,3.21,0,0,0-3.33-3.07h-.25A3.21,3.21,0,0,0,52,55.15v1.32a1,1,0,0,0-.32.72,1.08,1.08,0,0,0,1,1A2.34,2.34,0,0,0,54.05,60v.35l-1,.61h0l-1.37.52a2.79,2.79,0,0,0-.87.51,2.53,2.53,0,0,0-.86,2v1.77a.22.22,0,0,0,.23.22H53a.23.23,0,0,0,.24-.22.23.23,0,0,0-.24-.22h-.74V63.86a.24.24,0,0,0-.48,0v1.63H50.38V63.94a2.14,2.14,0,0,1,1.42-2.06h0L53,61.44l1.23,4h-.47a.22.22,0,0,0-.24.22.23.23,0,0,0,.24.22h6.89a.23.23,0,0,0,.24-.22V63.94A2.54,2.54,0,0,0,59.58,61.69Zm-2.21-.45-.72,1.36-.9-.6,1-.9a.21.21,0,0,0,.06-.18v0h0Zm-1.46,1.41-.18.46h-.65l-.21-.46.52-.35Zm-1.39-1.72a.08.08,0,0,0,0,0v-.44h0v-.31a2.59,2.59,0,0,0,.63.08h.49a2.74,2.74,0,0,0,.64-.08v.72l-.89.85Zm4.17-3.74a.63.63,0,0,1-.54.6v-1.2A.62.62,0,0,1,58.69,57.19Zm-6,.6a.64.64,0,0,1-.54-.6.63.63,0,0,1,.54-.6Zm.24-1.86h-.21v0h0v0h0v0h0l-.23,0v-1a2.75,2.75,0,0,1,2.86-2.63h.25a2.74,2.74,0,0,1,2.85,2.63V56.2a.93.93,0,0,0-.24-.05h0v0H58c-.93-.2-1.21-1.28-1.22-1.29a.23.23,0,0,0-.18-.17.24.24,0,0,0-.24.09c-1.07,1.35-3.38,1.36-3.42,1.36Zm.24,2V56.36a5.39,5.39,0,0,0,3.28-1.22,2.12,2.12,0,0,0,1.25,1.18v1.6a2,2,0,0,1-2,1.86h-.49A2,2,0,0,1,53.14,57.92Zm.91,2.94v0a.2.2,0,0,0,0,.07.23.23,0,0,0,.06.22L55,62l-.9.61-.72-1.36Zm.39,3.82L54,63.15H54a.24.24,0,0,0,.14,0l.29-.19.21.44Zm.35.81.34-1.94h.56L56,65.49Zm1.35-2.13.17-.44.28.19a.24.24,0,0,0,.14,0h.06l.06,0-.48,1.56Zm4.23,2.13H59V63.86a.24.24,0,0,0-.48,0v1.63H56.63l1.22-4,1.08.42h0a2.84,2.84,0,0,1,.37.18h0a2.08,2.08,0,0,1,1,1.88Z"/><path class="b" d="M55.69,58.12a.22.22,0,1,0,0-.44h-.18v-.51a.24.24,0,0,0-.48,0v.73a.23.23,0,0,0,.24.22Z"/></svg>