<?xml version="1.0" encoding="utf-8"?><svg xmlns="http://www.w3.org/2000/svg" viewBox="0 0 80 80"><defs><style>.a{fill:#67cdec;}.b{fill:#5ab8e8;}.c{fill:#010101;}.d{fill:#fff;}.e{fill:#60bf7f;}.f{fill:#e68082;}</style></defs><path class="a" d="M42.68,15.21l.48-.09-.48,0-.47,0Z"/><path class="a" d="M26,55.88a4.43,4.43,0,0,1,.72-1.5v2.35C26.44,56.45,26.2,56.17,26,55.88Z"/><path class="a" d="M26.91,52c0,.3,0,.59,0,.88l-.25.06-1.91.45a4.51,4.51,0,0,0-.52.17c-.19-.29-.37-.59-.54-.89-.09-.15-.18-.29-.26-.44A25.1,25.1,0,0,1,20.31,41c0-.34,0-.68,0-1s0-.68,0-1a24.88,24.88,0,0,1,3.41-11.63c.35-.61.74-1.21,1.15-1.79a24.34,24.34,0,0,1,1.86-2.33h0a27.14,27.14,0,0,1,2.16-2.13,13,13,0,0,0-2,6.93V40.92a3.5,3.5,0,0,0-.75,2.17v.27h.75V44.9h-.75V46a3.45,3.45,0,0,0,.75,2.17v2.06L26.69,50v1.3l.22-.05Z"/><path class="a" d="M28.87,58.89l-.14-.14-.21-.18L27.93,58a3.68,3.68,0,0,1,.23-.44c.13.28.28.57.43.84l.2.34A1,1,0,0,1,28.87,58.89Z"/><path class="a" d="M56.48,21.1a13,13,0,0,1,2,6.93V52a13,13,0,0,1-2,6.91,25.07,25.07,0,0,0,0-37.79Z"/><path class="a" d="M42.68,64.8l-.43.08.43.05.44-.05Z"/><path class="b" d="M29.81,59.77v2a3.39,3.39,0,0,0,.93,2.33,3.19,3.19,0,0,0,.6.5,3.23,3.23,0,0,0,1.73.52H52.75V63h4.63a3.24,3.24,0,0,0,.21-.77,3,3,0,0,0,0-.52v-2Z"/><path class="c" d="M53.48,56.92a.34.34,0,0,1,0-.1v-.07l0-.26s0-.06,0-.09a.69.69,0,0,1,0-.13l0-.12c0-.1,0-.2-.07-.3v2.9H45.89a1,1,0,0,0,0,2h7.59V56.92ZM42,40.69l-.29.33h.85ZM35.31,59a1,1,0,0,0-.66-.25h-6.2a.42.42,0,0,0,0,.1l0,.08,0,.08,0,.11-.06.18-.07.25c0,.06,0,.12,0,.18h0c0,.06,0,.11,0,.17a.09.09,0,0,1,0,.05,1.1,1.1,0,0,0,0,.18h0a1.49,1.49,0,0,0,0,.21,1.49,1.49,0,0,0,0,.21v0h0c0,.07,0,.14,0,.2h6.64a.86.86,0,0,0,.32,0,1,1,0,0,0,.7-1A1,1,0,0,0,35.31,59Zm18-9v1.3l2,.48v-5.3A5.08,5.08,0,0,1,53.31,50ZM32.66,39a5.06,5.06,0,0,1,.84.76c.08-.26.17-.51.27-.76ZM53.48,56.92a.34.34,0,0,1,0-.1v-.07l0-.26s0-.06,0-.09a.69.69,0,0,1,0-.13l0-.12c0-.1,0-.2-.07-.3v2.9H45.89a1,1,0,0,0,0,2h7.59V56.92ZM42,40.69l-.29.33h.85ZM35.31,59a1,1,0,0,0-.66-.25h-6.2a.42.42,0,0,0,0,.1l0,.08,0,.08,0,.11-.06.18-.07.25c0,.06,0,.12,0,.18h0c0,.06,0,.11,0,.17a.09.09,0,0,1,0,.05,1.1,1.1,0,0,0,0,.18h0a1.49,1.49,0,0,0,0,.21,1.49,1.49,0,0,0,0,.21v0h0c0,.07,0,.14,0,.2h6.64a.86.86,0,0,0,.32,0,1,1,0,0,0,.7-1A1,1,0,0,0,35.31,59ZM32.66,39a5.06,5.06,0,0,1,.84.76c.08-.26.17-.51.27-.76ZM53.31,50v1.3l2,.48v-5.3A5.08,5.08,0,0,1,53.31,50Zm.17,6.88a.34.34,0,0,1,0-.1v-.07l0-.26s0-.06,0-.09a.69.69,0,0,1,0-.13l0-.12c0-.1,0-.2-.07-.3v2.9H45.89a1,1,0,0,0,0,2h7.59V56.92ZM42,40.69l-.29.33h.85ZM35.31,59a1,1,0,0,0-.66-.25h-6.2a.42.42,0,0,0,0,.1l0,.08,0,.08,0,.11-.06.18-.07.25c0,.06,0,.12,0,.18h0c0,.06,0,.11,0,.17a.09.09,0,0,1,0,.05,1.1,1.1,0,0,0,0,.18h0a1.49,1.49,0,0,0,0,.21,1.49,1.49,0,0,0,0,.21v0h0c0,.07,0,.14,0,.2h6.64a.86.86,0,0,0,.32,0,1,1,0,0,0,.7-1A1,1,0,0,0,35.31,59ZM32.66,39a5.06,5.06,0,0,1,.84.76c.08-.26.17-.51.27-.76ZM53.31,50v1.3l2,.48v-5.3A5.08,5.08,0,0,1,53.31,50Zm.17,6.88a.34.34,0,0,1,0-.1v-.07l0-.26s0-.06,0-.09a.69.69,0,0,1,0-.13l0-.12c0-.1,0-.2-.07-.3v2.9H45.89a1,1,0,0,0,0,2h7.59V56.92ZM42,40.69l-.29.33h.85ZM35.31,59a1,1,0,0,0-.66-.25h-6.2a.42.42,0,0,0,0,.1l0,.08,0,.08,0,.11-.06.18-.07.25c0,.06,0,.12,0,.18h0c0,.06,0,.11,0,.17a.09.09,0,0,1,0,.05,1.1,1.1,0,0,0,0,.18h0a1.49,1.49,0,0,0,0,.21,1.49,1.49,0,0,0,0,.21v0h0c0,.07,0,.14,0,.2h6.64a.86.86,0,0,0,.32,0,1,1,0,0,0,.7-1A1,1,0,0,0,35.31,59ZM32.66,39a5.06,5.06,0,0,1,.84.76c.08-.26.17-.51.27-.76ZM53.31,50v1.3l2,.48v-5.3A5.08,5.08,0,0,1,53.31,50Zm.17,6.88a.34.34,0,0,1,0-.1v-.07l0-.26s0-.06,0-.09a.69.69,0,0,1,0-.13l0-.12c0-.1,0-.2-.07-.3v2.9H45.89a1,1,0,0,0,0,2h7.59V56.92ZM42,40.69l-.29.33h.85ZM35.31,59a1,1,0,0,0-.66-.25h-6.2a.42.42,0,0,0,0,.1l0,.08,0,.08,0,.11-.06.18-.07.25c0,.06,0,.12,0,.18h0c0,.06,0,.11,0,.17a.09.09,0,0,1,0,.05,1.1,1.1,0,0,0,0,.18h0a1.49,1.49,0,0,0,0,.21,1.49,1.49,0,0,0,0,.21v0h0c0,.07,0,.14,0,.2h6.64a.86.86,0,0,0,.32,0,1,1,0,0,0,.7-1A1,1,0,0,0,35.31,59ZM32.66,39a5.06,5.06,0,0,1,.84.76c.08-.26.17-.51.27-.76ZM53.31,50v1.3l2,.48v-5.3A5.08,5.08,0,0,1,53.31,50Zm.17,6.88a.34.34,0,0,1,0-.1v-.07l0-.26s0-.06,0-.09a.69.69,0,0,1,0-.13l0-.12c0-.1,0-.2-.07-.3v2.9H45.89a1,1,0,0,0,0,2h7.59V56.92ZM42,40.69l-.29.33h.85ZM35.31,59a1,1,0,0,0-.66-.25h-6.2a.42.42,0,0,0,0,.1l0,.08,0,.08,0,.11-.06.18-.07.25c0,.06,0,.12,0,.18h0c0,.06,0,.11,0,.17a.09.09,0,0,1,0,.05,1.1,1.1,0,0,0,0,.18h0a1.49,1.49,0,0,0,0,.21,1.49,1.49,0,0,0,0,.21v0h0c0,.07,0,.14,0,.2h6.64a.86.86,0,0,0,.32,0,1,1,0,0,0,.7-1A1,1,0,0,0,35.31,59ZM32.66,39a5.06,5.06,0,0,1,.84.76c.08-.26.17-.51.27-.76ZM53.31,50v1.3l2,.48v-5.3A5.08,5.08,0,0,1,53.31,50Zm.17,6.88a.34.34,0,0,1,0-.1v-.07l0-.26s0-.06,0-.09a.69.69,0,0,1,0-.13l0-.12c0-.1,0-.2-.07-.3v2.9H45.89a1,1,0,0,0,0,2h7.59V56.92ZM42,40.69l-.29.33h.85ZM35.31,59a1,1,0,0,0-.66-.25h-6.2a.42.42,0,0,0,0,.1l0,.08,0,.08,0,.11-.06.18-.07.25c0,.06,0,.12,0,.18h0c0,.06,0,.11,0,.17a.09.09,0,0,1,0,.05,1.1,1.1,0,0,0,0,.18h0a1.49,1.49,0,0,0,0,.21,1.49,1.49,0,0,0,0,.21v0h0c0,.07,0,.14,0,.2h6.64a.86.86,0,0,0,.32,0,1,1,0,0,0,.7-1A1,1,0,0,0,35.31,59ZM32.66,39a5.06,5.06,0,0,1,.84.76c.08-.26.17-.51.27-.76ZM53.31,50v1.3l2,.48v-5.3A5.08,5.08,0,0,1,53.31,50Zm-18,9-.12.39a.57.57,0,0,1,0,.14l0,.16,0,.08a.5.5,0,0,0,0,.12l0,.12,0,.24,0,.22v0a.45.45,0,0,0,0,.11s0,.08,0,.12a1,1,0,0,0,.7-1A1,1,0,0,0,35.31,59Zm15.75.77H44.87a1,1,0,0,0,1,1H51.2A4.92,4.92,0,0,0,51.06,59.77Zm0,0a7.22,7.22,0,0,0-.35-1H45.89a1,1,0,0,0,0,2H51.2A4.92,4.92,0,0,0,51.06,59.77ZM35.31,59l-.12.39a.57.57,0,0,1,0,.14l0,.16,0,.08a.5.5,0,0,0,0,.12l0,.12,0,.24,0,.22v0a.45.45,0,0,0,0,.11s0,.08,0,.12a1,1,0,0,0,.7-1A1,1,0,0,0,35.31,59Zm15.75.77a7.22,7.22,0,0,0-.35-1H45.89a1,1,0,0,0,0,2H51.2A4.92,4.92,0,0,0,51.06,59.77ZM27.24,64.06v1.27a.77.77,0,0,0,.76.77H52a.78.78,0,0,0,.77-.77V64.06Zm18.65-3.27H51.2a4.92,4.92,0,0,0-.14-1,7.22,7.22,0,0,0-.35-1H45.89a1,1,0,0,0,0,2Zm-10.22-1a1,1,0,0,0-.36-.77l-.12.39a.57.57,0,0,1,0,.14l0,.16,0,.08a.5.5,0,0,0,0,.12l0,.12,0,.24,0,.22v0a.45.45,0,0,0,0,.11s0,.08,0,.12A1,1,0,0,0,35.67,59.77Zm15.39,0a7.22,7.22,0,0,0-.35-1H45.89a1,1,0,0,0,0,2H51.2A4.92,4.92,0,0,0,51.06,59.77Zm0,0H44.87a1,1,0,0,0,1,1H51.2A4.92,4.92,0,0,0,51.06,59.77ZM35.31,59l-.12.39a.57.57,0,0,1,0,.14l0,.16,0,.08a.5.5,0,0,0,0,.12l0,.12,0,.24,0,.22v0a.45.45,0,0,0,0,.11s0,.08,0,.12a1,1,0,0,0,.7-1A1,1,0,0,0,35.31,59Zm15.75.77H44.87a1,1,0,0,0,1,1H51.2A4.92,4.92,0,0,0,51.06,59.77ZM35.31,59l-.12.39a.57.57,0,0,1,0,.14l0,.16,0,.08a.5.5,0,0,0,0,.12l0,.12,0,.24,0,.22v0a.45.45,0,0,0,0,.11s0,.08,0,.12a1,1,0,0,0,.7-1A1,1,0,0,0,35.31,59Zm18-9v1.3l2,.48v-5.3A5.08,5.08,0,0,1,53.31,50ZM24.65,57.47v1.05c-.37-.3-.73-.62-1.08-1a.8.8,0,0,0-.18.5v2.72h1.54V58.07A.78.78,0,0,0,24.65,57.47ZM53.31,50v1.3l2,.48v-5.3A5.08,5.08,0,0,1,53.31,50Zm0,0v1.3l2,.48v-5.3A5.08,5.08,0,0,1,53.31,50Zm5.14-28.49A26.1,26.1,0,0,0,13.9,40a26.08,26.08,0,0,0,6.42,17.13c.49.56,1,1.1,1.54,1.62V57.08A3.66,3.66,0,0,1,22,56l-.22-.24.39-.22a3.79,3.79,0,0,1,2.07-2,4.51,4.51,0,0,1,.52-.17l1.91-.45v-5.1A3.48,3.48,0,0,1,26.16,46V44.9h.53V43.36h-.53v-.27a3.54,3.54,0,0,1,3.53-3.53,3.42,3.42,0,0,1,1,.13A3.47,3.47,0,0,1,32.56,41h2.25a5.24,5.24,0,0,1,.68-2h-7a4,4,0,0,0-.61.05V28H39v8.46a5,5,0,0,1,1-.1,5.66,5.66,0,0,1,1,.09V28h11V39a4,4,0,0,0-.61-.05H41V36.92A7,7,0,0,0,38.27,41h9.17a3.56,3.56,0,0,1,3.9-1.31A5.42,5.42,0,0,0,50,41h1.47a1.85,1.85,0,0,1,1.85,1.85V58.75H45.89a1,1,0,0,0,0,2H56.61v.94a2.24,2.24,0,0,1-.06.52,2.28,2.28,0,0,1-.32.77h2.23a3.9,3.9,0,0,0,.16-.77,4.41,4.41,0,0,0,0-.52v-2a1,1,0,0,0-.51-.88l-.09,0,.09-.09c.27-.25.52-.51.77-.78s.52-.56.77-.84A26.08,26.08,0,0,0,66.1,40,25.92,25.92,0,0,0,58.45,21.55ZM29.92,18.16a14,14,0,0,0-3.19,5.07h0a13.87,13.87,0,0,0-.67,2.59,12,12,0,0,1-1.19-.26,11.73,11.73,0,0,1-3.05-1.3A24.13,24.13,0,0,1,29.92,18.16Zm-9.38,7.71a13.94,13.94,0,0,0,3.18,1.48,13.17,13.17,0,0,0,2.17.51V39H16A23.91,23.91,0,0,1,20.54,25.87Zm4.11,26.52c-.31.07-.63.16-.93.26a13.82,13.82,0,0,0-2,.81c-.41.21-.82.43-1.21.68A23.89,23.89,0,0,1,16,41h9.15a3.85,3.85,0,0,0-.47,1.85ZM28.1,26A12.09,12.09,0,0,1,39,16V26ZM57.75,56.24h0c-.42.46-.86.91-1.32,1.33s-.71.65-1.08,1v-4a12,12,0,0,1,2.46,1l.14.08.25.14L58,56C57.91,56.07,57.83,56.15,57.75,56.24ZM54.11,27.86a14.16,14.16,0,0,0,4.26-1.37c.37-.19.73-.4,1.09-.62A23.91,23.91,0,0,1,64,39H54.11V27.86ZM41,26V16A12.09,12.09,0,0,1,51.9,26Zm9.06-7.82a24.19,24.19,0,0,1,7.68,5.63l.42.48L58,24.4a11.94,11.94,0,0,1-4,1.42A14.14,14.14,0,0,0,50.08,18.16Zm5.27,24.71A3.85,3.85,0,0,0,54.88,41H64a23.89,23.89,0,0,1-4.55,13.12,12.17,12.17,0,0,0-1.11-.63l-.09,0a14.26,14.26,0,0,0-2.93-1.07Zm-2,7.17v1.3l2,.48v-5.3A5.08,5.08,0,0,1,53.31,50Zm-18,9a1,1,0,0,0-.66-.25h-8V54.38a4.58,4.58,0,0,0-.88,2.7v3.71h8.84a.86.86,0,0,0,.32,0,1,1,0,0,0,.7-1A1,1,0,0,0,35.31,59Zm18-9v1.3l2,.48v-5.3A5.08,5.08,0,0,1,53.31,50ZM23.39,61.73v-.25H21.86V58.89a1,1,0,0,0-.51.88v2A4.24,4.24,0,0,0,21.54,63h2.23A2.38,2.38,0,0,1,23.39,61.73ZM53.31,50v1.3l2,.48v-5.3A5.08,5.08,0,0,1,53.31,50Zm0,0v1.3l2,.48v-5.3A5.08,5.08,0,0,1,53.31,50ZM32.66,39a5.06,5.06,0,0,1,.84.76c.08-.26.17-.51.27-.76Zm2.65,20a1,1,0,0,0-.66-.25h-6.2a.42.42,0,0,0,0,.1l0,.08,0,.08,0,.11-.06.18-.07.25c0,.06,0,.12,0,.18h0c0,.06,0,.11,0,.17a.09.09,0,0,1,0,.05,1.1,1.1,0,0,0,0,.18h0a1.49,1.49,0,0,0,0,.21,1.49,1.49,0,0,0,0,.21v0h0c0,.07,0,.14,0,.2h6.64a.86.86,0,0,0,.32,0,1,1,0,0,0,.7-1A1,1,0,0,0,35.31,59ZM42,40.69l-.29.33h.85Zm11.5,16.23a.34.34,0,0,1,0-.1v-.07l0-.26s0-.06,0-.09a.69.69,0,0,1,0-.13l0-.12c0-.1,0-.2-.07-.3v2.9H45.89a1,1,0,0,0,0,2h7.59V56.92ZM53.31,50v1.3l2,.48v-5.3A5.08,5.08,0,0,1,53.31,50ZM32.66,39a5.06,5.06,0,0,1,.84.76c.08-.26.17-.51.27-.76Zm2.65,20a1,1,0,0,0-.66-.25h-6.2a.42.42,0,0,0,0,.1l0,.08,0,.08,0,.11-.06.18-.07.25c0,.06,0,.12,0,.18h0c0,.06,0,.11,0,.17a.09.09,0,0,1,0,.05,1.1,1.1,0,0,0,0,.18h0a1.49,1.49,0,0,0,0,.21,1.49,1.49,0,0,0,0,.21v0h0c0,.07,0,.14,0,.2h6.64a.86.86,0,0,0,.32,0,1,1,0,0,0,.7-1A1,1,0,0,0,35.31,59ZM42,40.69l-.29.33h.85Zm11.5,16.23a.34.34,0,0,1,0-.1v-.07l0-.26s0-.06,0-.09a.69.69,0,0,1,0-.13l0-.12c0-.1,0-.2-.07-.3v2.9H45.89a1,1,0,0,0,0,2h7.59V56.92ZM53.31,50v1.3l2,.48v-5.3A5.08,5.08,0,0,1,53.31,50ZM32.66,39a5.06,5.06,0,0,1,.84.76c.08-.26.17-.51.27-.76Zm2.65,20a1,1,0,0,0-.66-.25h-6.2a.42.42,0,0,0,0,.1l0,.08,0,.08,0,.11-.06.18-.07.25c0,.06,0,.12,0,.18h0c0,.06,0,.11,0,.17a.09.09,0,0,1,0,.05,1.1,1.1,0,0,0,0,.18h0a1.49,1.49,0,0,0,0,.21,1.49,1.49,0,0,0,0,.21v0h0c0,.07,0,.14,0,.2h6.64a.86.86,0,0,0,.32,0,1,1,0,0,0,.7-1A1,1,0,0,0,35.31,59ZM42,40.69l-.29.33h.85Zm11.5,16.23a.34.34,0,0,1,0-.1v-.07l0-.26s0-.06,0-.09a.69.69,0,0,1,0-.13l0-.12c0-.1,0-.2-.07-.3v2.9H45.89a1,1,0,0,0,0,2h7.59V56.92ZM53.31,50v1.3l2,.48v-5.3A5.08,5.08,0,0,1,53.31,50ZM32.66,39a5.06,5.06,0,0,1,.84.76c.08-.26.17-.51.27-.76Zm2.65,20a1,1,0,0,0-.66-.25h-6.2a.42.42,0,0,0,0,.1l0,.08,0,.08,0,.11-.06.18-.07.25c0,.06,0,.12,0,.18h0c0,.06,0,.11,0,.17a.09.09,0,0,1,0,.05,1.1,1.1,0,0,0,0,.18h0a1.49,1.49,0,0,0,0,.21,1.49,1.49,0,0,0,0,.21v0h0c0,.07,0,.14,0,.2h6.64a.86.86,0,0,0,.32,0,1,1,0,0,0,.7-1A1,1,0,0,0,35.31,59ZM42,40.69l-.29.33h.85Zm11.5,16.23a.34.34,0,0,1,0-.1v-.07l0-.26s0-.06,0-.09a.69.69,0,0,1,0-.13l0-.12c0-.1,0-.2-.07-.3v2.9H45.89a1,1,0,0,0,0,2h7.59V56.92ZM53.31,50v1.3l2,.48v-5.3A5.08,5.08,0,0,1,53.31,50ZM32.66,39a5.06,5.06,0,0,1,.84.76c.08-.26.17-.51.27-.76Zm2.65,20a1,1,0,0,0-.66-.25h-6.2a.42.42,0,0,0,0,.1l0,.08,0,.08,0,.11-.06.18-.07.25c0,.06,0,.12,0,.18h0c0,.06,0,.11,0,.17a.09.09,0,0,1,0,.05,1.1,1.1,0,0,0,0,.18h0a1.49,1.49,0,0,0,0,.21,1.49,1.49,0,0,0,0,.21v0h0c0,.07,0,.14,0,.2h6.64a.86.86,0,0,0,.32,0,1,1,0,0,0,.7-1A1,1,0,0,0,35.31,59ZM42,40.69l-.29.33h.85Zm11.5,16.23a.34.34,0,0,1,0-.1v-.07l0-.26s0-.06,0-.09a.69.69,0,0,1,0-.13l0-.12c0-.1,0-.2-.07-.3v2.9H45.89a1,1,0,0,0,0,2h7.59V56.92ZM53.31,50v1.3l2,.48v-5.3A5.08,5.08,0,0,1,53.31,50ZM32.66,39a5.06,5.06,0,0,1,.84.76c.08-.26.17-.51.27-.76Zm2.65,20a1,1,0,0,0-.66-.25h-6.2a.42.42,0,0,0,0,.1l0,.08,0,.08,0,.11-.06.18-.07.25c0,.06,0,.12,0,.18h0c0,.06,0,.11,0,.17a.09.09,0,0,1,0,.05,1.1,1.1,0,0,0,0,.18h0a1.49,1.49,0,0,0,0,.21,1.49,1.49,0,0,0,0,.21v0h0c0,.07,0,.14,0,.2h6.64a.86.86,0,0,0,.32,0,1,1,0,0,0,.7-1A1,1,0,0,0,35.31,59ZM42,40.69l-.29.33h.85Zm11.5,16.23a.34.34,0,0,1,0-.1v-.07l0-.26s0-.06,0-.09a.69.69,0,0,1,0-.13l0-.12c0-.1,0-.2-.07-.3v2.9H45.89a1,1,0,0,0,0,2h7.59V56.92Z"/><path class="c" d="M40.37,58.75a1,1,0,0,0-1,1,1,1,0,0,0,.3.72,1,1,0,0,0,.72.3,1,1,0,0,0,1-1,1,1,0,0,0-.3-.72A1,1,0,0,0,40.37,58.75Z"/><path class="c" d="M40.72,54.74A1,1,0,1,0,40,55,1,1,0,0,0,40.72,54.74Z"/><path class="d" d="M31.14,50A4.29,4.29,0,0,0,34,46V43.28H28.29V46A4.3,4.3,0,0,0,31.14,50Z"/><path class="c" d="M28.35,44.13h0a10.28,10.28,0,0,0,5.27-1.46L34,44.13v-1a4.31,4.31,0,0,0-2.46-3.89A5.23,5.23,0,0,0,28.35,44Z"/><path class="e" d="M55.39,52.63l-3.15-.76V49.93H48.38v1.94l-.8.19,2.38.57a4.58,4.58,0,0,1,3.52,4.45v5.17h5.43V57.08A4.57,4.57,0,0,0,55.39,52.63Z"/><path class="d" d="M39.86,54.88l3.6-.86-.77-.19H37.31L32.9,54.88A6.39,6.39,0,0,0,28,61.09v4.24h7V61.09A6.39,6.39,0,0,1,39.86,54.88Z"/><path class="f" d="M47.08,54.88,43.46,54l-3.6.86A6.39,6.39,0,0,0,35,61.09v4.24H52V61.09A6.39,6.39,0,0,0,47.08,54.88Z"/><polygon class="d" points="29.58 49.94 27.7 49.94 27.7 51.92 29.7 56.72 30.64 54.46 29.58 51.92 29.58 49.94"/><polygon class="d" points="50.18 49.94 48.29 49.94 48.29 51.92 50.3 56.72 51.24 54.46 50.18 51.92 50.18 49.94"/><polygon class="d" points="31.71 49.94 29.58 49.94 29.58 51.92 30.64 54.46 31.71 51.92 31.71 49.94"/><polygon class="d" points="52.3 49.94 50.18 49.94 50.18 51.92 51.24 54.46 52.3 51.92 52.3 49.94"/><path class="d" d="M39.81,52.28v-.63H37.46v.63a2.41,2.41,0,0,1-.33,1.21L40,60l1.17-2.66-1.69-3.85A2.41,2.41,0,0,0,39.81,52.28Z"/><path class="d" d="M42.53,52.27v-.62H39.81v.63a2.41,2.41,0,0,1-.33,1.21l1.69,3.85,1.7-3.85A2.4,2.4,0,0,1,42.53,52.27Z"/><path class="d" d="M42,51.24a6,6,0,0,0,4-5.65V41.46H38.08v4.13A6,6,0,0,0,42,51.24Z"/><path class="c" d="M46,41.6v1.31l-.11.07-2.6-1.52L42.54,41,42,40.69l-.29.33c-.15.15-.3.3-.46.44A6.67,6.67,0,0,1,38.08,43v-.31a3.85,3.85,0,0,1,0-.48,5.35,5.35,0,0,1,.08-.7,3.12,3.12,0,0,1,.09-.44c.39-1.68,1.53-4.09,2.89-5.07.16-.11.18.75.35.65a6.34,6.34,0,0,1,.94-.47A6,6,0,0,1,45.39,39,5.85,5.85,0,0,1,46,41c0,.14,0,.29,0,.44A.71.71,0,0,1,46,41.6Z"/><path class="d" d="M51.78,50a4.3,4.3,0,0,0,2.83-4V43.28H48.94V46A4.29,4.29,0,0,0,51.78,50Z"/><path class="c" d="M54.61,43.09v1h-3A10.68,10.68,0,0,1,50,44c-.21-.11-.42-.22-.62-.35l-.05.22-.39-.1a4.1,4.1,0,0,1,.06-.49,2.56,2.56,0,0,1,.05-.27c.16-.73-.27-1.85.16-2.43s1.57-.52,2.09-.87a4.92,4.92,0,0,1,.87-.48A4.31,4.31,0,0,1,54.61,43.09Z"/><path class="c" d="M27.62,58.75a7.36,7.36,0,0,0-.38,2H28c0-.06,0-.13,0-.2h0v0a1.49,1.49,0,0,1,0-.21,1.49,1.49,0,0,1,0-.21h0a1.1,1.1,0,0,1,0-.18.09.09,0,0,0,0-.05c0-.06,0-.11,0-.17h0c0-.06,0-.12,0-.18l.07-.25.06-.18,0-.11,0-.08,0-.08a.42.42,0,0,1,0-.1Zm-3-1.28a.75.75,0,0,0-.49-.17.76.76,0,0,0-.77.77v2.72h1.54V58.07A.78.78,0,0,0,24.65,57.47ZM42.38,40a.77.77,0,0,0-1,.17,5.91,5.91,0,0,1-.84.82h1.13l.29-.33.56.33h1.53Zm14,17.54a.8.8,0,0,0-.59-.27.75.75,0,0,0-.49.17.78.78,0,0,0-.28.6v2.72h1.54V58.07A.8.8,0,0,0,56.43,57.57ZM41.85,52.08l-.1-.09-.08-.07h0l-.1-.08-.07-.05-.15-.1-.08,0H39.81v.71H40a6.67,6.67,0,0,0,1.85-.26Zm14.58,5.49a.8.8,0,0,0-.59-.27.75.75,0,0,0-.49.17.78.78,0,0,0-.28.6v2.72h1.54V58.07A.8.8,0,0,0,56.43,57.57ZM27.62,58.75a7.36,7.36,0,0,0-.38,2H28c0-.06,0-.13,0-.2h0v0a1.49,1.49,0,0,1,0-.21,1.49,1.49,0,0,1,0-.21h0a1.1,1.1,0,0,1,0-.18.09.09,0,0,0,0-.05c0-.06,0-.11,0-.17h0c0-.06,0-.12,0-.18l.07-.25.06-.18,0-.11,0-.08,0-.08a.42.42,0,0,1,0-.1Zm-3-1.28a.75.75,0,0,0-.49-.17.76.76,0,0,0-.77.77v2.72h1.54V58.07A.78.78,0,0,0,24.65,57.47ZM42.38,40a.77.77,0,0,0-1,.17,5.91,5.91,0,0,1-.84.82h1.13l.29-.33.56.33h1.53Zm-.53,12-.1-.09-.08-.07h0l-.1-.08-.07-.05-.15-.1-.08,0H39.81v.71H40a6.67,6.67,0,0,0,1.85-.26Zm14.58,5.49a.8.8,0,0,0-.59-.27.75.75,0,0,0-.49.17.78.78,0,0,0-.28.6v2.72h1.54V58.07A.8.8,0,0,0,56.43,57.57ZM27.62,58.75a7.36,7.36,0,0,0-.38,2H28c0-.06,0-.13,0-.2h0v0a1.49,1.49,0,0,1,0-.21,1.49,1.49,0,0,1,0-.21h0a1.1,1.1,0,0,1,0-.18.09.09,0,0,0,0-.05c0-.06,0-.11,0-.17h0c0-.06,0-.12,0-.18l.07-.25.06-.18,0-.11,0-.08,0-.08a.42.42,0,0,1,0-.1Zm-3-1.28a.75.75,0,0,0-.49-.17.76.76,0,0,0-.77.77v2.72h1.54V58.07A.78.78,0,0,0,24.65,57.47ZM42.38,40a.77.77,0,0,0-1,.17,5.91,5.91,0,0,1-.84.82h1.13l.29-.33.56.33h1.53Zm-.53,12-.1-.09-.08-.07h0l-.1-.08-.07-.05-.15-.1-.08,0H39.81v.71H40a6.67,6.67,0,0,0,1.85-.26Zm14.58,5.49a.8.8,0,0,0-.59-.27.75.75,0,0,0-.49.17.78.78,0,0,0-.28.6v2.72h1.54V58.07A.8.8,0,0,0,56.43,57.57ZM27.62,58.75a7.36,7.36,0,0,0-.38,2H28c0-.06,0-.13,0-.2h0v0a1.49,1.49,0,0,1,0-.21,1.49,1.49,0,0,1,0-.21h0a1.1,1.1,0,0,1,0-.18.09.09,0,0,0,0-.05c0-.06,0-.11,0-.17h0c0-.06,0-.12,0-.18l.07-.25.06-.18,0-.11,0-.08,0-.08a.42.42,0,0,1,0-.1Zm-3-1.28a.75.75,0,0,0-.49-.17.76.76,0,0,0-.77.77v2.72h1.54V58.07A.78.78,0,0,0,24.65,57.47ZM42.38,40a.77.77,0,0,0-1,.17,5.91,5.91,0,0,1-.84.82h1.13l.29-.33.56.33h1.53Zm-.53,12-.1-.09-.08-.07h0l-.1-.08-.07-.05-.15-.1-.08,0H39.81v.71H40a6.67,6.67,0,0,0,1.85-.26Zm14.58,5.49a.8.8,0,0,0-.59-.27.75.75,0,0,0-.49.17.78.78,0,0,0-.28.6v2.72h1.54V58.07A.8.8,0,0,0,56.43,57.57ZM27.62,58.75a7.36,7.36,0,0,0-.38,2H28c0-.06,0-.13,0-.2h0v0a1.49,1.49,0,0,1,0-.21,1.49,1.49,0,0,1,0-.21h0a1.1,1.1,0,0,1,0-.18.09.09,0,0,0,0-.05c0-.06,0-.11,0-.17h0c0-.06,0-.12,0-.18l.07-.25.06-.18,0-.11,0-.08,0-.08a.42.42,0,0,1,0-.1Zm-3-1.28a.75.75,0,0,0-.49-.17.76.76,0,0,0-.77.77v2.72h1.54V58.07A.78.78,0,0,0,24.65,57.47ZM42.38,40a.77.77,0,0,0-1,.17,5.91,5.91,0,0,1-.84.82h1.13l.29-.33.56.33h1.53Zm-.53,12-.1-.09-.08-.07h0l-.1-.08-.07-.05-.15-.1-.08,0H39.81v.71H40a6.67,6.67,0,0,0,1.85-.26Zm14.58,5.49a.8.8,0,0,0-.59-.27.75.75,0,0,0-.49.17.78.78,0,0,0-.28.6v2.72h1.54V58.07A.8.8,0,0,0,56.43,57.57ZM27.62,58.75a7.36,7.36,0,0,0-.38,2H28c0-.06,0-.13,0-.2h0v0a1.49,1.49,0,0,1,0-.21,1.49,1.49,0,0,1,0-.21h0a1.1,1.1,0,0,1,0-.18.09.09,0,0,0,0-.05c0-.06,0-.11,0-.17h0c0-.06,0-.12,0-.18l.07-.25.06-.18,0-.11,0-.08,0-.08a.42.42,0,0,1,0-.1Zm-3-1.28a.75.75,0,0,0-.49-.17.76.76,0,0,0-.77.77v2.72h1.54V58.07A.78.78,0,0,0,24.65,57.47ZM42.38,40a.77.77,0,0,0-1,.17,5.91,5.91,0,0,1-.84.82h1.13l.29-.33.56.33h1.53Zm-.53,12-.1-.09-.08-.07h0l-.1-.08-.07-.05-.15-.1-.08,0H39.81v.71H40a6.67,6.67,0,0,0,1.85-.26Zm14.58,5.49a.8.8,0,0,0-.59-.27.75.75,0,0,0-.49.17.78.78,0,0,0-.28.6v2.72h1.54V58.07A.8.8,0,0,0,56.43,57.57ZM27.62,58.75a7.36,7.36,0,0,0-.38,2H28c0-.06,0-.13,0-.2h0v0a1.49,1.49,0,0,1,0-.21,1.49,1.49,0,0,1,0-.21h0a1.1,1.1,0,0,1,0-.18.09.09,0,0,0,0-.05c0-.06,0-.11,0-.17h0c0-.06,0-.12,0-.18l.07-.25.06-.18,0-.11,0-.08,0-.08a.42.42,0,0,1,0-.1Zm-3-1.28a.75.75,0,0,0-.49-.17.76.76,0,0,0-.77.77v2.72h1.54V58.07A.78.78,0,0,0,24.65,57.47ZM42.38,40a.77.77,0,0,0-1,.17,5.91,5.91,0,0,1-.84.82h1.13l.29-.33.56.33h1.53Zm-.53,12-.1-.09-.08-.07h0l-.1-.08-.07-.05-.15-.1-.08,0H39.81v.71H40a6.67,6.67,0,0,0,1.85-.26Zm14.58,5.49a.8.8,0,0,0-.59-.27.75.75,0,0,0-.49.17.78.78,0,0,0-.28.6v1.7h1.54v-1.7A.8.8,0,0,0,56.43,57.57ZM42.38,40a.77.77,0,0,0-1,.17,5.91,5.91,0,0,1-.84.82h1.13l.29-.33.56.33h1.53Zm-.53,12-.1-.09-.08-.07h0l-.1-.08-.07-.05-.15-.1-.08,0H39.81v.71H40a6.67,6.67,0,0,0,1.85-.26Zm14.58,5.49a.8.8,0,0,0-.59-.27.75.75,0,0,0-.49.17.78.78,0,0,0-.28.6v1.7h1.54v-1.7A.8.8,0,0,0,56.43,57.57ZM24.16,57.3a.8.8,0,0,0-.59.27c.35.33.71.65,1.08,1V57.47A.75.75,0,0,0,24.16,57.3ZM42.38,40a.77.77,0,0,0-1,.17,5.91,5.91,0,0,1-.84.82h1.13l.29-.33.56.33h1.53Zm-.53,12-.1-.09-.08-.07h0l-.1-.08-.07-.05-.15-.1-.08,0H39.81v.71H40a6.67,6.67,0,0,0,1.85-.26ZM24.16,57.3a.8.8,0,0,0-.59.27c.35.33.71.65,1.08,1V57.47A.75.75,0,0,0,24.16,57.3Zm6.24-7.64-.14-.08-.16-.11-.41,0a3.5,3.5,0,0,1-2.78-1.36v2.06l.08.06v1l-.08,0V52c0,.3,0,.59,0,.88l.28-.07.3.72a4.73,4.73,0,0,1,.66-.44,4.28,4.28,0,0,1,.69-.31l-.34-.83v-1a5.21,5.21,0,0,0,1,.14v-1.1h1.36A3,3,0,0,1,30.4,49.66ZM27.93,58a6.81,6.81,0,0,0-.31.74h1.11l-.21-.18Zm-4.36-.44c.35.33.71.65,1.08,1V57.47a.75.75,0,0,0-.49-.17A.8.8,0,0,0,23.57,57.57ZM42.38,40a.77.77,0,0,0-1,.17,5.91,5.91,0,0,1-.84.82h1.13l.29-.33.56.33h1.53Zm-.53,12-.1-.09-.08-.07h0l-.1-.08-.07-.05-.15-.1-.08,0H39.81v.71H40a6.67,6.67,0,0,0,1.85-.26Zm17.66,3.67h0a5.29,5.29,0,0,0-1.14-2.19l-.09-.1a5.35,5.35,0,0,0-2.71-1.58l-.22-.06-2-.48-.3-.08v-1l.3-.21a5.08,5.08,0,0,0,2-3.52,5.25,5.25,0,0,0,0-.56V43.09a5.05,5.05,0,0,0-3.31-4.75A4.91,4.91,0,0,0,50.31,38a5.06,5.06,0,0,0-3,1,4.94,4.94,0,0,0-.83.75,4.78,4.78,0,0,0-.27-.75A6.69,6.69,0,0,0,40,34.84a7,7,0,0,0-1,.08,6.71,6.71,0,0,0-3.08,1.31A6.79,6.79,0,0,0,33.77,39c-.1.25-.19.5-.27.76a5.06,5.06,0,0,0-.84-.76,5,5,0,0,0-3-1,4.91,4.91,0,0,0-1.76.32,4.63,4.63,0,0,0-1,.51,5.06,5.06,0,0,0-2.29,4.24V46A5.06,5.06,0,0,0,26.69,50l.22.15.08.06v1l-.08,0-.22.05-2,.48-.22.06a5.34,5.34,0,0,0-4.11,5.2v5.17a.76.76,0,0,0,.77.77h6.15v2.31a.77.77,0,0,0,.76.77h8.44a.78.78,0,0,0,.77-.77.66.66,0,0,0-.05-.25.75.75,0,0,0-.72-.52H33V61.17a.86.86,0,0,0-.1-.38.79.79,0,0,0-.67-.38.76.76,0,0,0-.67.38.75.75,0,0,0-.1.38v3.39h-2.7V61.09c0-.1,0-.2,0-.3a5.6,5.6,0,0,1,4.3-5.16L35.89,55h0l1-.23L37.44,56l1.64,3.73.21.49a.8.8,0,0,0,.7.46h0a.8.8,0,0,0,.42-.13.75.75,0,0,0,.28-.33l.21-.49.27-.61,2-4.43,3.77.9a5.61,5.61,0,0,1,3.81,3.12,7.22,7.22,0,0,1,.35,1,4.92,4.92,0,0,1,.14,1c0,.1,0,.2,0,.3V62a.78.78,0,0,0,0,.6v2H48.53V61.17a.75.75,0,0,0-.1-.38.76.76,0,0,0-.67-.38.79.79,0,0,0-.67.38.86.86,0,0,0-.1.38v3.39H43.23a.76.76,0,0,0-.56.24h0a.47.47,0,0,0-.09.12.8.8,0,0,0-.08.16.66.66,0,0,0,0,.25.77.77,0,0,0,.77.77H52a.78.78,0,0,0,.77-.77V63h6.16a.76.76,0,0,0,.77-.77V57.08A5.33,5.33,0,0,0,59.51,55.75ZM53.84,46a3.48,3.48,0,0,1-.53,1.86,3.53,3.53,0,0,1-2.56,1.64h0a3.25,3.25,0,0,1-.44,0A3.54,3.54,0,0,1,46.77,46v-2.2a11.31,11.31,0,0,0,2.17.8,11.16,11.16,0,0,0,2.7.34h2.2Zm-6.58,8.18-2.43-.58a3.69,3.69,0,0,1,.56-.19l2.43-.58.76,1.8A7.33,7.33,0,0,0,47.26,54.14Zm-5.7.33-.82,1.88L40,58l-1.23-2.79-.62-1.42-.08-.17V52.08l.07,0a7,7,0,0,0,1.67.26H40a6.67,6.67,0,0,0,1.85-.26h.06v1.58l-.07.16Zm.58-12.8,3.09,1.82v2.29a5.25,5.25,0,0,1-2.58,4.33,5.32,5.32,0,0,1-1.67.62,5.25,5.25,0,0,1-3.62-.63,5.23,5.23,0,0,1-2.58-4.5V43.82h2.16a7.11,7.11,0,0,0,1.14-.09A7.4,7.4,0,0,0,42.14,41.67ZM28.53,51.93v-1a5.21,5.21,0,0,0,1,.14h.11a5.5,5.5,0,0,0,1.16-.13v1s0,.05,0,.07l-.15.36-.49,1.16-.53,1.26-.82-2Zm7.88-.61.13.08v1.13A5.27,5.27,0,0,0,35,51.88l-2.58-.62v-1A5,5,0,0,0,34,48.67,6.81,6.81,0,0,0,36.41,51.32Zm-5,3.26.75-1.79,2.44.58a5.05,5.05,0,0,1,.55.18l-2.44.58A7.13,7.13,0,0,0,31.42,54.58Zm12-3.17.14-.08A6.77,6.77,0,0,0,46,48.68a5,5,0,0,0,1.58,1.57v1L45,51.88a5.1,5.1,0,0,0-1.58.66Zm7.37,2.06-.52,1.25-.94-2.24L49.14,52s0-.06,0-.08v-1a5.69,5.69,0,0,0,1,.13h.13a4.91,4.91,0,0,0,1.16-.14v1L51,53Zm3-10.38v.27h-2.2a9.67,9.67,0,0,1-1.2-.08A10.08,10.08,0,0,1,49.09,43a9.67,9.67,0,0,1-2.18-.91A3.75,3.75,0,0,1,47.44,41a3.53,3.53,0,0,1,6.4,2.07ZM39,36.48a5,5,0,0,1,1-.1,5.66,5.66,0,0,1,1,.09l.49.13A5.21,5.21,0,0,1,45.2,41a3.15,3.15,0,0,1,0,.44s0,.1,0,.14v.1l-.42-.24L44.07,41l-1.69-1a.77.77,0,0,0-1,.17,5.91,5.91,0,0,1-.84.82,5.47,5.47,0,0,1-.63.44,5.83,5.83,0,0,1-1.83.7h0a6.12,6.12,0,0,1-1.14.11H34.78V41.6a5.63,5.63,0,0,1,0-.58A5.25,5.25,0,0,1,39,36.48ZM26.16,43.09a3.54,3.54,0,0,1,3.53-3.53,3.42,3.42,0,0,1,1,.13A3.47,3.47,0,0,1,32.56,41a3.75,3.75,0,0,1,.53,1.08,9.63,9.63,0,0,1-3.53,1.18,9.08,9.08,0,0,1-1.17.08H26.16Zm.75,5A3.45,3.45,0,0,1,26.16,46V44.9h2.2a11,11,0,0,0,4.87-1.14V46a3.54,3.54,0,0,1-3.13,3.51l-.41,0A3.5,3.5,0,0,1,26.91,48.13Zm-2,9.94a.78.78,0,0,0-.28-.6.75.75,0,0,0-.49-.17.76.76,0,0,0-.77.77v3.41H21.86v-4.4A3.66,3.66,0,0,1,22,56a2.85,2.85,0,0,1,.17-.46,3.79,3.79,0,0,1,2.07-2,4.51,4.51,0,0,1,.52-.17l1.91-.45.25-.06.28-.07.3.72,1.29,3.09a7.13,7.13,0,0,0-.65,1,3.68,3.68,0,0,0-.23.44,6.81,6.81,0,0,0-.31.74,7.36,7.36,0,0,0-.38,2v.69H24.93Zm33.21,3.41H56.61V58.07a.76.76,0,0,0-.77-.77.75.75,0,0,0-.49.17.78.78,0,0,0-.28.6v3.41H52.75v-.39c0-.1,0-.2,0-.3a7.07,7.07,0,0,0-.11-1,9.6,9.6,0,0,0-.27-1,7.22,7.22,0,0,0-1.18-2.14L52.27,54l.5-1.2.54.13,1.91.45a3.83,3.83,0,0,1,2.59,2.15,2.44,2.44,0,0,1,.1.24A1.87,1.87,0,0,1,58,56a3.66,3.66,0,0,1,.16,1.1ZM42.38,40a.77.77,0,0,0-1,.17,5.91,5.91,0,0,1-.84.82h1.13l.29-.33.56.33h1.53ZM24.16,57.3a.8.8,0,0,0-.59.27c.35.33.71.65,1.08,1V57.47A.75.75,0,0,0,24.16,57.3Zm4.36,1.27L27.93,58a6.81,6.81,0,0,0-.31.74h1.11Zm1.88-8.91-.14-.08-.16-.11-.41,0a3.5,3.5,0,0,1-2.78-1.36v2.06l.08.06v1l-.08,0V52c0,.3,0,.59,0,.88l.28-.07.3.72a4.73,4.73,0,0,1,.66-.44,4.28,4.28,0,0,1,.69-.31l-.34-.83v-1a5.21,5.21,0,0,0,1,.14v-1.1h1.36A3,3,0,0,1,30.4,49.66Zm11.45,2.42-.1-.09-.08-.07h0l-.1-.08-.07-.05-.15-.1-.08,0H39.81v.71H40a6.67,6.67,0,0,0,1.85-.26ZM24.16,57.3a.8.8,0,0,0-.59.27c.35.33.71.65,1.08,1V57.47A.75.75,0,0,0,24.16,57.3Zm17.69-5.22-.1-.09-.08-.07h0l-.1-.08-.07-.05-.15-.1-.08,0H39.81v.71H40a6.67,6.67,0,0,0,1.85-.26Zm.53-12a.77.77,0,0,0-1,.17,5.91,5.91,0,0,1-.84.82h1.13l.29-.33.56.33h1.53ZM24.16,57.3a.8.8,0,0,0-.59.27c.35.33.71.65,1.08,1V57.47A.75.75,0,0,0,24.16,57.3Zm32.27.27a.8.8,0,0,0-.59-.27.75.75,0,0,0-.49.17.78.78,0,0,0-.28.6v1.7h1.54v-1.7A.8.8,0,0,0,56.43,57.57ZM41.85,52.08l-.1-.09-.08-.07h0l-.1-.08-.07-.05-.15-.1-.08,0H39.81v.71H40a6.67,6.67,0,0,0,1.85-.26Zm.53-12a.77.77,0,0,0-1,.17,5.91,5.91,0,0,1-.84.82h1.13l.29-.33.56.33h1.53ZM24.65,57.47a.75.75,0,0,0-.49-.17.76.76,0,0,0-.77.77v2.72h1.54V58.07A.78.78,0,0,0,24.65,57.47Zm3,1.28a7.36,7.36,0,0,0-.38,2H28c0-.06,0-.13,0-.2h0v0a1.49,1.49,0,0,1,0-.21,1.49,1.49,0,0,1,0-.21h0a1.1,1.1,0,0,1,0-.18.09.09,0,0,0,0-.05c0-.06,0-.11,0-.17h0c0-.06,0-.12,0-.18l.07-.25.06-.18,0-.11,0-.08,0-.08a.42.42,0,0,1,0-.1Zm28.81-1.18a.8.8,0,0,0-.59-.27.75.75,0,0,0-.49.17.78.78,0,0,0-.28.6v1.7h1.54v-1.7A.8.8,0,0,0,56.43,57.57ZM41.85,52.08l-.1-.09-.08-.07h0l-.1-.08-.07-.05-.15-.1-.08,0H39.81v.71H40a6.67,6.67,0,0,0,1.85-.26Zm.53-12a.77.77,0,0,0-1,.17,5.91,5.91,0,0,1-.84.82h1.13l.29-.33.56.33h1.53ZM24.65,57.47a.75.75,0,0,0-.49-.17.76.76,0,0,0-.77.77v2.72h1.54V58.07A.78.78,0,0,0,24.65,57.47Zm3,1.28a7.36,7.36,0,0,0-.38,2H28c0-.06,0-.13,0-.2h0v0a1.49,1.49,0,0,1,0-.21,1.49,1.49,0,0,1,0-.21h0a1.1,1.1,0,0,1,0-.18.09.09,0,0,0,0-.05c0-.06,0-.11,0-.17h0c0-.06,0-.12,0-.18l.07-.25.06-.18,0-.11,0-.08,0-.08a.42.42,0,0,1,0-.1Zm28.81-1.18a.8.8,0,0,0-.59-.27.75.75,0,0,0-.49.17.78.78,0,0,0-.28.6v2.72h1.54V58.07A.8.8,0,0,0,56.43,57.57ZM41.85,52.08l-.1-.09-.08-.07h0l-.1-.08-.07-.05-.15-.1-.08,0H39.81v.71H40a6.67,6.67,0,0,0,1.85-.26Zm.53-12a.77.77,0,0,0-1,.17,5.91,5.91,0,0,1-.84.82h1.13l.29-.33.56.33h1.53ZM24.65,57.47a.75.75,0,0,0-.49-.17.76.76,0,0,0-.77.77v2.72h1.54V58.07A.78.78,0,0,0,24.65,57.47Zm3,1.28a7.36,7.36,0,0,0-.38,2H28c0-.06,0-.13,0-.2h0v0a1.49,1.49,0,0,1,0-.21,1.49,1.49,0,0,1,0-.21h0a1.1,1.1,0,0,1,0-.18.09.09,0,0,0,0-.05c0-.06,0-.11,0-.17h0c0-.06,0-.12,0-.18l.07-.25.06-.18,0-.11,0-.08,0-.08a.42.42,0,0,1,0-.1Zm28.81-1.18a.8.8,0,0,0-.59-.27.75.75,0,0,0-.49.17.78.78,0,0,0-.28.6v2.72h1.54V58.07A.8.8,0,0,0,56.43,57.57ZM41.85,52.08l-.1-.09-.08-.07h0l-.1-.08-.07-.05-.15-.1-.08,0H39.81v.71H40a6.67,6.67,0,0,0,1.85-.26Zm.53-12a.77.77,0,0,0-1,.17,5.91,5.91,0,0,1-.84.82h1.13l.29-.33.56.33h1.53ZM24.65,57.47a.75.75,0,0,0-.49-.17.76.76,0,0,0-.77.77v2.72h1.54V58.07A.78.78,0,0,0,24.65,57.47Zm3,1.28a7.36,7.36,0,0,0-.38,2H28c0-.06,0-.13,0-.2h0v0a1.49,1.49,0,0,1,0-.21,1.49,1.49,0,0,1,0-.21h0a1.1,1.1,0,0,1,0-.18.09.09,0,0,0,0-.05c0-.06,0-.11,0-.17h0c0-.06,0-.12,0-.18l.07-.25.06-.18,0-.11,0-.08,0-.08a.42.42,0,0,1,0-.1Zm28.81-1.18a.8.8,0,0,0-.59-.27.75.75,0,0,0-.49.17.78.78,0,0,0-.28.6v2.72h1.54V58.07A.8.8,0,0,0,56.43,57.57ZM41.85,52.08l-.1-.09-.08-.07h0l-.1-.08-.07-.05-.15-.1-.08,0H39.81v.71H40a6.67,6.67,0,0,0,1.85-.26Zm.53-12a.77.77,0,0,0-1,.17,5.91,5.91,0,0,1-.84.82h1.13l.29-.33.56.33h1.53ZM24.65,57.47a.75.75,0,0,0-.49-.17.76.76,0,0,0-.77.77v2.72h1.54V58.07A.78.78,0,0,0,24.65,57.47Zm3,1.28a7.36,7.36,0,0,0-.38,2H28c0-.06,0-.13,0-.2h0v0a1.49,1.49,0,0,1,0-.21,1.49,1.49,0,0,1,0-.21h0a1.1,1.1,0,0,1,0-.18.09.09,0,0,0,0-.05c0-.06,0-.11,0-.17h0c0-.06,0-.12,0-.18l.07-.25.06-.18,0-.11,0-.08,0-.08a.42.42,0,0,1,0-.1Zm28.81-1.18a.8.8,0,0,0-.59-.27.75.75,0,0,0-.49.17.78.78,0,0,0-.28.6v2.72h1.54V58.07A.8.8,0,0,0,56.43,57.57ZM41.85,52.08l-.1-.09-.08-.07h0l-.1-.08-.07-.05-.15-.1-.08,0H39.81v.71H40a6.67,6.67,0,0,0,1.85-.26Zm.53-12a.77.77,0,0,0-1,.17,5.91,5.91,0,0,1-.84.82h1.13l.29-.33.56.33h1.53ZM24.65,57.47a.75.75,0,0,0-.49-.17.76.76,0,0,0-.77.77v2.72h1.54V58.07A.78.78,0,0,0,24.65,57.47Zm3,1.28a7.36,7.36,0,0,0-.38,2H28c0-.06,0-.13,0-.2h0v0a1.49,1.49,0,0,1,0-.21,1.49,1.49,0,0,1,0-.21h0a1.1,1.1,0,0,1,0-.18.09.09,0,0,0,0-.05c0-.06,0-.11,0-.17h0c0-.06,0-.12,0-.18l.07-.25.06-.18,0-.11,0-.08,0-.08a.42.42,0,0,1,0-.1Zm28.81-1.18a.8.8,0,0,0-.59-.27.75.75,0,0,0-.49.17.78.78,0,0,0-.28.6v2.72h1.54V58.07A.8.8,0,0,0,56.43,57.57ZM41.85,52.08l-.1-.09-.08-.07h0l-.1-.08-.07-.05-.15-.1-.08,0H39.81v.71H40a6.67,6.67,0,0,0,1.85-.26Zm.53-12a.77.77,0,0,0-1,.17,5.91,5.91,0,0,1-.84.82h1.13l.29-.33.56.33h1.53ZM24.65,57.47a.75.75,0,0,0-.49-.17.76.76,0,0,0-.77.77v2.72h1.54V58.07A.78.78,0,0,0,24.65,57.47Zm3,1.28a7.36,7.36,0,0,0-.38,2H28c0-.06,0-.13,0-.2h0v0a1.49,1.49,0,0,1,0-.21,1.49,1.49,0,0,1,0-.21h0a1.1,1.1,0,0,1,0-.18.09.09,0,0,0,0-.05c0-.06,0-.11,0-.17h0c0-.06,0-.12,0-.18l.07-.25.06-.18,0-.11,0-.08,0-.08a.42.42,0,0,1,0-.1Zm28.81-1.18a.8.8,0,0,0-.59-.27.75.75,0,0,0-.49.17.78.78,0,0,0-.28.6v2.72h1.54V58.07A.8.8,0,0,0,56.43,57.57Z"/><path class="c" d="M38.13,45a.61.61,0,0,0-.07-.14,1.56,1.56,0,0,0-.21-.21l-.13-.07-.15,0a.76.76,0,0,0-.3,0l-.14,0-.14.07a.52.52,0,0,0-.11.1.74.74,0,0,0-.23.54.77.77,0,0,0,0,.15.57.57,0,0,0,0,.14.61.61,0,0,0,.07.14,1.56,1.56,0,0,0,.21.21l.14.07.14,0,.15,0a.74.74,0,0,0,.54-.23.52.52,0,0,0,.1-.11.61.61,0,0,0,.07-.14.58.58,0,0,0,0-.14,1.13,1.13,0,0,0,0-.3A.58.58,0,0,0,38.13,45Z"/><path class="c" d="M42,44.74a.52.52,0,0,0-.1.11s-.05.09-.07.14a.57.57,0,0,0,0,.14.57.57,0,0,0,0,.3.57.57,0,0,0,0,.14s0,.1.07.14a.52.52,0,0,0,.1.11.4.4,0,0,0,.12.1l.13.07.14,0,.15,0,.15,0,.15,0,.13-.07.12-.1a.77.77,0,0,0,0-1.08l-.12-.1-.13-.07-.15,0a.76.76,0,0,0-.3,0l-.14,0-.13.07A.4.4,0,0,0,42,44.74Z"/><path class="c" d="M40.39,47.32a.57.57,0,0,1-.82,0,.77.77,0,1,0-1.09,1.09A2.13,2.13,0,0,0,40,49a2.09,2.09,0,0,0,1.5-.62.77.77,0,1,0-1.09-1.09Z"/><path class="c" d="M39.34,65.75l.1.12a.48.48,0,0,0,.11.09l.14.08.14,0H40a.77.77,0,0,0,.54-.22l.1-.12a.54.54,0,0,0,.07-.13.74.74,0,0,0,0-.14.57.57,0,0,0,0-.3.65.65,0,0,0-.11-.28l-.1-.12a.76.76,0,0,0-.69-.21l-.14.05a.61.61,0,0,0-.14.07.48.48,0,0,0-.11.09l-.1.12a.65.65,0,0,0-.11.28.57.57,0,0,0,0,.3.74.74,0,0,0,0,.14A.54.54,0,0,0,39.34,65.75Z"/></svg>