<?xml version="1.0" encoding="utf-8"?><svg xmlns="http://www.w3.org/2000/svg" viewBox="0 0 80 80"><defs><style>.a{fill:#f6968f;}.b{fill:#98d09d;}.c{fill:#d6b75e;}.d{fill:#92d7eb;}</style></defs><path class="a" d="M29.1,33.88A1.5,1.5,0,0,1,28,33.44L12.26,17.65v3.29a1.5,1.5,0,0,1-1.5,1.5H6.12a1.5,1.5,0,0,1-1.5-1.5V7.9a1.5,1.5,0,0,1,.44-1.06L6.84,5.06A1.5,1.5,0,0,1,7.9,4.62h13a1.5,1.5,0,0,1,1.5,1.5v4.64a1.5,1.5,0,0,1-1.5,1.5H17.65L33.44,28a1.5,1.5,0,0,1,0,2.12l-3.28,3.28a1.5,1.5,0,0,1-1.06.44Z"/><path d="M20.94,6.12v4.64H14L32.38,29.1,29.1,32.38,10.76,14v6.91H6.12V7.9L7.9,6.12h13m0-3H7.9A3,3,0,0,0,5.78,4L4,5.78A3,3,0,0,0,3.12,7.9v13a3,3,0,0,0,3,3h4.64a3,3,0,0,0,3-2.68L27,34.5a3,3,0,0,0,4.24,0l3.28-3.28a3,3,0,0,0,0-4.24L21.26,13.74a3,3,0,0,0,2.68-3V6.12a3,3,0,0,0-3-3Z"/><path class="b" d="M7.9,75.38a1.5,1.5,0,0,1-1.06-.44L5.06,73.16a1.5,1.5,0,0,1-.44-1.06v-13a1.5,1.5,0,0,1,1.5-1.5h4.64a1.5,1.5,0,0,1,1.5,1.5v3.28L28,46.56a1.5,1.5,0,0,1,1.06-.44h0a1.5,1.5,0,0,1,1.06.44l3.27,3.28a1.49,1.49,0,0,1,0,2.12L17.65,67.75h3.29a1.5,1.5,0,0,1,1.5,1.5v4.63a1.5,1.5,0,0,1-1.5,1.5Z"/><path d="M29.1,47.62l3.27,3.28L14,69.25h6.91v4.63H7.9L6.12,72.1v-13h4.64V66L29.1,47.62m0-3A3,3,0,0,0,27,45.5L13.74,58.74a3,3,0,0,0-3-2.67H6.12a3,3,0,0,0-3,3v13A3,3,0,0,0,4,74.22L5.78,76a3,3,0,0,0,2.12.88h13a3,3,0,0,0,3-3V69.25a3,3,0,0,0-2.68-3L34.5,53a3,3,0,0,0,0-4.24L31.22,45.5a3,3,0,0,0-2.12-.88Z"/><path class="c" d="M59.07,75.38a1.5,1.5,0,0,1-1.5-1.5V69.25a1.5,1.5,0,0,1,1.5-1.5h3.28L46.57,52a1.49,1.49,0,0,1,0-2.12l3.27-3.28a1.5,1.5,0,0,1,2.12,0L67.75,62.35V59.07a1.5,1.5,0,0,1,1.5-1.5h4.63a1.5,1.5,0,0,1,1.5,1.5v13a1.5,1.5,0,0,1-.44,1.06l-1.78,1.78a1.5,1.5,0,0,1-1.06.44Z"/><path d="M50.9,47.62,69.25,66v-6.9h4.63v13L72.1,73.88h-13V69.25H66L47.63,50.9l3.27-3.28m0-3h0a3,3,0,0,0-2.12.88L45.5,48.78a3,3,0,0,0,0,4.24L58.75,66.27a3,3,0,0,0-2.68,3v4.63a3,3,0,0,0,3,3h13A3,3,0,0,0,74.22,76L76,74.22a3,3,0,0,0,.88-2.12v-13a3,3,0,0,0-3-3H69.25a3,3,0,0,0-3,2.68L53,45.5a3,3,0,0,0-2.12-.88Z"/><path class="d" d="M50.9,33.87a1.47,1.47,0,0,1-1.06-.44l-3.28-3.27a1.52,1.52,0,0,1,0-2.12L62.35,12.26H59.07a1.5,1.5,0,0,1-1.5-1.5V6.12a1.5,1.5,0,0,1,1.5-1.5h13a1.5,1.5,0,0,1,1.06.44l1.78,1.78a1.5,1.5,0,0,1,.44,1.06v13a1.5,1.5,0,0,1-1.5,1.5H69.25a1.5,1.5,0,0,1-1.5-1.5V17.65L52,33.43A1.47,1.47,0,0,1,50.9,33.87Z"/><path d="M72.1,6.12,73.88,7.9v13H69.25V14L50.9,32.37,47.63,29.1,66,10.76h-6.9V6.12h13m0-3h-13a3,3,0,0,0-3,3v4.64a3,3,0,0,0,2.67,3L45.5,27a3,3,0,0,0-.87,2.12,3,3,0,0,0,.87,2.12l3.28,3.28a3,3,0,0,0,4.24,0L66.27,21.25a3,3,0,0,0,3,2.69h4.63a3,3,0,0,0,3-3V7.9A3,3,0,0,0,76,5.78L74.22,4a3,3,0,0,0-2.12-.88Z"/></svg>