<?xml version="1.0" encoding="utf-8"?><svg xmlns="http://www.w3.org/2000/svg" viewBox="0 0 80 80"><defs><style>.a{fill:#d6b75e;}.b{fill:#e68082;}.c{fill:#010101;}</style></defs><path class="a" d="M51.75,33.26S69.54,35.63,63.09,54.1l2.32,1.42L71.8,44.08l-4.8-9-5.79-4.41L54,31Z"/><path class="b" d="M24.69,31.4S13.83,45.68,31.48,54.13l-.63,2.64L18.23,53.25l-3-9.73,1-7.21,5.34-4.91Z"/><path class="c" d="M28,58.45h-.95A14.92,14.92,0,1,1,40,34.92L40.74,36l-2.32,1.49a1,1,0,0,1-1.36-.26h0A11.19,11.19,0,0,0,25.72,32.5a11.25,11.25,0,0,0-8.61,14.56,11.06,11.06,0,0,0,9.53,7.6c.43,0,.78.06,1.13.06h.39c2.06,0,9-.84,12.35-11.75,4.16-13.7,14.09-14.39,16-14.39H57c.26,0,.6,0,.94,0A14.92,14.92,0,1,1,44.63,52.12L43.84,51l2.34-1.5a1,1,0,0,1,1.33.25h0a11.53,11.53,0,0,0,7.58,4.83,11.2,11.2,0,1,0,2.58-22.24c-.28,0-.57,0-.85,0h-.39c-2.06,0-9,.85-12.36,11.76C39.91,57.75,30,58.45,28,58.45Z"/></svg>