<?xml version="1.0" encoding="utf-8"?><svg xmlns="http://www.w3.org/2000/svg" viewBox="0 0 80 80"><defs><style>.a{fill:#6b6b6a;}.b{fill:#231f20;}.c{fill:#ffc534;}</style></defs><path class="a" d="M65.24,41.23a16.84,16.84,0,0,1-3.9-.45,11.63,11.63,0,0,1-2.92-1,2.25,2.25,0,0,1-.81-.7.75.75,0,0,1-.07-.12,2,2,0,0,1-.15-.76V37a1,1,0,0,1,1-1,1.25,1.25,0,0,1,.32,0l.32.13.3.12a13.36,13.36,0,0,0,2.71.86,14.5,14.5,0,0,0,2.93.3,6.59,6.59,0,0,0,3.53-.79,2.5,2.5,0,0,0,1.21-2.2,2.27,2.27,0,0,0-.62-1.61,6.05,6.05,0,0,0-2.44-1.24L63,30.45a7.78,7.78,0,0,1-4.1-2.62,6.11,6.11,0,0,1-1.29-3.75,5.73,5.73,0,0,1,.7-2.87,6.57,6.57,0,0,1,1.86-2.12,8.3,8.3,0,0,1,2.66-1.33,11.08,11.08,0,0,1,3.21-.43,12.35,12.35,0,0,1,1.7.1c.57.07,1.09.17,1.61.27s1,.26,1.47.41a5.65,5.65,0,0,1,1.1.48,2.24,2.24,0,0,1,.82.69,1.58,1.58,0,0,1,.25.93v1.12a1,1,0,0,1-1,1,1,1,0,0,1-.33,0c-.11,0-.28-.11-.49-.21a11.32,11.32,0,0,0-4.71-.95,6.14,6.14,0,0,0-3.21.67,2.17,2.17,0,0,0-1.08,2,2.15,2.15,0,0,0,.69,1.63,7.1,7.1,0,0,0,2.66,1.32l3.55,1.13a7.8,7.8,0,0,1,4,2.47A5.85,5.85,0,0,1,74.27,34a6.67,6.67,0,0,1-.67,3,6.94,6.94,0,0,1-1.89,2.28,8.27,8.27,0,0,1-2.83,1.43A12.1,12.1,0,0,1,65.24,41.23ZM12,41.13a7,7,0,0,1-5.15-1.86,6.52,6.52,0,0,1-1.91-4.94A6.65,6.65,0,0,1,7.29,29a9.25,9.25,0,0,1,6.25-2,20.93,20.93,0,0,1,2.68.2c.83.12,1.66.28,2.64.5V26.16a5.37,5.37,0,0,0-1.12-3.85c-.75-.73-2-1.09-3.92-1.09a11.3,11.3,0,0,0-2.65.32,18.61,18.61,0,0,0-2.67.84c-.35.15-.62.25-.78.3a1.1,1.1,0,0,1-.31,0,1,1,0,0,1-.59-.19,1,1,0,0,1-.41-.81V20.58a2.16,2.16,0,0,1,.14-.86,1,1,0,0,1,.26-.34,2.58,2.58,0,0,1,.6-.38,14.25,14.25,0,0,1,3.19-1.14,15.3,15.3,0,0,1,3.94-.48c3,0,5.26.7,6.7,2.08s2.13,3.51,2.13,6.3v8.52a1,1,0,0,1,.08.3A5.44,5.44,0,0,0,23.69,36a13,13,0,0,0,.78,1.77,1.12,1.12,0,0,1,.19.52,1,1,0,0,1-.24.79l-.12.12a1.19,1.19,0,0,1-.19.16l-1.58,1.05a1.44,1.44,0,0,1-.77.26.9.9,0,0,1-.28,0,1.63,1.63,0,0,1-.61-.36,7.74,7.74,0,0,1-.93-1.22c-.22-.36-.42-.75-.65-1.21A9.29,9.29,0,0,1,12,41.13Zm2.47-10.72a5.54,5.54,0,0,0-3.59,1,3.28,3.28,0,0,0-1.15,2.71,3.34,3.34,0,0,0,.86,2.5,3.29,3.29,0,0,0,2.48.86A7.77,7.77,0,0,0,15.58,37a5.26,5.26,0,0,0,2.28-1.54,3.58,3.58,0,0,0,.8-1.51,8.33,8.33,0,0,0,.25-2.12V31c-.73-.17-1.44-.3-2.12-.39A18.55,18.55,0,0,0,14.47,30.41ZM46,40.58a1.84,1.84,0,0,1-1-.23.44.44,0,0,1-.15-.12,2,2,0,0,1-.49-1.06L40.61,23.91,37,39.15a2.25,2.25,0,0,1-.47,1,.93.93,0,0,1-.46.29,2.65,2.65,0,0,1-.75.09H33.13a2,2,0,0,1-.89-.17l-.17-.11a2.15,2.15,0,0,1-.61-1.09L25.59,19.87a6.6,6.6,0,0,1-.18-.68,1,1,0,0,1,.19-.84,1,1,0,0,1,.78-.37h2.23a1.91,1.91,0,0,1,1,.19.91.91,0,0,1,.24.2,2.48,2.48,0,0,1,.46,1l4,15.72L38,19.36a1.92,1.92,0,0,1,.47-1,1,1,0,0,1,.44-.26,2.61,2.61,0,0,1,.77-.1h2a1.93,1.93,0,0,1,1,.18.81.81,0,0,1,.24.17,2,2,0,0,1,.48,1l3.75,15.91L51.2,19.36a2.62,2.62,0,0,1,.42-.93,1,1,0,0,1,.56-.36,2.37,2.37,0,0,1,.69-.09H55a1,1,0,0,1,1,1.21,3.74,3.74,0,0,1-.2.72l-6,19.3a2.49,2.49,0,0,1-.51,1l-.13.11a1.86,1.86,0,0,1-1,.26Z"/><path class="b" d="M66.07,18.33a11.94,11.94,0,0,1,1.56.09c.56.07,1.06.17,1.56.26s.91.24,1.35.38a5.28,5.28,0,0,1,.89.38,1.41,1.41,0,0,1,.5.39.59.59,0,0,1,.09.38v1.12a3.63,3.63,0,0,1-.39-.16,12.3,12.3,0,0,0-5.14-1.05,7.11,7.11,0,0,0-3.74.82,3.38,3.38,0,0,0-.55,5.24,8,8,0,0,0,3,1.55l3.55,1.13A6.88,6.88,0,0,1,72.28,31a4.89,4.89,0,0,1,1,3,5.59,5.59,0,0,1-.57,2.55,5.66,5.66,0,0,1-1.6,1.92,7.31,7.31,0,0,1-2.51,1.27,11.17,11.17,0,0,1-3.35.49,15.86,15.86,0,0,1-3.66-.42,11.11,11.11,0,0,1-2.66-.92,1.44,1.44,0,0,1-.46-.35,1,1,0,0,1-.07-.36V37l.31.12.25.11a15.11,15.11,0,0,0,2.88.91,16.09,16.09,0,0,0,3.14.32,7.47,7.47,0,0,0,4.07-1,3.49,3.49,0,0,0,1.67-3,3.26,3.26,0,0,0-.9-2.3A6.9,6.9,0,0,0,67,30.63L63.33,29.5a7,7,0,0,1-3.6-2.26,5.16,5.16,0,0,1-1.09-3.16,4.79,4.79,0,0,1,.57-2.38,5.62,5.62,0,0,1,1.58-1.8,7,7,0,0,1,2.36-1.18,10.12,10.12,0,0,1,2.92-.39m-51.53.05c2.74,0,4.76.6,6,1.8s1.83,3.07,1.83,5.58v8.88h.08a7.53,7.53,0,0,0,.28,1.68,15.75,15.75,0,0,0,.86,1.93.44.44,0,0,1,.08.18s-.05.06-.16.14l-1.53,1a.45.45,0,0,1-.22.09.63.63,0,0,1-.22-.14,7,7,0,0,1-.75-1c-.23-.39-.47-.84-.74-1.4L19.53,36l-.79.93A8.4,8.4,0,0,1,12,40.13a6.12,6.12,0,0,1-4.44-1.57,5.62,5.62,0,0,1-1.61-4.23,5.64,5.64,0,0,1,2-4.55A8.33,8.33,0,0,1,13.54,28a19.21,19.21,0,0,1,2.55.2c.86.11,1.74.29,2.8.53l1,.22V26.16c0-2.09-.48-3.63-1.41-4.56S16,20.22,13.82,20.22a12.29,12.29,0,0,0-2.89.35,18.79,18.79,0,0,0-2.8.88,6.23,6.23,0,0,1-.72.27V20.59a1.22,1.22,0,0,1,0-.45,1.43,1.43,0,0,1,.39-.25,13.94,13.94,0,0,1,3-1.06,14.62,14.62,0,0,1,3.71-.45M13.07,38.44A8.82,8.82,0,0,0,15.89,38a6.3,6.3,0,0,0,2.71-1.82,4.64,4.64,0,0,0,1-1.94,9.31,9.31,0,0,0,.28-2.36V30.16L19.3,30a24,24,0,0,0-2.38-.44,20.55,20.55,0,0,0-2.45-.16,6.5,6.5,0,0,0-4.23,1.18,4.29,4.29,0,0,0-1.51,3.49A4.27,4.27,0,0,0,9.9,37.3a4.22,4.22,0,0,0,3.17,1.14M55,19v0a2.91,2.91,0,0,1-.15.56l-6,19.34c-.14.47-.25.59-.26.59a.92.92,0,0,1-.46.08H46a1.09,1.09,0,0,1-.49-.06,1.27,1.27,0,0,1-.21-.55L41.37,22.82H39.84L36,38.92a1.55,1.55,0,0,1-.23.58,1.36,1.36,0,0,1-.48.06H33.13a.9.9,0,0,1-.43-.06s-.14-.14-.29-.61L26.54,19.58l-.16-.6h2.23a1.37,1.37,0,0,1,.46.05,1.92,1.92,0,0,1,.26.62l4.19,16.5,1.53,0L39,19.59a1.62,1.62,0,0,1,.2-.54,1.69,1.69,0,0,1,.51-.07h2a1.14,1.14,0,0,1,.49.06,1,1,0,0,1,.21.53l4,16.76,1.53,0,4.32-16.74a2,2,0,0,1,.25-.57,1.59,1.59,0,0,1,.46-.06H55m11.06-2.65a12,12,0,0,0-3.5.47,9.21,9.21,0,0,0-3,1.51,7.45,7.45,0,0,0-2.1,2.41,6.78,6.78,0,0,0-.83,3.36,7.14,7.14,0,0,0,1.49,4.36,8.79,8.79,0,0,0,4.6,3l3.64,1.13a5,5,0,0,1,2,1,1.23,1.23,0,0,1,.35.92A1.51,1.51,0,0,1,68,35.79a5.61,5.61,0,0,1-3,.63,13.48,13.48,0,0,1-2.74-.28,12.69,12.69,0,0,1-2.47-.78l0,0-.25-.11h0a2.92,2.92,0,0,0-.38-.15,1.89,1.89,0,0,0-.65-.11,2,2,0,0,0-2,2v1.22a2.9,2.9,0,0,0,.24,1.16,1,1,0,0,0,.12.23,3,3,0,0,0,1.19,1.06,12,12,0,0,0,3.17,1.12,17.8,17.8,0,0,0,4.13.48,13.09,13.09,0,0,0,3.94-.58A9.26,9.26,0,0,0,72.36,40a7.46,7.46,0,0,0,2.91-6,6.86,6.86,0,0,0-1.39-4.22A8.83,8.83,0,0,0,69.41,27l-3.56-1.12a6.19,6.19,0,0,1-2.28-1.1,1.18,1.18,0,0,1-.37-.9,1.2,1.2,0,0,1,.6-1.19,5.29,5.29,0,0,1,2.69-.52A10.31,10.31,0,0,1,70.8,23a4.53,4.53,0,0,0,.57.23,1.81,1.81,0,0,0,.65.11A2,2,0,0,0,73.18,23,2,2,0,0,0,74,21.33V20.21a2.55,2.55,0,0,0-.45-1.52,3.29,3.29,0,0,0-1.15-1,7.17,7.17,0,0,0-1.25-.54c-.51-.17-1-.3-1.5-.42l-.11,0c-.53-.1-1.07-.2-1.67-.28a12.35,12.35,0,0,0-1.82-.11Zm-51.53.05a16.26,16.26,0,0,0-4.22.52,15.7,15.7,0,0,0-3.38,1.21,3.76,3.76,0,0,0-.78.51,2,2,0,0,0-.51.67,3,3,0,0,0-.24,1.3v1.13a2,2,0,0,0,2,2A2.1,2.1,0,0,0,8,23.63c.26-.08.56-.2.88-.33a17.24,17.24,0,0,1,2.51-.79,10.32,10.32,0,0,1,2.41-.29,4.72,4.72,0,0,1,3.24.82,4.63,4.63,0,0,1,.8,3.12v.33c-.52-.11-1-.19-1.51-.26A21.06,21.06,0,0,0,13.54,26a10.14,10.14,0,0,0-6.9,2.24,7.63,7.63,0,0,0-2.7,6.07A7.59,7.59,0,0,0,6.15,40,8,8,0,0,0,12,42.13a10.3,10.3,0,0,0,7-2.62l0,0a9.76,9.76,0,0,0,1,1.34l.13.13a2.64,2.64,0,0,0,1,.59,1.88,1.88,0,0,0,.53.07,2.39,2.39,0,0,0,1.32-.42l1.53-1,.11-.08c.1-.08.18-.14.24-.2a2.13,2.13,0,0,0,.22-.21,2,2,0,0,0,.47-1.58,2.22,2.22,0,0,0-.32-.9,13.08,13.08,0,0,1-.7-1.59,5.6,5.6,0,0,1-.19-1.17,1.85,1.85,0,0,0-.07-.41V25.76c0-3.07-.81-5.42-2.43-7s-4.12-2.37-7.4-2.37ZM13.07,36.44a2.45,2.45,0,0,1-1.73-.53l-.06,0a2.46,2.46,0,0,1-.55-1.78,2.27,2.27,0,0,1,.78-1.94,4.74,4.74,0,0,1,3-.73,18.44,18.44,0,0,1,2.2.14c.4.06.81.12,1.24.2v.08a7.4,7.4,0,0,1-.22,1.88,2.74,2.74,0,0,1-.59,1.11,4.37,4.37,0,0,1-1.84,1.23,6.63,6.63,0,0,1-2.19.39ZM55,17H52.87a3.66,3.66,0,0,0-1,.12,2,2,0,0,0-1.08.71A3.75,3.75,0,0,0,50.25,19a.24.24,0,0,0,0,.08l-3.1,12-2.83-12a3,3,0,0,0-.75-1.51,2.46,2.46,0,0,0-.4-.3,2.88,2.88,0,0,0-1.5-.33h-2a3.29,3.29,0,0,0-1.12.17,2,2,0,0,0-.93.62,3.41,3.41,0,0,0-.6,1.34L34.24,30.87l-3-11.71,0-.11a3.49,3.49,0,0,0-.66-1.33,2,2,0,0,0-.63-.49A3.05,3.05,0,0,0,28.61,17H26.38a2,2,0,0,0-1.56.74,2,2,0,0,0-.39,1.68c0,.15.09.38.2.76L30.5,39.47A3.21,3.21,0,0,0,31.4,41a2.58,2.58,0,0,0,1.73.54h2.15a3.53,3.53,0,0,0,1-.13,2,2,0,0,0,.91-.55,3.35,3.35,0,0,0,.71-1.48l2.68-11.2L43.3,39.41A3,3,0,0,0,44,40.83a2,2,0,0,0,.51.42,2.84,2.84,0,0,0,1.49.33H48.1a2.84,2.84,0,0,0,1.6-.43,3.11,3.11,0,0,0,.28-.23,3.36,3.36,0,0,0,.76-1.43l6-19.29a5.49,5.49,0,0,0,.22-.84V19.3A2,2,0,0,0,55,17Z"/><path class="c" d="M39.53,62.67a55.6,55.6,0,0,1-36.6-13.6,1,1,0,0,1,.66-1.76,1.12,1.12,0,0,1,.49.13A75.18,75.18,0,0,0,40.4,56.86a74.43,74.43,0,0,0,28.28-5.78,1.73,1.73,0,0,1,.73-.17,1.34,1.34,0,0,1,1.3.88,1.38,1.38,0,0,1-.62,1.55C62.29,59.09,50.58,62.67,39.53,62.67Zm32.82-3.73a1.1,1.1,0,0,1-.55-.16,1,1,0,0,1-.38-1.21c.67-1.73,2.74-7,1.8-8.17-.26-.33-1-.72-3.43-.72a46.39,46.39,0,0,0-5,.35h-.12a1,1,0,0,1-.5-1.87,16.07,16.07,0,0,1,7.73-1.83c2.31,0,4.43.43,5,1a1,1,0,0,1,.18.23c.79,1.38-.29,8.22-4.09,12A1,1,0,0,1,72.35,58.94Z"/><path class="b" d="M71.92,46.34c2.5,0,4.1.49,4.36.74.51.9-.4,7.3-3.93,10.86,2.12-5.42,2.57-8,1.66-9.16-.59-.76-1.9-1.1-4.23-1.1a48.35,48.35,0,0,0-5.09.36,14.93,14.93,0,0,1,7.23-1.7m-68.33,2A76.06,76.06,0,0,0,40.4,57.86,75.33,75.33,0,0,0,69.07,52a.82.82,0,0,1,.34-.09.35.35,0,0,1,.35.2c0,.13-.11.31-.27.42-7.63,5.64-19.11,9.14-30,9.14A54.45,54.45,0,0,1,3.59,48.31m68.33-4a17,17,0,0,0-8.24,2,2,2,0,0,0,1,3.73h.23a42.4,42.4,0,0,1,4.86-.35,6.07,6.07,0,0,1,2.65.34c.1.35.17,1.78-1.94,7.19a2,2,0,0,0,3.28,2.14c3.79-3.83,5.44-11.17,4.25-13.26a1.74,1.74,0,0,0-.36-.45c-1.29-1.24-5-1.3-5.74-1.3Zm-68.33,2a2,2,0,0,0-1.32,3.51A56.62,56.62,0,0,0,39.53,63.67c11.25,0,23.19-3.65,31.15-9.53a2.28,2.28,0,0,0-1.27-4.23,2.87,2.87,0,0,0-1.16.26A73.21,73.21,0,0,1,40.4,55.86,74.13,74.13,0,0,1,4.57,46.57a2.05,2.05,0,0,0-1-.26Z"/></svg>