<?xml version="1.0" encoding="utf-8"?><svg xmlns="http://www.w3.org/2000/svg" viewBox="0 0 80 80"><defs><style>.a{fill:#fff;}.b{fill:#fbb756;}.c{fill:#97cfa0;}</style></defs><path class="a" d="M32.16,53.27a8.86,8.86,0,0,1,0-8.1A22.86,22.86,0,0,1,43.8,29.11v-.78H36.2v3.29a18,18,0,0,0-6,2.46l-2.33-2.32-5.37,5.37,2.32,2.33a18,18,0,0,0-2.46,5.95h-3.3V53h3.31a18.11,18.11,0,0,0,2.46,6L22.54,61.3l5.37,5.37,2.34-2.33a18,18,0,0,0,6,2.46v3.31h7.6v-.77A22.88,22.88,0,0,1,32.16,53.27Zm0,0"/><path class="b" d="M32.16,53.27a8.82,8.82,0,1,0,0-8.1,23,23,0,0,0,0,8.1Zm0,0"/><path class="c" d="M49.75,64.34l2.34,2.33,5.37-5.37L55.13,59a18.11,18.11,0,0,0,2.46-6H60.9v-7.6H57.59a17.78,17.78,0,0,0-2.47-5.95l2.33-2.33-5.37-5.37-2.33,2.32a18,18,0,0,0-6-2.46V29.11A22.86,22.86,0,0,0,32.16,45.17a8.82,8.82,0,1,1,0,8.1A22.9,22.9,0,0,0,43.8,69.34V66.8a18,18,0,0,0,6-2.46Zm0,0"/><path class="a" d="M48.82,49.22A8.82,8.82,0,1,1,40,40.4a8.82,8.82,0,0,1,8.82,8.82Zm0,0"/><path d="M69.11,32.55c0-.35,0-.7,0-1a9.6,9.6,0,0,0-9.58-9.59,21.48,21.48,0,0,0-3.45-5.63c-.23-.27-.46-.54-.71-.8L55,15a1.34,1.34,0,0,0-1.9,1.88c.15.14.29.29.43.43s.42.46.62.7a19.07,19.07,0,0,1,3.34,5.75,1.35,1.35,0,0,0,1.4.87,6.18,6.18,0,0,1,.73,0,6.93,6.93,0,0,1,6.93,6.92A7.23,7.23,0,0,1,66.33,33a1.34,1.34,0,0,0,.8,1.53,6.92,6.92,0,0,1-2.6,13.33h-2.3V45.41a1.34,1.34,0,0,0-1.33-1.33H58.64a19,19,0,0,0-1.83-4.42l1.58-1.59a1.34,1.34,0,0,0,.4-.94,1.32,1.32,0,0,0-.4-.94L53,30.82a1.33,1.33,0,0,0-1.88,0L49.55,32.4a19.44,19.44,0,0,0-4.42-1.83V28.33A1.33,1.33,0,0,0,43.8,27H36.2a1.33,1.33,0,0,0-1.33,1.33v2.24a19.44,19.44,0,0,0-4.42,1.83l-1.59-1.58a1.33,1.33,0,0,0-1.88,0l-5.37,5.37a1.29,1.29,0,0,0-.4.94,1.33,1.33,0,0,0,.39.94l1.59,1.59a19,19,0,0,0-1.83,4.42H19.11a1.33,1.33,0,0,0-1.33,1.33v2.43a10.18,10.18,0,0,1,1-20.32H19l.37,0h.05a10.26,10.26,0,0,1,4,1.1,1.2,1.2,0,0,0,.61.15,1.32,1.32,0,0,0,1.18-.72,1.34,1.34,0,0,0-.57-1.8,12.78,12.78,0,0,0-3.56-1.2A19.17,19.17,0,0,1,44,11.75a1.34,1.34,0,1,0,.62-2.6A21.81,21.81,0,0,0,18.36,24.86a12.85,12.85,0,0,0-.59,25.66V53a1.33,1.33,0,0,0,1.33,1.33h2.26a19,19,0,0,0,1.83,4.42l-1.59,1.6a1.33,1.33,0,0,0,0,1.88L27,67.62a1.34,1.34,0,0,0,1.89,0l1.6-1.6a19,19,0,0,0,4.42,1.83v2.26a1.34,1.34,0,0,0,1.33,1.34h7.6a1.34,1.34,0,0,0,1.33-1.34V67.85A19,19,0,0,0,49.55,66l1.6,1.6a1.34,1.34,0,0,0,1.89,0l5.36-5.38a1.32,1.32,0,0,0,0-1.88l-1.59-1.6a19,19,0,0,0,1.83-4.42H60.9A1.34,1.34,0,0,0,62.23,53V50.55h2.3a9.58,9.58,0,0,0,4.58-18ZM59.56,51.68h-2a1.33,1.33,0,0,0-1.3,1A16.54,16.54,0,0,1,54,58.24a1.33,1.33,0,0,0,.17,1.67l1.4,1.39-3.49,3.49-1.39-1.4A1.34,1.34,0,0,0,49,63.22a16.54,16.54,0,0,1-5.51,2.28,1.34,1.34,0,0,0-1.06,1.3v2H37.53v-2a1.33,1.33,0,0,0-1.05-1.3A16.54,16.54,0,0,1,31,63.22a1.34,1.34,0,0,0-1.67.17l-1.39,1.4L24.42,61.3l1.4-1.39A1.34,1.34,0,0,0,26,58.24a16.54,16.54,0,0,1-2.28-5.51,1.33,1.33,0,0,0-1.3-1h-2V46.75h2a1.34,1.34,0,0,0,1.3-1.06A16.54,16.54,0,0,1,26,40.18a1.34,1.34,0,0,0-.17-1.67l-1.39-1.38,3.49-3.49L29.3,35A1.33,1.33,0,0,0,31,35.2a16.54,16.54,0,0,1,5.51-2.28,1.32,1.32,0,0,0,1.05-1.3v-2h4.93v2a1.33,1.33,0,0,0,1.06,1.3A16.54,16.54,0,0,1,49,35.2,1.33,1.33,0,0,0,50.7,35l1.38-1.39,3.49,3.49-1.39,1.38A1.33,1.33,0,0,0,54,40.18a16.54,16.54,0,0,1,2.28,5.51,1.33,1.33,0,0,0,1.3,1.06h2v4.93Zm0,0"/><path d="M49.12,13.82l.08,0A1.33,1.33,0,0,0,51,13.41a1.34,1.34,0,0,0-.47-1.83l-.1-.06a1.33,1.33,0,0,0-1.34,2.3Zm0,0"/><path d="M40,39.07A10.16,10.16,0,1,0,50.15,49.22,10.17,10.17,0,0,0,40,39.07Zm0,17.64a7.49,7.49,0,1,1,7.49-7.49A7.5,7.5,0,0,1,40,56.71Zm0,0"/></svg>