<?xml version="1.0" encoding="utf-8"?><svg xmlns="http://www.w3.org/2000/svg" viewBox="0 0 80 80"><defs><style>.a{fill:#ddeed8;opacity:0.61;}.b{fill:#98d09d;}.c{fill:#fff;}.d{fill:#92d7eb;}.e{fill:#f6968f;}.f{fill:#d6b75e;}</style></defs><path class="a" d="M22.66,59.57a2.29,2.29,0,0,1-2-2.51V24.92a2.3,2.3,0,0,1,2-2.51H67.52a2.3,2.3,0,0,1,2,2.51V57.06a2.29,2.29,0,0,1-2,2.51Zm0,0"/><path class="b" d="M48.83,69.75,42.45,65.6V59.83h-3V65.6l-6.37,4.15a.47.47,0,0,0,.26.87H48.57a.47.47,0,0,0,.26-.87Zm0,0"/><path class="c" d="M18,15.63v4.08a5.15,5.15,0,0,1-10.3,0V15.63Zm0,0"/><path class="c" d="M22.3,19.71V15.63H18v4.08a5.15,5.15,0,0,0,7.28,4.68,5.14,5.14,0,0,1-3-4.68Zm0,0"/><path class="d" d="M28.33,19.71V15.63h-6v4.08a5.14,5.14,0,0,0,3,4.68,5.15,5.15,0,0,0,3-4.68Zm0,0"/><path class="c" d="M38.62,15.63v4.08a5.15,5.15,0,0,1-10.29,0V15.63Zm0,0"/><path class="c" d="M42.56,19.71V15.63H38.62v4.08a5.15,5.15,0,0,0,7.12,4.75,5.14,5.14,0,0,1-3.18-4.75Zm0,0"/><path class="e" d="M48.92,19.71V15.63H42.56v4.08a5.14,5.14,0,0,0,3.18,4.75,5.14,5.14,0,0,0,3.18-4.75Zm0,0"/><path class="c" d="M59.21,15.63v4.08a5.15,5.15,0,0,1-10.29,0V15.63Zm0,0"/><path class="c" d="M63.61,19.71V15.63h-4.4v4.08a5.15,5.15,0,0,0,5.15,5.14,5.07,5.07,0,0,0,2.2-.49,5.13,5.13,0,0,1-3-4.65Zm0,0"/><path class="f" d="M69.51,19.71V15.63h-5.9v4.08a5.13,5.13,0,0,0,3,4.65,5.15,5.15,0,0,0,3-4.65Zm0,0"/><path class="c" d="M18.54,35.72l-1.31-4,4.42,16.09h7.41L25.74,35.72Zm0,0"/><path class="b" d="M26,35.72h-.21l3.32,12.07h6.59l3-12.07Zm0,0"/><path class="c" d="M51.89,49a2.51,2.51,0,0,1,2.51-2.51H48.17a2.51,2.51,0,0,0,0,5H54.4A2.51,2.51,0,0,1,51.89,49Zm0,0"/><path class="d" d="M62.73,49a2.51,2.51,0,0,0-2.51-2.51H54.4a2.51,2.51,0,1,0,0,5h5.82A2.51,2.51,0,0,0,62.73,49Zm0,0"/><path d="M50.22,58.32h-40A1.25,1.25,0,0,1,9,57.06V28.69a1.26,1.26,0,0,0-2.51,0V57.06a3.76,3.76,0,0,0,3.76,3.77H33.54v4.09L27.73,68.7a1.73,1.73,0,0,0,.95,3.18H48.57a1.73,1.73,0,0,0,1-3.18l-5.81-3.78V60.83h6.51a1.26,1.26,0,0,0,0-2.51Zm-8.45,8.33,4.17,2.72H31.31l4.17-2.72a1.23,1.23,0,0,0,.57-1.05V60.83H41.2V65.6a1.23,1.23,0,0,0,.57,1.05Zm0,0"/><path d="M55.45,58.32a1.24,1.24,0,0,0-.89.37,1.24,1.24,0,0,0,0,1.77,1.24,1.24,0,0,0,.89.37,1.26,1.26,0,1,0,0-2.51Zm0,0"/><path d="M69.51,27.44a1.26,1.26,0,0,0-1.26,1.25V57.06A1.25,1.25,0,0,1,67,58.32H60.18a1.26,1.26,0,1,0,0,2.51H67a3.77,3.77,0,0,0,3.76-3.77V28.69a1.25,1.25,0,0,0-1.25-1.25Zm0,0"/><path d="M69.51,14.38H7.74a1.25,1.25,0,0,0-1.25,1.25v4.08A6.4,6.4,0,0,0,18,23.51a6.39,6.39,0,0,0,10.29,0,6.39,6.39,0,0,0,10.29,0,6.4,6.4,0,0,0,10.3,0,6.39,6.39,0,0,0,10.29,0,6.4,6.4,0,0,0,11.55-3.8V15.63a1.25,1.25,0,0,0-1.25-1.25ZM12.89,23.6A3.89,3.89,0,0,1,9,19.71V16.89h7.78v2.82a3.9,3.9,0,0,1-3.89,3.89Zm10.29,0a3.9,3.9,0,0,1-3.89-3.89V16.89h7.78v2.82a3.89,3.89,0,0,1-3.89,3.89Zm10.3,0a3.89,3.89,0,0,1-3.89-3.89V16.89h7.78v2.82a3.9,3.9,0,0,1-3.89,3.89Zm10.29,0a3.9,3.9,0,0,1-3.89-3.89V16.89h7.78v2.82a3.89,3.89,0,0,1-3.89,3.89Zm10.3,0a3.9,3.9,0,0,1-3.9-3.89V16.89H58v2.82a3.9,3.9,0,0,1-3.89,3.89Zm14.18-3.89a3.89,3.89,0,0,1-7.78,0V16.89h7.78Zm0,0"/><path d="M36.87,48.09l3-12.07a1.3,1.3,0,0,0-.23-1.08,1.28,1.28,0,0,0-1-.48H19.29l-.85-3.09a1.26,1.26,0,0,0-1.21-.92H14.56a1.26,1.26,0,0,0,0,2.51h1.71l4.17,15.16a1.24,1.24,0,0,0,1.21.92h14a1.23,1.23,0,0,0,1.22-.95ZM22.61,46.53,20,37H37l-2.34,9.55Zm0,0"/><path d="M21.67,50.69a1.26,1.26,0,0,0-.37.89,1.24,1.24,0,0,0,.37.89,1.24,1.24,0,0,0,1.77,0,1.24,1.24,0,0,0,.37-.89,1.26,1.26,0,0,0-2.14-.89Zm0,0"/><path d="M32.59,50.69a1.3,1.3,0,0,0-.37.89,1.26,1.26,0,0,0,1.26,1.26,1.26,1.26,0,0,0,.88-.37,1.24,1.24,0,0,0,.37-.89,1.25,1.25,0,0,0-1.25-1.25,1.27,1.27,0,0,0-.89.36Zm0,0"/><path d="M48.17,52.8h12a3.77,3.77,0,0,0,0-7.54h-12a3.77,3.77,0,0,0,0,7.54Zm0-5h12a1.26,1.26,0,0,1,0,2.51h-12a1.26,1.26,0,1,1,0-2.51Zm0,0"/><path d="M45.66,42.75H62.73a1.26,1.26,0,0,0,0-2.51H45.66a1.26,1.26,0,1,0,0,2.51Zm0,0"/><path d="M62.73,37.73a1.26,1.26,0,0,0,0-2.51H51.14a1.26,1.26,0,1,0,0,2.51Zm0,0"/><path d="M45.66,37.73a1.26,1.26,0,0,0,1.25-1.25,1.24,1.24,0,0,0-.37-.89,1.26,1.26,0,0,0-.88-.37,1.28,1.28,0,0,0-.89.37,1.24,1.24,0,0,0-.37.89,1.22,1.22,0,0,0,.37.88,1.24,1.24,0,0,0,.89.37Zm0,0"/></svg>