<?xml version="1.0" encoding="utf-8"?><svg xmlns="http://www.w3.org/2000/svg" viewBox="0 0 80 80"><defs><style>.a{fill:#d6b75e;}.b{fill:#d2d3d4;}.c{fill:#fee9ae;}</style></defs><path class="a" d="M43.86,71.35A3.87,3.87,0,1,1,40,67.48a3.86,3.86,0,0,1,3.86,3.87Zm0,0"/><polyline class="b" points="17.53 38.28 17.53 33.42 12.95 33.42 12.95 39.29"/><path class="b" d="M62.47,38.28V33.42h4.58v5.87Zm0,0"/><path class="a" d="M19.67,39.12a14.47,14.47,0,0,0,0,27.24Zm0,0"/><path class="a" d="M65.8,39.19v27.1a14.46,14.46,0,0,0,0-27.1Zm0,0"/><path class="c" d="M42.72,4.92a28.66,28.66,0,0,0-25.91,28.5h3.73A19.48,19.48,0,0,1,40,14a20.37,20.37,0,0,1,2.72.19A20.25,20.25,0,0,1,45.44,14,19.47,19.47,0,0,1,64.89,33.42h3.74A28.67,28.67,0,0,0,42.72,4.92Zm0,0"/><path d="M14.57,47.12A1.43,1.43,0,0,0,16,45.69v-.13a1.43,1.43,0,1,0-2.86,0v.13a1.43,1.43,0,0,0,1.43,1.43Zm0,0"/><path d="M14.57,61.35A1.43,1.43,0,0,0,16,59.92v-10a1.43,1.43,0,1,0-2.86,0v10a1.43,1.43,0,0,0,1.43,1.43Zm0,0"/><path d="M65.43,44.13A1.43,1.43,0,0,0,64,45.56v.13a1.43,1.43,0,1,0,2.86,0v-.13a1.43,1.43,0,0,0-1.43-1.43Zm0,0"/><path d="M65.43,48.46A1.43,1.43,0,0,0,64,49.89v10a1.43,1.43,0,1,0,2.86,0v-10a1.43,1.43,0,0,0-1.43-1.43Zm0,0"/><path d="M68.49,38.86v-4h.14a1.43,1.43,0,0,0,1.43-1.43,30.06,30.06,0,0,0-60.12,0,1.43,1.43,0,0,0,1.43,1.43h.14v4a15.89,15.89,0,0,0,1.68,28.57,6.29,6.29,0,0,0,6.23,5.49H34.94a5.3,5.3,0,1,0-.08-2.86H19.42a3.44,3.44,0,0,1-2.94-1.67,15.74,15.74,0,0,0,2.76.24h.43A1.43,1.43,0,0,0,21.1,67.2V38.28a1.42,1.42,0,0,0-.42-1,1.41,1.41,0,0,0-1-.42H19v-2h1.58A1.43,1.43,0,0,0,22,33.42a18,18,0,1,1,36.05,0,1.43,1.43,0,0,0,1.43,1.43H61v2h-.71a1.41,1.41,0,0,0-1,.42,1.42,1.42,0,0,0-.42,1V67.2a1.43,1.43,0,0,0,1.43,1.43h.43a15.89,15.89,0,0,0,7.73-29.77ZM40,68.91a2.44,2.44,0,1,1-2.44,2.44A2.44,2.44,0,0,1,40,68.91ZM18.24,65.73a13,13,0,0,1,0-26Zm-2.15-28.6-1.71.38V34.85h1.71ZM40,12.53A20.91,20.91,0,0,0,19.16,32H12.84a27.2,27.2,0,0,1,54.32,0H60.84A20.91,20.91,0,0,0,40,12.53ZM63.91,34.85h1.71v2.76a16.52,16.52,0,0,0-1.71-.45ZM61.76,65.73v-26a13,13,0,0,1,0,26Zm0,0"/><path class="a" d="M30.84,47.75a1,1,0,0,0-1-1H27.35a1,1,0,1,1,0-2h2.46a3.08,3.08,0,1,1,0,6.16,1.45,1.45,0,0,0-1.44,1.44v.62h3.5a1,1,0,0,1,0,2H27.35a1,1,0,0,1-1-1V52.27a3.49,3.49,0,0,1,3.49-3.49A1,1,0,0,0,30.84,47.75ZM35,44.67a1,1,0,0,0-1,1V50a1,1,0,0,0,1,1h3.3v2.86a1,1,0,0,0,2.06,0V45.7a1,1,0,0,0-2.06,0V49H36V45.7A1,1,0,0,0,35,44.67Zm10,.66-3.08,8.22a1,1,0,0,0,.6,1.32.92.92,0,0,0,.36.07,1,1,0,0,0,1-.67l3.08-8.21A1,1,0,1,0,45,45.33Zm4.3,9.55a1.13,1.13,0,0,0,.36.06,1,1,0,0,0,1-.67l3-8.22a1,1,0,0,0-.12-.94,1,1,0,0,0-.85-.44H49.21a1,1,0,1,0,0,2h2l-2.53,6.84A1,1,0,0,0,49.25,54.88Z"/></svg>