<?xml version="1.0" encoding="utf-8"?>
<!-- Generator: Adobe Illustrator 23.0.2, SVG Export Plug-In . SVG Version: 6.00 Build 0)  -->
<svg version="1.1" id="Layer_1" xmlns="http://www.w3.org/2000/svg" xmlns:xlink="http://www.w3.org/1999/xlink" x="0px" y="0px"
	 viewBox="0 0 560 288" style="enable-background:new 0 0 560 288;" xml:space="preserve">
<style type="text/css">
	.st0{fill:none;stroke:#FF0000;stroke-width:2;stroke-miterlimit:10;}
</style>
<path class="st0" d="M-9.85,89.98c13.9,24.21,36.6,54.31,69.45,59.23c25.57,3.83,39.28-10.28,65.87-11.74
	c49.64-2.73,59.93,57.95,105.7,58.72c29.1,0.49,30.27-21.2,59.23-21.45c48.36-0.41,58.15,59.95,112.34,67.4
	c36.87,5.07,48.61-20.64,86.3-16.34c39.69,4.53,68.32,37.78,85.79,63.83"/>
<path class="st0" d="M-16.31,98.91c13.9,24.21,36.6,54.31,69.45,59.23c25.57,3.83,39.28-10.28,65.87-11.74
	c49.64-2.73,59.93,57.95,105.7,58.72c29.1,0.49,30.27-21.2,59.23-21.45c48.36-0.41,58.15,59.95,112.34,67.4
	c36.87,5.07,48.61-20.64,86.3-16.34c39.69,4.53,68.32,37.78,85.79,63.83"/>
<path class="st0" d="M-19.91,108.42c13.9,24.21,36.6,54.31,69.45,59.23c25.57,3.83,39.28-10.28,65.87-11.74
	c49.64-2.73,59.93,57.95,105.7,58.72c29.1,0.49,30.27-21.2,59.23-21.45c48.36-0.41,58.15,59.95,112.34,67.4
	c36.87,5.07,48.61-20.64,86.3-16.34c39.69,4.53,68.32,37.78,85.79,63.83"/>
<path class="st0" d="M-24.68,117.61c13.9,24.21,36.6,54.31,69.45,59.23c25.57,3.83,39.28-10.28,65.87-11.74
	c49.64-2.73,59.93,57.95,105.7,58.72c29.1,0.49,30.27-21.2,59.23-21.45c48.36-0.41,58.15,59.95,112.34,67.4
	c36.87,5.07,48.61-20.64,86.3-16.34c39.69,4.53,68.32,37.78,85.79,63.83"/>
<path class="st0" d="M-27.67,127.38c13.9,24.21,36.6,54.31,69.45,59.23c25.57,3.83,39.28-10.28,65.87-11.74
	c49.64-2.73,59.93,57.95,105.7,58.72c29.1,0.49,30.27-21.2,59.23-21.45c48.36-0.41,58.15,59.95,112.34,67.4
	c36.87,5.07,48.61-20.64,86.3-16.34c39.69,4.53,68.32,37.78,85.79,63.83"/>
</svg>
